<svg id="dashboard" xmlns="http://www.w3.org/2000/svg" width="36" height="36" viewBox="0 0 36 36">
  <path id="Path_25" data-name="Path 25" d="M13.875,0H2.625A2.628,2.628,0,0,0,0,2.625v6.75A2.628,2.628,0,0,0,2.625,12h11.25A2.628,2.628,0,0,0,16.5,9.375V2.625A2.628,2.628,0,0,0,13.875,0Zm0,0" fill="#eab88c"/>
  <path id="Path_26" data-name="Path 26" d="M13.875,213.332H2.625A2.628,2.628,0,0,0,0,215.957v15.75a2.628,2.628,0,0,0,2.625,2.625h11.25a2.628,2.628,0,0,0,2.625-2.625v-15.75A2.628,2.628,0,0,0,13.875,213.332Zm0,0" transform="translate(0 -198.332)" fill="#77323b"/>
  <path id="Path_27" data-name="Path 27" d="M291.207,341.332h-11.25a2.628,2.628,0,0,0-2.625,2.625v6.75a2.628,2.628,0,0,0,2.625,2.625h11.25a2.628,2.628,0,0,0,2.625-2.625v-6.75A2.628,2.628,0,0,0,291.207,341.332Zm0,0" transform="translate(-257.832 -317.332)" fill="#eab88c"/>
  <path id="Path_28" data-name="Path 28" d="M291.207,0h-11.25a2.628,2.628,0,0,0-2.625,2.625v15.75A2.628,2.628,0,0,0,279.957,21h11.25a2.628,2.628,0,0,0,2.625-2.625V2.625A2.628,2.628,0,0,0,291.207,0Zm0,0" transform="translate(-257.832)" fill="#77323b"/>
</svg>
