<?xml version="1.0" encoding="iso-8859-1"?>
<!-- Generator: Adobe Illustrator 19.0.0, SVG Export Plug-In . SVG Version: 6.00 Build 0)  -->
<svg version="1.1" id="Capa_1" xmlns="http://www.w3.org/2000/svg" xmlns:xlink="http://www.w3.org/1999/xlink" x="0px" y="0px"
	 viewBox="0 0 512.001 512.001" style="enable-background:new 0 0 512.001 512.001;" xml:space="preserve">
<g>
	<g>
		<path d="M497.001,0h-96.4H15C6.716,0,0,6.716,0,15v482c0,8.284,6.716,15,15,15h385.6c8.284,0,15-6.716,15-15v-11.987
			l22.595,22.594c2.929,2.929,6.768,4.393,10.607,4.393s7.678-1.464,10.606-4.394l48.199-48.199
			c2.814-2.813,4.394-6.628,4.394-10.606V15C512,6.716,505.285,0,497.001,0z M385.6,448.801V482H30V30h355.6V448.801z M482,442.588
			l-33.199,33.199l-33.201-33.2V126.401H482V442.588z M482.001,96.401h-66.4V30h66.4V96.401z" fill="#77323b"/>
	</g>
</g>
<g>
	<g>
		<path d="M304.2,385.6H111.4c-8.284,0-15,6.716-15,15s6.716,15,15,15h192.8c8.284,0,15-6.716,15-15S312.484,385.6,304.2,385.6z" fill="#77323b"/>
	</g>
</g>
<g>
	<g>
		<path d="M304.2,289.201H111.4c-8.284,0-15,6.716-15,15s6.716,15,15,15h192.8c8.284,0,15-6.716,15-15
			C319.2,295.916,312.484,289.201,304.2,289.201z" fill="#77323b"/>
	</g>
</g>
<g>
	<g>
		<path d="M304.2,192.801H111.4c-8.284,0-15,6.716-15,15s6.716,15,15,15h192.8c8.284,0,15-6.716,15-15
			C319.2,199.516,312.484,192.801,304.2,192.801z" fill="#77323b"/>
	</g>
</g>
<g>
	<g>
		<path d="M272.067,96.401H143.534c-8.284,0-15,6.716-15,15s6.716,15,15,15h128.533c8.284,0,15-6.716,15-15
			S280.351,96.401,272.067,96.401z" fill="#77323b"/>
	</g>
</g>
<g>
</g>
<g>
</g>
<g>
</g>
<g>
</g>
<g>
</g>
<g>
</g>
<g>
</g>
<g>
</g>
<g>
</g>
<g>
</g>
<g>
</g>
<g>
</g>
<g>
</g>
<g>
</g>
<g>
</g>
</svg>
