<svg width="516" height="406" viewBox="0 0 516 406" fill="none" xmlns="http://www.w3.org/2000/svg">
<path d="M122.36 146L121.076 145.225L121.076 145.225L122.36 146ZM271.716 32.9571C272.52 32.7602 273.013 31.9482 272.816 31.1435L269.608 18.0303C269.411 17.2257 268.599 16.7329 267.794 16.9298C266.99 17.1267 266.497 17.9386 266.694 18.7433L269.546 30.3995L257.89 33.2514C257.085 33.4483 256.592 34.2603 256.789 35.065C256.986 35.8697 257.798 36.3624 258.603 36.1655L271.716 32.9571ZM24.3596 180C23.9881 181.453 23.989 181.453 23.99 181.454C23.9908 181.454 23.9921 181.454 23.9935 181.455C23.9964 181.455 24.0002 181.456 24.0051 181.458C24.0148 181.46 24.0286 181.463 24.0464 181.468C24.082 181.477 24.1336 181.489 24.2009 181.506C24.3355 181.538 24.5327 181.585 24.7894 181.643C25.3027 181.759 26.0539 181.922 27.0178 182.11C28.9452 182.485 31.7248 182.962 35.1537 183.371C42.0072 184.19 51.4783 184.744 61.9372 183.677C82.8534 181.544 107.882 172.901 123.645 146.775L121.076 145.225C105.972 170.259 82.0005 178.616 61.6329 180.693C51.4499 181.731 42.2082 181.193 35.5095 180.392C32.1623 179.993 29.4559 179.528 27.5913 179.165C26.6592 178.984 25.9379 178.827 25.4527 178.717C25.2102 178.662 25.0266 178.619 24.9053 178.59C24.8446 178.575 24.7995 178.564 24.7703 178.557C24.7557 178.553 24.7451 178.55 24.7386 178.549C24.7353 178.548 24.733 178.547 24.7318 178.547C24.7311 178.547 24.731 178.547 24.7306 178.547C24.7307 178.547 24.731 178.547 24.3596 180ZM123.645 146.775C168.815 71.9066 205.842 43.606 231.331 33.9018C244.061 29.0552 253.945 28.8332 260.593 29.7819C263.922 30.2569 266.453 31.0275 268.134 31.6691C268.975 31.9899 269.604 32.2785 270.014 32.4819C270.219 32.5835 270.369 32.6638 270.464 32.7161C270.512 32.7423 270.545 32.7615 270.565 32.7728C270.574 32.7784 270.581 32.7821 270.583 32.7838C270.585 32.7846 270.585 32.7849 270.585 32.7847C270.585 32.7846 270.584 32.784 270.584 32.7839C270.582 32.7832 270.581 32.7824 271.359 31.5C272.137 30.2177 272.136 30.2166 272.134 30.2153C272.133 30.2147 272.13 30.2134 272.128 30.2122C272.124 30.2098 272.12 30.2069 272.114 30.2035C272.102 30.1967 272.087 30.1878 272.069 30.177C272.031 30.1553 271.979 30.1259 271.913 30.0894C271.781 30.0165 271.592 29.9158 271.347 29.7941C270.856 29.5506 270.139 29.2231 269.204 28.8662C267.333 28.1523 264.586 27.3212 261.017 26.8119C253.868 25.7918 243.471 26.0699 230.264 31.0982C203.878 41.144 166.405 70.0934 121.076 145.225L123.645 146.775Z" fill="white"/>
<path d="M181.857 146L182.827 147.144L181.857 146ZM322.338 119.422C323.123 119.158 323.545 118.307 323.281 117.522L318.977 104.726C318.712 103.941 317.862 103.519 317.077 103.783C316.291 104.047 315.869 104.898 316.133 105.683L319.959 117.057L308.586 120.883C307.801 121.147 307.378 121.998 307.642 122.783C307.906 123.568 308.757 123.99 309.542 123.726L322.338 119.422ZM25.8594 185C25.8594 186.5 25.8601 186.5 25.8612 186.5C25.8621 186.5 25.8636 186.5 25.8654 186.5C25.8691 186.5 25.8745 186.5 25.8815 186.5C25.8956 186.5 25.9163 186.5 25.9435 186.5C25.998 186.5 26.0786 186.499 26.1849 186.499C26.3973 186.498 26.7119 186.495 27.1234 186.49C27.9464 186.481 29.157 186.462 30.7127 186.423C33.8238 186.347 38.3157 186.194 43.8483 185.888C54.9115 185.277 70.1457 184.055 86.8267 181.609C120.089 176.732 159.475 166.944 182.827 147.144L180.887 144.856C158.241 164.056 119.629 173.768 86.3915 178.641C69.8227 181.07 54.6821 182.285 43.6828 182.893C38.1842 183.197 33.7231 183.348 30.6389 183.424C29.0969 183.462 27.8993 183.481 27.0885 183.491C26.6831 183.495 26.3744 183.498 26.1678 183.499C26.0645 183.499 25.9867 183.5 25.9351 183.5C25.9093 183.5 25.89 183.5 25.8773 183.5C25.871 183.5 25.8664 183.5 25.8634 183.5C25.8619 183.5 25.8609 183.5 25.8601 183.5C25.8595 183.5 25.8594 183.5 25.8594 185ZM182.827 147.144C218.786 116.655 253.418 109.758 279.019 110.437C291.834 110.776 302.405 113.016 309.763 115.166C313.442 116.241 316.315 117.293 318.261 118.073C319.234 118.463 319.975 118.784 320.468 119.007C320.715 119.118 320.9 119.204 321.022 119.261C321.082 119.29 321.127 119.312 321.155 119.326C321.17 119.332 321.18 119.337 321.186 119.34C321.189 119.342 321.191 119.343 321.192 119.343C321.193 119.344 321.193 119.344 321.193 119.344C321.193 119.344 321.192 119.343 321.859 118C322.526 116.657 322.525 116.656 322.524 116.655C322.523 116.655 322.522 116.654 322.52 116.653C322.517 116.652 322.513 116.65 322.508 116.647C322.498 116.642 322.483 116.635 322.465 116.626C322.428 116.609 322.375 116.583 322.306 116.55C322.167 116.485 321.965 116.39 321.7 116.271C321.17 116.032 320.39 115.694 319.377 115.288C317.35 114.476 314.385 113.391 310.605 112.287C303.046 110.078 292.217 107.786 279.098 107.438C252.832 106.741 217.462 113.844 180.887 144.856L182.827 147.144Z" fill="white"/>
<path d="M182.357 220.958L183.327 219.814L182.357 220.958ZM357.017 246.152C357.761 246.515 358.071 247.413 357.708 248.157L351.792 260.292C351.429 261.037 350.531 261.346 349.786 260.983C349.042 260.62 348.732 259.722 349.095 258.977L354.354 248.191L343.567 242.933C342.823 242.569 342.513 241.672 342.876 240.927C343.239 240.182 344.137 239.873 344.882 240.236L357.017 246.152ZM26.3594 181.958C26.3594 180.458 26.3601 180.458 26.3612 180.458C26.3621 180.458 26.3636 180.458 26.3654 180.458C26.3691 180.458 26.3745 180.458 26.3815 180.458C26.3956 180.458 26.4163 180.458 26.4435 180.458C26.498 180.458 26.5786 180.459 26.6849 180.459C26.8973 180.46 27.2119 180.463 27.6234 180.468C28.4464 180.477 29.657 180.496 31.2127 180.535C34.3238 180.611 38.8157 180.764 44.3483 181.07C55.4115 181.681 70.6457 182.903 87.3267 185.349C120.589 190.226 159.975 200.014 183.327 219.814L181.387 222.102C158.741 202.902 120.129 193.19 86.8915 188.317C70.3227 185.888 55.1821 184.673 44.1828 184.065C38.6842 183.761 34.2231 183.61 31.1389 183.534C29.5969 183.496 28.3993 183.477 27.5885 183.467C27.1831 183.463 26.8744 183.46 26.6678 183.459C26.5645 183.459 26.4867 183.458 26.4351 183.458C26.4093 183.458 26.39 183.458 26.3773 183.458C26.371 183.458 26.3664 183.458 26.3634 183.458C26.3619 183.458 26.3609 183.458 26.3601 183.458C26.3595 183.458 26.3594 183.458 26.3594 181.958ZM183.327 219.814C219.207 250.236 262.286 256.838 296.513 255.792C313.618 255.27 328.474 252.837 339.053 250.536C344.341 249.385 348.556 248.268 351.444 247.44C352.889 247.026 354.001 246.685 354.749 246.448C355.123 246.329 355.407 246.237 355.595 246.174C355.689 246.143 355.759 246.12 355.805 246.104C355.829 246.096 355.846 246.09 355.856 246.087C355.862 246.085 355.866 246.083 355.868 246.083C355.869 246.082 355.87 246.082 355.871 246.082C355.871 246.082 355.871 246.082 356.359 247.5C356.848 248.918 356.847 248.919 356.846 248.919C356.845 248.919 356.843 248.92 356.841 248.921C356.837 248.922 356.832 248.924 356.825 248.926C356.811 248.931 356.792 248.937 356.766 248.946C356.714 248.964 356.637 248.989 356.537 249.022C356.337 249.089 356.042 249.185 355.655 249.308C354.882 249.553 353.743 249.902 352.271 250.324C349.327 251.168 345.049 252.301 339.691 253.467C328.977 255.798 313.934 258.262 296.605 258.791C261.964 259.849 218.042 253.181 181.387 222.102L183.327 219.814Z" fill="white"/>
<path d="M122.037 220.272L120.753 221.047L120.753 221.047L122.037 220.272ZM305.395 366.913C305.995 367.484 306.019 368.434 305.448 369.034L296.141 378.813C295.57 379.413 294.62 379.437 294.02 378.866C293.42 378.294 293.397 377.345 293.968 376.745L302.24 368.052L293.548 359.78C292.948 359.208 292.924 358.259 293.495 357.659C294.067 357.059 295.016 357.035 295.616 357.606L305.395 366.913ZM24.0367 186.272C23.6652 184.818 23.666 184.818 23.6671 184.818C23.6678 184.818 23.6692 184.817 23.6706 184.817C23.6734 184.816 23.6773 184.815 23.6821 184.814C23.6919 184.812 23.7057 184.808 23.7235 184.804C23.7591 184.795 23.8107 184.782 23.878 184.766C24.0126 184.733 24.2098 184.687 24.4665 184.629C24.9797 184.512 25.731 184.35 26.6948 184.162C28.6223 183.787 31.4018 183.31 34.8308 182.9C41.6843 182.082 51.1554 181.528 61.6143 182.594C82.5304 184.727 107.559 193.37 123.322 219.497L120.753 221.047C105.649 196.013 81.6776 187.656 61.3099 185.579C51.1269 184.54 41.8853 185.079 35.1866 185.879C31.8394 186.279 29.1329 186.743 27.2684 187.107C26.3363 187.288 25.615 187.444 25.1298 187.554C24.8872 187.609 24.7037 187.653 24.5823 187.682C24.5217 187.697 24.4766 187.708 24.4474 187.715C24.4328 187.719 24.4222 187.721 24.4156 187.723C24.4124 187.724 24.4101 187.724 24.4088 187.725C24.4082 187.725 24.408 187.725 24.4077 187.725C24.4078 187.725 24.4081 187.725 24.0367 186.272ZM123.322 219.497C168.45 294.295 213.841 331.022 247.84 349.061C264.844 358.083 279.018 362.44 288.912 364.544C293.859 365.596 297.738 366.084 300.367 366.31C301.682 366.423 302.684 366.47 303.351 366.489C303.685 366.499 303.934 366.502 304.097 366.502C304.179 366.502 304.239 366.501 304.277 366.501C304.296 366.501 304.309 366.501 304.317 366.5C304.321 366.5 304.324 366.5 304.325 366.5C304.325 366.5 304.325 366.5 304.325 366.5C304.325 366.5 304.324 366.5 304.361 368C304.398 369.499 304.397 369.499 304.395 369.5C304.394 369.5 304.391 369.5 304.389 369.5C304.385 369.5 304.379 369.5 304.372 369.5C304.357 369.5 304.337 369.501 304.312 369.501C304.261 369.501 304.188 369.502 304.093 369.502C303.903 369.502 303.626 369.499 303.265 369.488C302.542 369.467 301.483 369.417 300.11 369.299C297.364 369.063 293.363 368.557 288.288 367.478C278.137 365.32 263.698 360.871 246.434 351.711C211.895 333.386 166.125 296.249 120.753 221.047L123.322 219.497Z" fill="white"/>
<rect x="279.359" width="178" height="66" rx="11" fill="white"/>
<path d="M327.361 39.216C325.405 39.216 323.887 38.682 322.807 37.614C321.739 36.534 321.205 34.938 321.205 32.826C321.205 30.714 321.739 29.124 322.807 28.056C323.887 26.976 325.405 26.436 327.361 26.436C329.329 26.436 330.847 26.976 331.915 28.056C332.995 29.124 333.535 30.714 333.535 32.826C333.535 34.926 332.995 36.516 331.915 37.596C330.847 38.676 329.329 39.216 327.361 39.216ZM327.361 37.758C328.789 37.758 329.881 37.374 330.637 36.606C331.393 35.826 331.771 34.59 331.771 32.898V32.826C331.759 31.11 331.375 29.862 330.619 29.082C329.863 28.29 328.777 27.894 327.361 27.894C325.957 27.894 324.877 28.29 324.121 29.082C323.365 29.862 322.981 31.11 322.969 32.826V32.898C322.969 34.59 323.347 35.826 324.103 36.606C324.859 37.374 325.945 37.758 327.361 37.758ZM338.473 39.216C337.525 39.216 336.793 38.964 336.277 38.46C335.773 37.944 335.521 37.122 335.521 35.994V29.532H337.105V35.886C337.105 36.642 337.273 37.17 337.609 37.47C337.945 37.758 338.431 37.902 339.067 37.902C339.523 37.902 339.943 37.794 340.327 37.578C340.711 37.35 341.017 37.026 341.245 36.606C341.473 36.186 341.587 35.694 341.587 35.13V29.532H343.171V39H341.965L341.785 37.722H341.659C340.963 38.718 339.901 39.216 338.473 39.216ZM345.577 29.532H346.783L346.963 30.954H347.071C347.251 30.486 347.521 30.096 347.881 29.784C348.241 29.472 348.715 29.316 349.303 29.316C349.627 29.316 349.909 29.364 350.149 29.46V30.99H349.483C348.811 30.99 348.253 31.188 347.809 31.584C347.377 31.968 347.161 32.574 347.161 33.402V39H345.577V29.532ZM356.797 26.652H359.335L362.287 35.076C362.455 35.556 362.641 36.174 362.845 36.93H362.917C363.133 36.09 363.313 35.472 363.457 35.076L366.427 26.652H368.947V39H367.237V30.846L367.273 28.542H367.147C367.051 29.034 366.949 29.43 366.841 29.73L363.493 39H362.071L358.777 29.73C358.681 29.478 358.579 29.082 358.471 28.542H358.363L358.399 30.846V39H356.797V26.652ZM371.575 25.986H373.141V27.696H371.575V25.986ZM371.575 29.532H373.159V39H371.575V29.532ZM378.805 39.216C377.929 39.216 377.197 39.09 376.609 38.838C376.033 38.574 375.607 38.232 375.331 37.812C375.055 37.392 374.917 36.936 374.917 36.444C374.917 36.3 374.917 36.204 374.917 36.156C374.929 36.096 374.935 36.06 374.935 36.048H376.501V36.228C376.501 36.792 376.723 37.218 377.167 37.506C377.611 37.782 378.187 37.92 378.895 37.92C379.507 37.92 380.011 37.8 380.407 37.56C380.815 37.308 381.019 36.96 381.019 36.516C381.019 36.168 380.905 35.886 380.677 35.67C380.449 35.442 380.167 35.268 379.831 35.148C379.495 35.016 379.039 34.878 378.463 34.734C377.767 34.554 377.197 34.374 376.753 34.194C376.321 34.014 375.949 33.75 375.637 33.402C375.337 33.042 375.187 32.58 375.187 32.016C375.187 31.188 375.523 30.534 376.195 30.054C376.879 29.562 377.797 29.316 378.949 29.316C379.669 29.316 380.293 29.436 380.821 29.676C381.349 29.904 381.745 30.216 382.009 30.612C382.285 30.996 382.423 31.428 382.423 31.908L382.405 32.25H380.857V32.088C380.857 31.668 380.689 31.32 380.353 31.044C380.029 30.768 379.501 30.63 378.769 30.63C378.049 30.63 377.545 30.762 377.257 31.026C376.969 31.278 376.825 31.572 376.825 31.908C376.825 32.184 376.927 32.412 377.131 32.592C377.335 32.772 377.587 32.916 377.887 33.024C378.187 33.132 378.607 33.252 379.147 33.384C379.891 33.576 380.497 33.768 380.965 33.96C381.433 34.14 381.829 34.422 382.153 34.806C382.489 35.178 382.657 35.676 382.657 36.3C382.657 37.272 382.303 38.004 381.595 38.496C380.899 38.976 379.969 39.216 378.805 39.216ZM387.805 39.216C386.929 39.216 386.197 39.09 385.609 38.838C385.033 38.574 384.607 38.232 384.331 37.812C384.055 37.392 383.917 36.936 383.917 36.444C383.917 36.3 383.917 36.204 383.917 36.156C383.929 36.096 383.935 36.06 383.935 36.048H385.501V36.228C385.501 36.792 385.723 37.218 386.167 37.506C386.611 37.782 387.187 37.92 387.895 37.92C388.507 37.92 389.011 37.8 389.407 37.56C389.815 37.308 390.019 36.96 390.019 36.516C390.019 36.168 389.905 35.886 389.677 35.67C389.449 35.442 389.167 35.268 388.831 35.148C388.495 35.016 388.039 34.878 387.463 34.734C386.767 34.554 386.197 34.374 385.753 34.194C385.321 34.014 384.949 33.75 384.637 33.402C384.337 33.042 384.187 32.58 384.187 32.016C384.187 31.188 384.523 30.534 385.195 30.054C385.879 29.562 386.797 29.316 387.949 29.316C388.669 29.316 389.293 29.436 389.821 29.676C390.349 29.904 390.745 30.216 391.009 30.612C391.285 30.996 391.423 31.428 391.423 31.908L391.405 32.25H389.857V32.088C389.857 31.668 389.689 31.32 389.353 31.044C389.029 30.768 388.501 30.63 387.769 30.63C387.049 30.63 386.545 30.762 386.257 31.026C385.969 31.278 385.825 31.572 385.825 31.908C385.825 32.184 385.927 32.412 386.131 32.592C386.335 32.772 386.587 32.916 386.887 33.024C387.187 33.132 387.607 33.252 388.147 33.384C388.891 33.576 389.497 33.768 389.965 33.96C390.433 34.14 390.829 34.422 391.153 34.806C391.489 35.178 391.657 35.676 391.657 36.3C391.657 37.272 391.303 38.004 390.595 38.496C389.899 38.976 388.969 39.216 387.805 39.216ZM393.565 25.986H395.131V27.696H393.565V25.986ZM393.565 29.532H395.149V39H393.565V29.532ZM401.354 39.216C399.902 39.216 398.81 38.814 398.078 38.01C397.346 37.194 396.98 35.946 396.98 34.266C396.98 32.586 397.346 31.344 398.078 30.54C398.81 29.724 399.902 29.316 401.354 29.316C402.806 29.316 403.898 29.724 404.63 30.54C405.362 31.344 405.728 32.586 405.728 34.266C405.728 35.946 405.362 37.194 404.63 38.01C403.898 38.814 402.806 39.216 401.354 39.216ZM401.354 37.902C402.314 37.902 403.01 37.626 403.442 37.074C403.874 36.51 404.09 35.598 404.09 34.338V34.194C404.09 32.934 403.874 32.028 403.442 31.476C403.01 30.912 402.314 30.63 401.354 30.63C400.394 30.63 399.698 30.912 399.266 31.476C398.834 32.028 398.618 32.934 398.618 34.194V34.338C398.618 35.598 398.834 36.51 399.266 37.074C399.698 37.626 400.394 37.902 401.354 37.902ZM407.558 29.532H408.764L408.944 30.81H409.07C409.766 29.814 410.828 29.316 412.256 29.316C413.204 29.316 413.93 29.574 414.434 30.09C414.95 30.594 415.208 31.41 415.208 32.538V39H413.624V32.646C413.624 31.89 413.456 31.368 413.12 31.08C412.784 30.78 412.298 30.63 411.662 30.63C411.206 30.63 410.786 30.744 410.402 30.972C410.018 31.188 409.712 31.506 409.484 31.926C409.256 32.346 409.142 32.838 409.142 33.402V39H407.558V29.532Z" fill="black"/>
<rect x="329.359" y="94" width="152" height="66" rx="11" fill="white"/>
<path d="M370.361 133.216C368.405 133.216 366.887 132.682 365.807 131.614C364.739 130.534 364.205 128.938 364.205 126.826C364.205 124.714 364.739 123.124 365.807 122.056C366.887 120.976 368.405 120.436 370.361 120.436C372.329 120.436 373.847 120.976 374.915 122.056C375.995 123.124 376.535 124.714 376.535 126.826C376.535 128.926 375.995 130.516 374.915 131.596C373.847 132.676 372.329 133.216 370.361 133.216ZM370.361 131.758C371.789 131.758 372.881 131.374 373.637 130.606C374.393 129.826 374.771 128.59 374.771 126.898V126.826C374.759 125.11 374.375 123.862 373.619 123.082C372.863 122.29 371.777 121.894 370.361 121.894C368.957 121.894 367.877 122.29 367.121 123.082C366.365 123.862 365.981 125.11 365.969 126.826V126.898C365.969 128.59 366.347 129.826 367.103 130.606C367.859 131.374 368.945 131.758 370.361 131.758ZM381.473 133.216C380.525 133.216 379.793 132.964 379.277 132.46C378.773 131.944 378.521 131.122 378.521 129.994V123.532H380.105V129.886C380.105 130.642 380.273 131.17 380.609 131.47C380.945 131.758 381.431 131.902 382.067 131.902C382.523 131.902 382.943 131.794 383.327 131.578C383.711 131.35 384.017 131.026 384.245 130.606C384.473 130.186 384.587 129.694 384.587 129.13V123.532H386.171V133H384.965L384.785 131.722H384.659C383.963 132.718 382.901 133.216 381.473 133.216ZM388.577 123.532H389.783L389.963 124.954H390.071C390.251 124.486 390.521 124.096 390.881 123.784C391.241 123.472 391.715 123.316 392.303 123.316C392.627 123.316 392.909 123.364 393.149 123.46V124.99H392.483C391.811 124.99 391.253 125.188 390.809 125.584C390.377 125.968 390.161 126.574 390.161 127.402V133H388.577V123.532ZM398.663 120.652H400.517L403.775 129.634L404.387 131.29H404.477L405.053 129.706L408.329 120.652H410.093L405.503 133H403.253L398.663 120.652ZM411.27 119.986H412.836V121.696H411.27V119.986ZM411.27 123.532H412.854V133H411.27V123.532ZM418.501 133.216C417.625 133.216 416.893 133.09 416.305 132.838C415.729 132.574 415.303 132.232 415.027 131.812C414.751 131.392 414.613 130.936 414.613 130.444C414.613 130.3 414.613 130.204 414.613 130.156C414.625 130.096 414.631 130.06 414.631 130.048H416.197V130.228C416.197 130.792 416.419 131.218 416.863 131.506C417.307 131.782 417.883 131.92 418.591 131.92C419.203 131.92 419.707 131.8 420.103 131.56C420.511 131.308 420.715 130.96 420.715 130.516C420.715 130.168 420.601 129.886 420.373 129.67C420.145 129.442 419.863 129.268 419.527 129.148C419.191 129.016 418.735 128.878 418.159 128.734C417.463 128.554 416.893 128.374 416.449 128.194C416.017 128.014 415.645 127.75 415.333 127.402C415.033 127.042 414.883 126.58 414.883 126.016C414.883 125.188 415.219 124.534 415.891 124.054C416.575 123.562 417.493 123.316 418.645 123.316C419.365 123.316 419.989 123.436 420.517 123.676C421.045 123.904 421.441 124.216 421.705 124.612C421.981 124.996 422.119 125.428 422.119 125.908L422.101 126.25H420.553V126.088C420.553 125.668 420.385 125.32 420.049 125.044C419.725 124.768 419.197 124.63 418.465 124.63C417.745 124.63 417.241 124.762 416.953 125.026C416.665 125.278 416.521 125.572 416.521 125.908C416.521 126.184 416.623 126.412 416.827 126.592C417.031 126.772 417.283 126.916 417.583 127.024C417.883 127.132 418.303 127.252 418.843 127.384C419.587 127.576 420.193 127.768 420.661 127.96C421.129 128.14 421.525 128.422 421.849 128.806C422.185 129.178 422.353 129.676 422.353 130.3C422.353 131.272 421.999 132.004 421.291 132.496C420.595 132.976 419.665 133.216 418.501 133.216ZM424.261 119.986H425.827V121.696H424.261V119.986ZM424.261 123.532H425.845V133H424.261V123.532ZM432.049 133.216C430.597 133.216 429.505 132.814 428.773 132.01C428.041 131.194 427.675 129.946 427.675 128.266C427.675 126.586 428.041 125.344 428.773 124.54C429.505 123.724 430.597 123.316 432.049 123.316C433.501 123.316 434.593 123.724 435.325 124.54C436.057 125.344 436.423 126.586 436.423 128.266C436.423 129.946 436.057 131.194 435.325 132.01C434.593 132.814 433.501 133.216 432.049 133.216ZM432.049 131.902C433.009 131.902 433.705 131.626 434.137 131.074C434.569 130.51 434.785 129.598 434.785 128.338V128.194C434.785 126.934 434.569 126.028 434.137 125.476C433.705 124.912 433.009 124.63 432.049 124.63C431.089 124.63 430.393 124.912 429.961 125.476C429.529 126.028 429.313 126.934 429.313 128.194V128.338C429.313 129.598 429.529 130.51 429.961 131.074C430.393 131.626 431.089 131.902 432.049 131.902ZM438.253 123.532H439.459L439.639 124.81H439.765C440.461 123.814 441.523 123.316 442.951 123.316C443.899 123.316 444.625 123.574 445.129 124.09C445.645 124.594 445.903 125.41 445.903 126.538V133H444.319V126.646C444.319 125.89 444.151 125.368 443.815 125.08C443.479 124.78 442.993 124.63 442.357 124.63C441.901 124.63 441.481 124.744 441.097 124.972C440.713 125.188 440.407 125.506 440.179 125.926C439.951 126.346 439.837 126.838 439.837 127.402V133H438.253V123.532Z" fill="black"/>
<rect x="363.359" y="210" width="152" height="66" rx="11" fill="white"/>
<path d="M404.361 249.216C402.405 249.216 400.887 248.682 399.807 247.614C398.739 246.534 398.205 244.938 398.205 242.826C398.205 240.714 398.739 239.124 399.807 238.056C400.887 236.976 402.405 236.436 404.361 236.436C406.329 236.436 407.847 236.976 408.915 238.056C409.995 239.124 410.535 240.714 410.535 242.826C410.535 244.926 409.995 246.516 408.915 247.596C407.847 248.676 406.329 249.216 404.361 249.216ZM404.361 247.758C405.789 247.758 406.881 247.374 407.637 246.606C408.393 245.826 408.771 244.59 408.771 242.898V242.826C408.759 241.11 408.375 239.862 407.619 239.082C406.863 238.29 405.777 237.894 404.361 237.894C402.957 237.894 401.877 238.29 401.121 239.082C400.365 239.862 399.981 241.11 399.969 242.826V242.898C399.969 244.59 400.347 245.826 401.103 246.606C401.859 247.374 402.945 247.758 404.361 247.758ZM415.473 249.216C414.525 249.216 413.793 248.964 413.277 248.46C412.773 247.944 412.521 247.122 412.521 245.994V239.532H414.105V245.886C414.105 246.642 414.273 247.17 414.609 247.47C414.945 247.758 415.431 247.902 416.067 247.902C416.523 247.902 416.943 247.794 417.327 247.578C417.711 247.35 418.017 247.026 418.245 246.606C418.473 246.186 418.587 245.694 418.587 245.13V239.532H420.171V249H418.965L418.785 247.722H418.659C417.963 248.718 416.901 249.216 415.473 249.216ZM422.577 239.532H423.783L423.963 240.954H424.071C424.251 240.486 424.521 240.096 424.881 239.784C425.241 239.472 425.715 239.316 426.303 239.316C426.627 239.316 426.909 239.364 427.149 239.46V240.99H426.483C425.811 240.99 425.253 241.188 424.809 241.584C424.377 241.968 424.161 242.574 424.161 243.402V249H422.577V239.532ZM432.663 236.652H434.517L437.775 245.634L438.387 247.29H438.477L439.053 245.706L442.329 236.652H444.093L439.503 249H437.253L432.663 236.652ZM446.825 249.216C446.009 249.216 445.283 249.024 444.647 248.64C444.011 248.256 443.693 247.56 443.693 246.552C443.693 245.34 444.233 244.512 445.313 244.068C446.393 243.612 447.953 243.384 449.993 243.384V242.34C449.993 241.788 449.837 241.368 449.525 241.08C449.213 240.78 448.649 240.63 447.833 240.63C447.065 240.63 446.513 240.774 446.177 241.062C445.853 241.35 445.691 241.704 445.691 242.124V242.34H444.161C444.149 242.268 444.143 242.136 444.143 241.944C444.143 241.104 444.491 240.456 445.187 240C445.883 239.544 446.813 239.316 447.977 239.316C449.153 239.316 450.047 239.562 450.659 240.054C451.271 240.546 451.577 241.242 451.577 242.142V247.272C451.577 247.488 451.637 247.65 451.757 247.758C451.877 247.854 452.027 247.902 452.207 247.902H452.927V248.928C452.615 249.072 452.207 249.144 451.703 249.144C451.295 249.144 450.953 249.024 450.677 248.784C450.401 248.532 450.215 248.202 450.119 247.794H449.993C449.669 248.238 449.225 248.586 448.661 248.838C448.109 249.09 447.497 249.216 446.825 249.216ZM447.239 247.902C447.707 247.902 448.151 247.806 448.571 247.614C448.991 247.422 449.333 247.14 449.597 246.768C449.861 246.384 449.993 245.922 449.993 245.382V244.698C448.445 244.698 447.281 244.824 446.501 245.076C445.733 245.316 445.349 245.778 445.349 246.462C445.349 246.978 445.505 247.35 445.817 247.578C446.141 247.794 446.615 247.902 447.239 247.902ZM454.253 235.986H455.837V249H454.253V235.986ZM461.141 249.216C460.193 249.216 459.461 248.964 458.945 248.46C458.441 247.944 458.189 247.122 458.189 245.994V239.532H459.773V245.886C459.773 246.642 459.941 247.17 460.277 247.47C460.613 247.758 461.099 247.902 461.735 247.902C462.191 247.902 462.611 247.794 462.995 247.578C463.379 247.35 463.685 247.026 463.913 246.606C464.141 246.186 464.255 245.694 464.255 245.13V239.532H465.839V249H464.633L464.453 247.722H464.327C463.631 248.718 462.569 249.216 461.141 249.216ZM472.259 249.216C470.735 249.216 469.601 248.814 468.857 248.01C468.113 247.206 467.741 245.958 467.741 244.266C467.741 242.574 468.113 241.326 468.857 240.522C469.601 239.718 470.735 239.316 472.259 239.316C473.627 239.316 474.647 239.682 475.319 240.414C476.003 241.134 476.345 242.298 476.345 243.906V244.698H469.379C469.439 245.79 469.697 246.6 470.153 247.128C470.621 247.644 471.323 247.902 472.259 247.902C473.015 247.902 473.627 247.728 474.095 247.38C474.563 247.032 474.797 246.498 474.797 245.778H476.345C476.345 246.882 475.961 247.734 475.193 248.334C474.437 248.922 473.459 249.216 472.259 249.216ZM474.689 243.384C474.689 241.548 473.879 240.63 472.259 240.63C471.359 240.63 470.681 240.846 470.225 241.278C469.781 241.71 469.511 242.412 469.415 243.384H474.689ZM481.487 249.216C480.611 249.216 479.879 249.09 479.291 248.838C478.715 248.574 478.289 248.232 478.013 247.812C477.737 247.392 477.599 246.936 477.599 246.444C477.599 246.3 477.599 246.204 477.599 246.156C477.611 246.096 477.617 246.06 477.617 246.048H479.183V246.228C479.183 246.792 479.405 247.218 479.849 247.506C480.293 247.782 480.869 247.92 481.577 247.92C482.189 247.92 482.693 247.8 483.089 247.56C483.497 247.308 483.701 246.96 483.701 246.516C483.701 246.168 483.587 245.886 483.359 245.67C483.131 245.442 482.849 245.268 482.513 245.148C482.177 245.016 481.721 244.878 481.145 244.734C480.449 244.554 479.879 244.374 479.435 244.194C479.003 244.014 478.631 243.75 478.319 243.402C478.019 243.042 477.869 242.58 477.869 242.016C477.869 241.188 478.205 240.534 478.877 240.054C479.561 239.562 480.479 239.316 481.631 239.316C482.351 239.316 482.975 239.436 483.503 239.676C484.031 239.904 484.427 240.216 484.691 240.612C484.967 240.996 485.105 241.428 485.105 241.908L485.087 242.25H483.539V242.088C483.539 241.668 483.371 241.32 483.035 241.044C482.711 240.768 482.183 240.63 481.451 240.63C480.731 240.63 480.227 240.762 479.939 241.026C479.651 241.278 479.507 241.572 479.507 241.908C479.507 242.184 479.609 242.412 479.813 242.592C480.017 242.772 480.269 242.916 480.569 243.024C480.869 243.132 481.289 243.252 481.829 243.384C482.573 243.576 483.179 243.768 483.647 243.96C484.115 244.14 484.511 244.422 484.835 244.806C485.171 245.178 485.339 245.676 485.339 246.3C485.339 247.272 484.985 248.004 484.277 248.496C483.581 248.976 482.651 249.216 481.487 249.216Z" fill="black"/>
<rect x="313.359" y="340" width="152" height="66" rx="11" fill="white"/>
<path d="M354.361 379.216C352.405 379.216 350.887 378.682 349.807 377.614C348.739 376.534 348.205 374.938 348.205 372.826C348.205 370.714 348.739 369.124 349.807 368.056C350.887 366.976 352.405 366.436 354.361 366.436C356.329 366.436 357.847 366.976 358.915 368.056C359.995 369.124 360.535 370.714 360.535 372.826C360.535 374.926 359.995 376.516 358.915 377.596C357.847 378.676 356.329 379.216 354.361 379.216ZM354.361 377.758C355.789 377.758 356.881 377.374 357.637 376.606C358.393 375.826 358.771 374.59 358.771 372.898V372.826C358.759 371.11 358.375 369.862 357.619 369.082C356.863 368.29 355.777 367.894 354.361 367.894C352.957 367.894 351.877 368.29 351.121 369.082C350.365 369.862 349.981 371.11 349.969 372.826V372.898C349.969 374.59 350.347 375.826 351.103 376.606C351.859 377.374 352.945 377.758 354.361 377.758ZM365.473 379.216C364.525 379.216 363.793 378.964 363.277 378.46C362.773 377.944 362.521 377.122 362.521 375.994V369.532H364.105V375.886C364.105 376.642 364.273 377.17 364.609 377.47C364.945 377.758 365.431 377.902 366.067 377.902C366.523 377.902 366.943 377.794 367.327 377.578C367.711 377.35 368.017 377.026 368.245 376.606C368.473 376.186 368.587 375.694 368.587 375.13V369.532H370.171V379H368.965L368.785 377.722H368.659C367.963 378.718 366.901 379.216 365.473 379.216ZM372.577 369.532H373.783L373.963 370.954H374.071C374.251 370.486 374.521 370.096 374.881 369.784C375.241 369.472 375.715 369.316 376.303 369.316C376.627 369.316 376.909 369.364 377.149 369.46V370.99H376.483C375.811 370.99 375.253 371.188 374.809 371.584C374.377 371.968 374.161 372.574 374.161 373.402V379H372.577V369.532ZM389.233 379.216C387.241 379.216 385.741 378.688 384.733 377.632C383.725 376.564 383.221 374.962 383.221 372.826C383.221 370.69 383.725 369.094 384.733 368.038C385.741 366.97 387.241 366.436 389.233 366.436C390.841 366.436 392.125 366.838 393.085 367.642C394.057 368.434 394.543 369.592 394.543 371.116H392.797C392.797 370.06 392.479 369.262 391.843 368.722C391.219 368.17 390.349 367.894 389.233 367.894C387.781 367.894 386.713 368.278 386.029 369.046C385.345 369.814 384.997 371.062 384.985 372.79V372.826C384.985 374.566 385.327 375.826 386.011 376.606C386.695 377.374 387.769 377.758 389.233 377.758C390.373 377.758 391.261 377.488 391.897 376.948C392.545 376.408 392.869 375.616 392.869 374.572H394.543C394.543 376.108 394.063 377.266 393.103 378.046C392.143 378.826 390.853 379.216 389.233 379.216ZM396.571 369.532H397.777L397.957 370.954H398.065C398.245 370.486 398.515 370.096 398.875 369.784C399.235 369.472 399.709 369.316 400.297 369.316C400.621 369.316 400.903 369.364 401.143 369.46V370.99H400.477C399.805 370.99 399.247 371.188 398.803 371.584C398.371 371.968 398.155 372.574 398.155 373.402V379H396.571V369.532ZM406.579 379.216C405.055 379.216 403.921 378.814 403.177 378.01C402.433 377.206 402.061 375.958 402.061 374.266C402.061 372.574 402.433 371.326 403.177 370.522C403.921 369.718 405.055 369.316 406.579 369.316C407.947 369.316 408.967 369.682 409.639 370.414C410.323 371.134 410.665 372.298 410.665 373.906V374.698H403.699C403.759 375.79 404.017 376.6 404.473 377.128C404.941 377.644 405.643 377.902 406.579 377.902C407.335 377.902 407.947 377.728 408.415 377.38C408.883 377.032 409.117 376.498 409.117 375.778H410.665C410.665 376.882 410.281 377.734 409.513 378.334C408.757 378.922 407.779 379.216 406.579 379.216ZM409.009 373.384C409.009 371.548 408.199 370.63 406.579 370.63C405.679 370.63 405.001 370.846 404.545 371.278C404.101 371.71 403.831 372.412 403.735 373.384H409.009ZM416.581 379.216C415.057 379.216 413.923 378.814 413.179 378.01C412.435 377.206 412.063 375.958 412.063 374.266C412.063 372.574 412.435 371.326 413.179 370.522C413.923 369.718 415.057 369.316 416.581 369.316C417.949 369.316 418.969 369.682 419.641 370.414C420.325 371.134 420.667 372.298 420.667 373.906V374.698H413.701C413.761 375.79 414.019 376.6 414.475 377.128C414.943 377.644 415.645 377.902 416.581 377.902C417.337 377.902 417.949 377.728 418.417 377.38C418.885 377.032 419.119 376.498 419.119 375.778H420.667C420.667 376.882 420.283 377.734 419.515 378.334C418.759 378.922 417.781 379.216 416.581 379.216ZM419.011 373.384C419.011 371.548 418.201 370.63 416.581 370.63C415.681 370.63 415.003 370.846 414.547 371.278C414.103 371.71 413.833 372.412 413.737 373.384H419.011ZM425.737 379.216C424.537 379.216 423.613 378.814 422.965 378.01C422.317 377.206 421.993 375.958 421.993 374.266C421.993 372.61 422.311 371.374 422.947 370.558C423.595 369.73 424.477 369.316 425.593 369.316C426.265 369.316 426.835 369.418 427.303 369.622C427.771 369.826 428.161 370.156 428.473 370.612H428.581V365.986H430.165V379H428.977L428.779 377.722H428.671C428.359 378.214 427.945 378.586 427.429 378.838C426.925 379.09 426.361 379.216 425.737 379.216ZM426.133 377.902C426.985 377.902 427.603 377.602 427.987 377.002C428.383 376.402 428.581 375.514 428.581 374.338V374.266C428.581 373.066 428.383 372.16 427.987 371.548C427.591 370.936 426.973 370.63 426.133 370.63C425.533 370.63 425.047 370.75 424.675 370.99C424.315 371.218 424.051 371.596 423.883 372.124C423.715 372.652 423.631 373.366 423.631 374.266V374.338C423.631 375.226 423.715 375.928 423.883 376.444C424.051 376.96 424.315 377.332 424.675 377.56C425.035 377.788 425.521 377.902 426.133 377.902Z" fill="black"/>
</svg>
