<svg width="482" height="370" viewBox="0 0 482 370" fill="none" xmlns="http://www.w3.org/2000/svg">
<path d="M117.001 149L115.717 148.225L115.717 148.225L117.001 149ZM292.569 35.8888C293.336 35.5756 293.704 34.7 293.391 33.933L288.287 21.4348C287.974 20.6679 287.099 20.3 286.332 20.6132C285.565 20.9264 285.197 21.802 285.51 22.5689L290.046 33.6784L278.937 38.2148C278.17 38.528 277.802 39.4036 278.115 40.1706C278.428 40.9375 279.304 41.3054 280.071 40.9922L292.569 35.8888ZM19.0007 183C18.6292 184.453 18.6301 184.453 18.6312 184.454C18.6319 184.454 18.6332 184.454 18.6346 184.455C18.6375 184.455 18.6413 184.456 18.6462 184.458C18.6559 184.46 18.6697 184.463 18.6875 184.468C18.7231 184.477 18.7748 184.489 18.8421 184.506C18.9766 184.538 19.1738 184.585 19.4305 184.643C19.9438 184.759 20.695 184.922 21.6589 185.11C23.5863 185.485 26.3659 185.962 29.7948 186.371C36.6483 187.19 46.1194 187.744 56.5783 186.677C77.4945 184.544 102.523 175.901 118.286 149.775L115.717 148.225C100.614 173.259 76.6416 181.616 56.274 183.693C46.091 184.731 36.8494 184.193 30.1506 183.392C26.8034 182.993 24.097 182.528 22.2324 182.165C21.3003 181.984 20.5791 181.827 20.0939 181.717C19.8513 181.662 19.6677 181.619 19.5464 181.59C19.4857 181.575 19.4406 181.564 19.4114 181.557C19.3968 181.553 19.3862 181.55 19.3797 181.549C19.3764 181.548 19.3741 181.547 19.3729 181.547C19.3722 181.547 19.3721 181.547 19.3718 181.547C19.3718 181.547 19.3722 181.547 19.0007 183ZM118.286 149.775C163.402 74.9969 206.886 46.6736 238.876 36.935C254.883 32.062 268.07 31.8231 277.228 32.7887C281.808 33.2716 285.383 34.0563 287.8 34.7149C289.009 35.0442 289.927 35.3419 290.537 35.5545C290.842 35.6607 291.07 35.7457 291.218 35.8027C291.292 35.8312 291.346 35.8527 291.38 35.8664C291.397 35.8732 291.409 35.8781 291.416 35.8809C291.419 35.8823 291.422 35.8832 291.422 35.8835C291.423 35.8837 291.423 35.8836 291.423 35.8837C291.422 35.8834 291.421 35.883 292.002 34.5001C292.583 33.1172 292.582 33.1165 292.58 33.1157C292.579 33.1152 292.576 33.1143 292.574 33.1134C292.57 33.1116 292.564 33.1093 292.557 33.1065C292.544 33.1008 292.525 33.0931 292.501 33.0835C292.453 33.0641 292.384 33.037 292.296 33.0029C292.119 32.9347 291.861 32.8387 291.525 32.7216C290.853 32.4874 289.868 32.1689 288.589 31.8204C286.031 31.1235 282.298 30.3066 277.542 29.8052C268.028 28.802 254.433 29.063 238.002 34.065C205.117 44.0764 161.101 73.0031 115.717 148.225L118.286 149.775Z" fill="white"/>
<path d="M116.677 223.272L115.393 224.047L115.393 224.047L116.677 223.272ZM292.245 336.383C293.012 336.696 293.38 337.572 293.067 338.339L287.963 350.837C287.65 351.604 286.774 351.972 286.007 351.659C285.24 351.345 284.873 350.47 285.186 349.703L289.722 338.593L278.613 334.057C277.846 333.744 277.478 332.868 277.791 332.101C278.104 331.334 278.98 330.966 279.747 331.28L292.245 336.383ZM18.6765 189.272C18.305 187.818 18.3058 187.818 18.3069 187.818C18.3077 187.818 18.309 187.817 18.3104 187.817C18.3133 187.816 18.3171 187.815 18.322 187.814C18.3317 187.812 18.3455 187.808 18.3633 187.804C18.3989 187.795 18.4505 187.782 18.5178 187.766C18.6524 187.734 18.8496 187.687 19.1063 187.629C19.6196 187.512 20.3708 187.35 21.3347 187.162C23.2621 186.787 26.0417 186.31 29.4706 185.9C36.3241 185.082 45.7952 184.528 56.2541 185.594C77.1703 187.727 102.199 196.37 117.962 222.497L115.393 224.047C100.289 199.013 76.3174 190.656 55.9498 188.579C45.7668 187.541 36.5251 188.079 29.8264 188.879C26.4792 189.279 23.7728 189.743 21.9082 190.107C20.9761 190.288 20.2548 190.444 19.7696 190.554C19.527 190.609 19.3435 190.653 19.2222 190.682C19.1615 190.697 19.1164 190.708 19.0872 190.715C19.0726 190.719 19.062 190.721 19.0555 190.723C19.0522 190.724 19.0499 190.725 19.0487 190.725C19.048 190.725 19.0479 190.725 19.0475 190.725C19.0476 190.725 19.0479 190.725 18.6765 189.272ZM117.962 222.497C163.078 297.275 206.562 325.598 238.552 335.337C254.559 340.21 267.746 340.449 276.903 339.483C281.484 339 285.059 338.215 287.476 337.557C288.684 337.228 289.603 336.93 290.213 336.717C290.518 336.611 290.746 336.526 290.894 336.469C290.968 336.441 291.022 336.419 291.056 336.405C291.073 336.399 291.085 336.394 291.092 336.391C291.095 336.389 291.097 336.389 291.098 336.388C291.099 336.388 291.098 336.388 291.099 336.388C291.098 336.388 291.097 336.389 291.678 337.772C292.259 339.155 292.257 339.155 292.255 339.156C292.254 339.156 292.252 339.157 292.25 339.158C292.246 339.16 292.24 339.162 292.233 339.165C292.219 339.171 292.201 339.179 292.177 339.188C292.129 339.208 292.06 339.235 291.971 339.269C291.794 339.337 291.536 339.433 291.2 339.55C290.528 339.784 289.543 340.103 288.265 340.451C285.707 341.148 281.973 341.965 277.218 342.467C267.704 343.47 254.109 343.209 237.678 338.207C204.793 328.195 160.777 299.269 115.393 224.047L117.962 222.497Z" fill="white"/>
<path d="M305.076 183.128C305.654 182.535 305.641 181.585 305.047 181.007L295.371 171.593C294.777 171.016 293.827 171.029 293.25 171.623C292.672 172.216 292.685 173.166 293.279 173.744L301.88 182.112L293.512 190.713C292.934 191.307 292.948 192.256 293.541 192.834C294.135 193.412 295.085 193.398 295.662 192.805L305.076 183.128ZM19.0206 187.5L304.022 183.582L303.981 180.583L18.9794 184.5L19.0206 187.5Z" fill="white"/>
<rect x="304" width="178" height="66" rx="11" fill="white"/>
<path d="M352.002 39.216C350.046 39.216 348.528 38.682 347.448 37.614C346.38 36.534 345.846 34.938 345.846 32.826C345.846 30.714 346.38 29.124 347.448 28.056C348.528 26.976 350.046 26.436 352.002 26.436C353.97 26.436 355.488 26.976 356.556 28.056C357.636 29.124 358.176 30.714 358.176 32.826C358.176 34.926 357.636 36.516 356.556 37.596C355.488 38.676 353.97 39.216 352.002 39.216ZM352.002 37.758C353.43 37.758 354.522 37.374 355.278 36.606C356.034 35.826 356.412 34.59 356.412 32.898V32.826C356.4 31.11 356.016 29.862 355.26 29.082C354.504 28.29 353.418 27.894 352.002 27.894C350.598 27.894 349.518 28.29 348.762 29.082C348.006 29.862 347.622 31.11 347.61 32.826V32.898C347.61 34.59 347.988 35.826 348.744 36.606C349.5 37.374 350.586 37.758 352.002 37.758ZM363.114 39.216C362.166 39.216 361.434 38.964 360.918 38.46C360.414 37.944 360.162 37.122 360.162 35.994V29.532H361.746V35.886C361.746 36.642 361.914 37.17 362.25 37.47C362.586 37.758 363.072 37.902 363.708 37.902C364.164 37.902 364.584 37.794 364.968 37.578C365.352 37.35 365.658 37.026 365.886 36.606C366.114 36.186 366.228 35.694 366.228 35.13V29.532H367.812V39H366.606L366.426 37.722H366.3C365.604 38.718 364.542 39.216 363.114 39.216ZM370.218 29.532H371.424L371.604 30.954H371.712C371.892 30.486 372.162 30.096 372.522 29.784C372.882 29.472 373.356 29.316 373.944 29.316C374.268 29.316 374.55 29.364 374.79 29.46V30.99H374.124C373.452 30.99 372.894 31.188 372.45 31.584C372.018 31.968 371.802 32.574 371.802 33.402V39H370.218V29.532ZM381.438 26.652H383.976L386.928 35.076C387.096 35.556 387.282 36.174 387.486 36.93H387.558C387.774 36.09 387.954 35.472 388.098 35.076L391.068 26.652H393.588V39H391.878V30.846L391.914 28.542H391.788C391.692 29.034 391.59 29.43 391.482 29.73L388.134 39H386.712L383.418 29.73C383.322 29.478 383.22 29.082 383.112 28.542H383.004L383.04 30.846V39H381.438V26.652ZM396.216 25.986H397.782V27.696H396.216V25.986ZM396.216 29.532H397.8V39H396.216V29.532ZM403.446 39.216C402.57 39.216 401.838 39.09 401.25 38.838C400.674 38.574 400.248 38.232 399.972 37.812C399.696 37.392 399.558 36.936 399.558 36.444C399.558 36.3 399.558 36.204 399.558 36.156C399.57 36.096 399.576 36.06 399.576 36.048H401.142V36.228C401.142 36.792 401.364 37.218 401.808 37.506C402.252 37.782 402.828 37.92 403.536 37.92C404.148 37.92 404.652 37.8 405.048 37.56C405.456 37.308 405.66 36.96 405.66 36.516C405.66 36.168 405.546 35.886 405.318 35.67C405.09 35.442 404.808 35.268 404.472 35.148C404.136 35.016 403.68 34.878 403.104 34.734C402.408 34.554 401.838 34.374 401.394 34.194C400.962 34.014 400.59 33.75 400.278 33.402C399.978 33.042 399.828 32.58 399.828 32.016C399.828 31.188 400.164 30.534 400.836 30.054C401.52 29.562 402.438 29.316 403.59 29.316C404.31 29.316 404.934 29.436 405.462 29.676C405.99 29.904 406.386 30.216 406.65 30.612C406.926 30.996 407.064 31.428 407.064 31.908L407.046 32.25H405.498V32.088C405.498 31.668 405.33 31.32 404.994 31.044C404.67 30.768 404.142 30.63 403.41 30.63C402.69 30.63 402.186 30.762 401.898 31.026C401.61 31.278 401.466 31.572 401.466 31.908C401.466 32.184 401.568 32.412 401.772 32.592C401.976 32.772 402.228 32.916 402.528 33.024C402.828 33.132 403.248 33.252 403.788 33.384C404.532 33.576 405.138 33.768 405.606 33.96C406.074 34.14 406.47 34.422 406.794 34.806C407.13 35.178 407.298 35.676 407.298 36.3C407.298 37.272 406.944 38.004 406.236 38.496C405.54 38.976 404.61 39.216 403.446 39.216ZM412.446 39.216C411.57 39.216 410.838 39.09 410.25 38.838C409.674 38.574 409.248 38.232 408.972 37.812C408.696 37.392 408.558 36.936 408.558 36.444C408.558 36.3 408.558 36.204 408.558 36.156C408.57 36.096 408.576 36.06 408.576 36.048H410.142V36.228C410.142 36.792 410.364 37.218 410.808 37.506C411.252 37.782 411.828 37.92 412.536 37.92C413.148 37.92 413.652 37.8 414.048 37.56C414.456 37.308 414.66 36.96 414.66 36.516C414.66 36.168 414.546 35.886 414.318 35.67C414.09 35.442 413.808 35.268 413.472 35.148C413.136 35.016 412.68 34.878 412.104 34.734C411.408 34.554 410.838 34.374 410.394 34.194C409.962 34.014 409.59 33.75 409.278 33.402C408.978 33.042 408.828 32.58 408.828 32.016C408.828 31.188 409.164 30.534 409.836 30.054C410.52 29.562 411.438 29.316 412.59 29.316C413.31 29.316 413.934 29.436 414.462 29.676C414.99 29.904 415.386 30.216 415.65 30.612C415.926 30.996 416.064 31.428 416.064 31.908L416.046 32.25H414.498V32.088C414.498 31.668 414.33 31.32 413.994 31.044C413.67 30.768 413.142 30.63 412.41 30.63C411.69 30.63 411.186 30.762 410.898 31.026C410.61 31.278 410.466 31.572 410.466 31.908C410.466 32.184 410.568 32.412 410.772 32.592C410.976 32.772 411.228 32.916 411.528 33.024C411.828 33.132 412.248 33.252 412.788 33.384C413.532 33.576 414.138 33.768 414.606 33.96C415.074 34.14 415.47 34.422 415.794 34.806C416.13 35.178 416.298 35.676 416.298 36.3C416.298 37.272 415.944 38.004 415.236 38.496C414.54 38.976 413.61 39.216 412.446 39.216ZM418.206 25.986H419.772V27.696H418.206V25.986ZM418.206 29.532H419.79V39H418.206V29.532ZM425.994 39.216C424.542 39.216 423.45 38.814 422.718 38.01C421.986 37.194 421.62 35.946 421.62 34.266C421.62 32.586 421.986 31.344 422.718 30.54C423.45 29.724 424.542 29.316 425.994 29.316C427.446 29.316 428.538 29.724 429.27 30.54C430.002 31.344 430.368 32.586 430.368 34.266C430.368 35.946 430.002 37.194 429.27 38.01C428.538 38.814 427.446 39.216 425.994 39.216ZM425.994 37.902C426.954 37.902 427.65 37.626 428.082 37.074C428.514 36.51 428.73 35.598 428.73 34.338V34.194C428.73 32.934 428.514 32.028 428.082 31.476C427.65 30.912 426.954 30.63 425.994 30.63C425.034 30.63 424.338 30.912 423.906 31.476C423.474 32.028 423.258 32.934 423.258 34.194V34.338C423.258 35.598 423.474 36.51 423.906 37.074C424.338 37.626 425.034 37.902 425.994 37.902ZM432.198 29.532H433.404L433.584 30.81H433.71C434.406 29.814 435.468 29.316 436.896 29.316C437.844 29.316 438.57 29.574 439.074 30.09C439.59 30.594 439.848 31.41 439.848 32.538V39H438.264V32.646C438.264 31.89 438.096 31.368 437.76 31.08C437.424 30.78 436.938 30.63 436.302 30.63C435.846 30.63 435.426 30.744 435.042 30.972C434.658 31.188 434.352 31.506 434.124 31.926C433.896 32.346 433.782 32.838 433.782 33.402V39H432.198V29.532Z" fill="black"/>
<rect x="311" y="151" width="152" height="66" rx="11" fill="white"/>
<path d="M352.002 190.216C350.046 190.216 348.528 189.682 347.448 188.614C346.38 187.534 345.846 185.938 345.846 183.826C345.846 181.714 346.38 180.124 347.448 179.056C348.528 177.976 350.046 177.436 352.002 177.436C353.97 177.436 355.488 177.976 356.556 179.056C357.636 180.124 358.176 181.714 358.176 183.826C358.176 185.926 357.636 187.516 356.556 188.596C355.488 189.676 353.97 190.216 352.002 190.216ZM352.002 188.758C353.43 188.758 354.522 188.374 355.278 187.606C356.034 186.826 356.412 185.59 356.412 183.898V183.826C356.4 182.11 356.016 180.862 355.26 180.082C354.504 179.29 353.418 178.894 352.002 178.894C350.598 178.894 349.518 179.29 348.762 180.082C348.006 180.862 347.622 182.11 347.61 183.826V183.898C347.61 185.59 347.988 186.826 348.744 187.606C349.5 188.374 350.586 188.758 352.002 188.758ZM363.114 190.216C362.166 190.216 361.434 189.964 360.918 189.46C360.414 188.944 360.162 188.122 360.162 186.994V180.532H361.746V186.886C361.746 187.642 361.914 188.17 362.25 188.47C362.586 188.758 363.072 188.902 363.708 188.902C364.164 188.902 364.584 188.794 364.968 188.578C365.352 188.35 365.658 188.026 365.886 187.606C366.114 187.186 366.228 186.694 366.228 186.13V180.532H367.812V190H366.606L366.426 188.722H366.3C365.604 189.718 364.542 190.216 363.114 190.216ZM370.218 180.532H371.424L371.604 181.954H371.712C371.892 181.486 372.162 181.096 372.522 180.784C372.882 180.472 373.356 180.316 373.944 180.316C374.268 180.316 374.55 180.364 374.79 180.46V181.99H374.124C373.452 181.99 372.894 182.188 372.45 182.584C372.018 182.968 371.802 183.574 371.802 184.402V190H370.218V180.532ZM380.304 177.652H382.158L385.416 186.634L386.028 188.29H386.118L386.694 186.706L389.97 177.652H391.734L387.144 190H384.894L380.304 177.652ZM392.911 176.986H394.477V178.696H392.911V176.986ZM392.911 180.532H394.495V190H392.911V180.532ZM400.141 190.216C399.265 190.216 398.533 190.09 397.945 189.838C397.369 189.574 396.943 189.232 396.667 188.812C396.391 188.392 396.253 187.936 396.253 187.444C396.253 187.3 396.253 187.204 396.253 187.156C396.265 187.096 396.271 187.06 396.271 187.048H397.837V187.228C397.837 187.792 398.059 188.218 398.503 188.506C398.947 188.782 399.523 188.92 400.231 188.92C400.843 188.92 401.347 188.8 401.743 188.56C402.151 188.308 402.355 187.96 402.355 187.516C402.355 187.168 402.241 186.886 402.013 186.67C401.785 186.442 401.503 186.268 401.167 186.148C400.831 186.016 400.375 185.878 399.799 185.734C399.103 185.554 398.533 185.374 398.089 185.194C397.657 185.014 397.285 184.75 396.973 184.402C396.673 184.042 396.523 183.58 396.523 183.016C396.523 182.188 396.859 181.534 397.531 181.054C398.215 180.562 399.133 180.316 400.285 180.316C401.005 180.316 401.629 180.436 402.157 180.676C402.685 180.904 403.081 181.216 403.345 181.612C403.621 181.996 403.759 182.428 403.759 182.908L403.741 183.25H402.193V183.088C402.193 182.668 402.025 182.32 401.689 182.044C401.365 181.768 400.837 181.63 400.105 181.63C399.385 181.63 398.881 181.762 398.593 182.026C398.305 182.278 398.161 182.572 398.161 182.908C398.161 183.184 398.263 183.412 398.467 183.592C398.671 183.772 398.923 183.916 399.223 184.024C399.523 184.132 399.943 184.252 400.483 184.384C401.227 184.576 401.833 184.768 402.301 184.96C402.769 185.14 403.165 185.422 403.489 185.806C403.825 186.178 403.993 186.676 403.993 187.3C403.993 188.272 403.639 189.004 402.931 189.496C402.235 189.976 401.305 190.216 400.141 190.216ZM405.901 176.986H407.467V178.696H405.901V176.986ZM405.901 180.532H407.485V190H405.901V180.532ZM413.69 190.216C412.238 190.216 411.146 189.814 410.414 189.01C409.682 188.194 409.316 186.946 409.316 185.266C409.316 183.586 409.682 182.344 410.414 181.54C411.146 180.724 412.238 180.316 413.69 180.316C415.142 180.316 416.234 180.724 416.966 181.54C417.698 182.344 418.064 183.586 418.064 185.266C418.064 186.946 417.698 188.194 416.966 189.01C416.234 189.814 415.142 190.216 413.69 190.216ZM413.69 188.902C414.65 188.902 415.346 188.626 415.778 188.074C416.21 187.51 416.426 186.598 416.426 185.338V185.194C416.426 183.934 416.21 183.028 415.778 182.476C415.346 181.912 414.65 181.63 413.69 181.63C412.73 181.63 412.034 181.912 411.602 182.476C411.17 183.028 410.954 183.934 410.954 185.194V185.338C410.954 186.598 411.17 187.51 411.602 188.074C412.034 188.626 412.73 188.902 413.69 188.902ZM419.894 180.532H421.1L421.28 181.81H421.406C422.102 180.814 423.164 180.316 424.592 180.316C425.54 180.316 426.266 180.574 426.77 181.09C427.286 181.594 427.544 182.41 427.544 183.538V190H425.96V183.646C425.96 182.89 425.792 182.368 425.456 182.08C425.12 181.78 424.634 181.63 423.998 181.63C423.542 181.63 423.122 181.744 422.738 181.972C422.354 182.188 422.048 182.506 421.82 182.926C421.592 183.346 421.478 183.838 421.478 184.402V190H419.894V180.532Z" fill="black"/>
<rect x="311" y="304" width="152" height="66" rx="11" fill="white"/>
<path d="M352.002 343.216C350.046 343.216 348.528 342.682 347.448 341.614C346.38 340.534 345.846 338.938 345.846 336.826C345.846 334.714 346.38 333.124 347.448 332.056C348.528 330.976 350.046 330.436 352.002 330.436C353.97 330.436 355.488 330.976 356.556 332.056C357.636 333.124 358.176 334.714 358.176 336.826C358.176 338.926 357.636 340.516 356.556 341.596C355.488 342.676 353.97 343.216 352.002 343.216ZM352.002 341.758C353.43 341.758 354.522 341.374 355.278 340.606C356.034 339.826 356.412 338.59 356.412 336.898V336.826C356.4 335.11 356.016 333.862 355.26 333.082C354.504 332.29 353.418 331.894 352.002 331.894C350.598 331.894 349.518 332.29 348.762 333.082C348.006 333.862 347.622 335.11 347.61 336.826V336.898C347.61 338.59 347.988 339.826 348.744 340.606C349.5 341.374 350.586 341.758 352.002 341.758ZM363.114 343.216C362.166 343.216 361.434 342.964 360.918 342.46C360.414 341.944 360.162 341.122 360.162 339.994V333.532H361.746V339.886C361.746 340.642 361.914 341.17 362.25 341.47C362.586 341.758 363.072 341.902 363.708 341.902C364.164 341.902 364.584 341.794 364.968 341.578C365.352 341.35 365.658 341.026 365.886 340.606C366.114 340.186 366.228 339.694 366.228 339.13V333.532H367.812V343H366.606L366.426 341.722H366.3C365.604 342.718 364.542 343.216 363.114 343.216ZM370.218 333.532H371.424L371.604 334.954H371.712C371.892 334.486 372.162 334.096 372.522 333.784C372.882 333.472 373.356 333.316 373.944 333.316C374.268 333.316 374.55 333.364 374.79 333.46V334.99H374.124C373.452 334.99 372.894 335.188 372.45 335.584C372.018 335.968 371.802 336.574 371.802 337.402V343H370.218V333.532ZM386.874 343.216C384.882 343.216 383.382 342.688 382.374 341.632C381.366 340.564 380.862 338.962 380.862 336.826C380.862 334.69 381.366 333.094 382.374 332.038C383.382 330.97 384.882 330.436 386.874 330.436C388.482 330.436 389.766 330.838 390.726 331.642C391.698 332.434 392.184 333.592 392.184 335.116H390.438C390.438 334.06 390.12 333.262 389.484 332.722C388.86 332.17 387.99 331.894 386.874 331.894C385.422 331.894 384.354 332.278 383.67 333.046C382.986 333.814 382.638 335.062 382.626 336.79V336.826C382.626 338.566 382.968 339.826 383.652 340.606C384.336 341.374 385.41 341.758 386.874 341.758C388.014 341.758 388.902 341.488 389.538 340.948C390.186 340.408 390.51 339.616 390.51 338.572H392.184C392.184 340.108 391.704 341.266 390.744 342.046C389.784 342.826 388.494 343.216 386.874 343.216ZM394.212 333.532H395.418L395.598 334.954H395.706C395.886 334.486 396.156 334.096 396.516 333.784C396.876 333.472 397.35 333.316 397.938 333.316C398.262 333.316 398.544 333.364 398.784 333.46V334.99H398.118C397.446 334.99 396.888 335.188 396.444 335.584C396.012 335.968 395.796 336.574 395.796 337.402V343H394.212V333.532ZM404.22 343.216C402.696 343.216 401.562 342.814 400.818 342.01C400.074 341.206 399.702 339.958 399.702 338.266C399.702 336.574 400.074 335.326 400.818 334.522C401.562 333.718 402.696 333.316 404.22 333.316C405.588 333.316 406.608 333.682 407.28 334.414C407.964 335.134 408.306 336.298 408.306 337.906V338.698H401.34C401.4 339.79 401.658 340.6 402.114 341.128C402.582 341.644 403.284 341.902 404.22 341.902C404.976 341.902 405.588 341.728 406.056 341.38C406.524 341.032 406.758 340.498 406.758 339.778H408.306C408.306 340.882 407.922 341.734 407.154 342.334C406.398 342.922 405.42 343.216 404.22 343.216ZM406.65 337.384C406.65 335.548 405.84 334.63 404.22 334.63C403.32 334.63 402.642 334.846 402.186 335.278C401.742 335.71 401.472 336.412 401.376 337.384H406.65ZM414.222 343.216C412.698 343.216 411.564 342.814 410.82 342.01C410.076 341.206 409.704 339.958 409.704 338.266C409.704 336.574 410.076 335.326 410.82 334.522C411.564 333.718 412.698 333.316 414.222 333.316C415.59 333.316 416.61 333.682 417.282 334.414C417.966 335.134 418.308 336.298 418.308 337.906V338.698H411.342C411.402 339.79 411.66 340.6 412.116 341.128C412.584 341.644 413.286 341.902 414.222 341.902C414.978 341.902 415.59 341.728 416.058 341.38C416.526 341.032 416.76 340.498 416.76 339.778H418.308C418.308 340.882 417.924 341.734 417.156 342.334C416.4 342.922 415.422 343.216 414.222 343.216ZM416.652 337.384C416.652 335.548 415.842 334.63 414.222 334.63C413.322 334.63 412.644 334.846 412.188 335.278C411.744 335.71 411.474 336.412 411.378 337.384H416.652ZM423.378 343.216C422.178 343.216 421.254 342.814 420.606 342.01C419.958 341.206 419.634 339.958 419.634 338.266C419.634 336.61 419.952 335.374 420.588 334.558C421.236 333.73 422.118 333.316 423.234 333.316C423.906 333.316 424.476 333.418 424.944 333.622C425.412 333.826 425.802 334.156 426.114 334.612H426.222V329.986H427.806V343H426.618L426.42 341.722H426.312C426 342.214 425.586 342.586 425.07 342.838C424.566 343.09 424.002 343.216 423.378 343.216ZM423.774 341.902C424.626 341.902 425.244 341.602 425.628 341.002C426.024 340.402 426.222 339.514 426.222 338.338V338.266C426.222 337.066 426.024 336.16 425.628 335.548C425.232 334.936 424.614 334.63 423.774 334.63C423.174 334.63 422.688 334.75 422.316 334.99C421.956 335.218 421.692 335.596 421.524 336.124C421.356 336.652 421.272 337.366 421.272 338.266V338.338C421.272 339.226 421.356 339.928 421.524 340.444C421.692 340.96 421.956 341.332 422.316 341.56C422.676 341.788 423.162 341.902 423.774 341.902Z" fill="black"/>
</svg>
