<svg width="404" height="406" viewBox="0 0 404 406" fill="none" xmlns="http://www.w3.org/2000/svg">
<rect width="404" height="406" rx="22" fill="#009ba7"/>
<rect x="66" y="245" width="112" height="32" rx="16" fill="white"/>
<rect x="66" y="203" width="272" height="32" rx="16" fill="white"/>
<rect x="66" y="161" width="272" height="32" rx="16" fill="white"/>
<rect x="226" y="119" width="112" height="32" rx="16" fill="white" fill-opacity="0.86"/>
<path d="M319.035 308V306.684H321.779V299.376H321.667L319.399 301.798L318.433 300.93L320.925 298.228H323.333V306.684H325.713V308H319.035Z" fill="white" fill-opacity="0.47"/>
<path d="M277.163 302.246C277.77 302.246 278.218 302.12 278.507 301.868C278.797 301.607 278.941 301.275 278.941 300.874V300.776C278.941 300.328 278.801 299.987 278.521 299.754C278.241 299.511 277.863 299.39 277.387 299.39C276.921 299.39 276.524 299.497 276.197 299.712C275.871 299.917 275.595 300.207 275.371 300.58L274.321 299.67C274.471 299.455 274.639 299.25 274.825 299.054C275.012 298.858 275.231 298.69 275.483 298.55C275.735 298.401 276.02 298.284 276.337 298.2C276.655 298.107 277.019 298.06 277.429 298.06C277.887 298.06 278.311 298.116 278.703 298.228C279.095 298.34 279.431 298.508 279.711 298.732C279.991 298.947 280.211 299.213 280.369 299.53C280.528 299.838 280.607 300.188 280.607 300.58C280.607 300.888 280.556 301.168 280.453 301.42C280.36 301.672 280.225 301.896 280.047 302.092C279.879 302.279 279.679 302.433 279.445 302.554C279.221 302.675 278.983 302.764 278.731 302.82V302.89C279.011 302.946 279.273 303.039 279.515 303.17C279.767 303.291 279.987 303.455 280.173 303.66C280.36 303.856 280.505 304.094 280.607 304.374C280.719 304.645 280.775 304.957 280.775 305.312C280.775 305.741 280.691 306.133 280.523 306.488C280.355 306.833 280.117 307.132 279.809 307.384C279.511 307.636 279.147 307.832 278.717 307.972C278.288 308.103 277.812 308.168 277.289 308.168C276.832 308.168 276.431 308.117 276.085 308.014C275.74 307.921 275.432 307.795 275.161 307.636C274.9 307.468 274.667 307.281 274.461 307.076C274.265 306.861 274.093 306.642 273.943 306.418L275.105 305.508C275.227 305.704 275.353 305.886 275.483 306.054C275.623 306.213 275.777 306.353 275.945 306.474C276.123 306.586 276.319 306.675 276.533 306.74C276.757 306.805 277.009 306.838 277.289 306.838C277.887 306.838 278.344 306.698 278.661 306.418C278.979 306.129 279.137 305.732 279.137 305.228V305.13C279.137 304.626 278.969 304.243 278.633 303.982C278.297 303.721 277.821 303.59 277.205 303.59H276.169V302.246H277.163ZM283.342 308V306.684H286.086V299.376H285.974L283.706 301.798L282.74 300.93L285.232 298.228H287.64V306.684H290.02V308H283.342Z" fill="white"/>
<path d="M237.163 302.246C237.77 302.246 238.218 302.12 238.507 301.868C238.797 301.607 238.941 301.275 238.941 300.874V300.776C238.941 300.328 238.801 299.987 238.521 299.754C238.241 299.511 237.863 299.39 237.387 299.39C236.921 299.39 236.524 299.497 236.197 299.712C235.871 299.917 235.595 300.207 235.371 300.58L234.321 299.67C234.471 299.455 234.639 299.25 234.825 299.054C235.012 298.858 235.231 298.69 235.483 298.55C235.735 298.401 236.02 298.284 236.337 298.2C236.655 298.107 237.019 298.06 237.429 298.06C237.887 298.06 238.311 298.116 238.703 298.228C239.095 298.34 239.431 298.508 239.711 298.732C239.991 298.947 240.211 299.213 240.369 299.53C240.528 299.838 240.607 300.188 240.607 300.58C240.607 300.888 240.556 301.168 240.453 301.42C240.36 301.672 240.225 301.896 240.047 302.092C239.879 302.279 239.679 302.433 239.445 302.554C239.221 302.675 238.983 302.764 238.731 302.82V302.89C239.011 302.946 239.273 303.039 239.515 303.17C239.767 303.291 239.987 303.455 240.173 303.66C240.36 303.856 240.505 304.094 240.607 304.374C240.719 304.645 240.775 304.957 240.775 305.312C240.775 305.741 240.691 306.133 240.523 306.488C240.355 306.833 240.117 307.132 239.809 307.384C239.511 307.636 239.147 307.832 238.717 307.972C238.288 308.103 237.812 308.168 237.289 308.168C236.832 308.168 236.431 308.117 236.085 308.014C235.74 307.921 235.432 307.795 235.161 307.636C234.9 307.468 234.667 307.281 234.461 307.076C234.265 306.861 234.093 306.642 233.943 306.418L235.105 305.508C235.227 305.704 235.353 305.886 235.483 306.054C235.623 306.213 235.777 306.353 235.945 306.474C236.123 306.586 236.319 306.675 236.533 306.74C236.757 306.805 237.009 306.838 237.289 306.838C237.887 306.838 238.344 306.698 238.661 306.418C238.979 306.129 239.137 305.732 239.137 305.228V305.13C239.137 304.626 238.969 304.243 238.633 303.982C238.297 303.721 237.821 303.59 237.205 303.59H236.169V302.246H237.163ZM246.31 308.168C245.703 308.168 245.176 308.056 244.728 307.832C244.28 307.599 243.911 307.267 243.622 306.838C243.333 306.409 243.118 305.881 242.978 305.256C242.838 304.631 242.768 303.917 242.768 303.114C242.768 302.321 242.838 301.611 242.978 300.986C243.118 300.351 243.333 299.819 243.622 299.39C243.911 298.961 244.28 298.634 244.728 298.41C245.176 298.177 245.703 298.06 246.31 298.06C247.523 298.06 248.415 298.503 248.984 299.39C249.563 300.277 249.852 301.518 249.852 303.114C249.852 304.71 249.563 305.951 248.984 306.838C248.415 307.725 247.523 308.168 246.31 308.168ZM246.31 306.824C246.646 306.824 246.931 306.759 247.164 306.628C247.407 306.488 247.603 306.292 247.752 306.04C247.901 305.788 248.009 305.489 248.074 305.144C248.139 304.789 248.172 304.397 248.172 303.968V302.26C248.172 301.831 248.139 301.443 248.074 301.098C248.009 300.743 247.901 300.44 247.752 300.188C247.603 299.936 247.407 299.745 247.164 299.614C246.931 299.474 246.646 299.404 246.31 299.404C245.974 299.404 245.685 299.474 245.442 299.614C245.209 299.745 245.017 299.936 244.868 300.188C244.719 300.44 244.611 300.743 244.546 301.098C244.481 301.443 244.448 301.831 244.448 302.26V303.968C244.448 304.397 244.481 304.789 244.546 305.144C244.611 305.489 244.719 305.788 244.868 306.04C245.017 306.292 245.209 306.488 245.442 306.628C245.685 306.759 245.974 306.824 246.31 306.824Z" fill="white"/>
<path d="M201.069 308H194.433V306.488L197.555 303.702C198.05 303.254 198.428 302.829 198.689 302.428C198.96 302.017 199.095 301.588 199.095 301.14V300.958C199.095 300.482 198.951 300.109 198.661 299.838C198.381 299.567 197.999 299.432 197.513 299.432C197.243 299.432 197.005 299.474 196.799 299.558C196.603 299.633 196.431 299.74 196.281 299.88C196.132 300.02 196.006 300.183 195.903 300.37C195.81 300.557 195.735 300.757 195.679 300.972L194.293 300.44C194.396 300.132 194.536 299.838 194.713 299.558C194.891 299.269 195.115 299.012 195.385 298.788C195.656 298.564 195.973 298.387 196.337 298.256C196.711 298.125 197.145 298.06 197.639 298.06C198.134 298.06 198.577 298.135 198.969 298.284C199.361 298.424 199.688 298.625 199.949 298.886C200.22 299.138 200.425 299.441 200.565 299.796C200.705 300.151 200.775 300.538 200.775 300.958C200.775 301.35 200.715 301.714 200.593 302.05C200.472 302.386 200.304 302.703 200.089 303.002C199.875 303.301 199.623 303.585 199.333 303.856C199.053 304.127 198.755 304.402 198.437 304.682L196.141 306.656H201.069V308ZM209.726 301.868C209.726 302.577 209.619 303.245 209.404 303.87C209.189 304.495 208.914 305.069 208.578 305.592C208.242 306.115 207.864 306.581 207.444 306.992C207.033 307.403 206.627 307.739 206.226 308H204.126C204.677 307.599 205.171 307.211 205.61 306.838C206.049 306.465 206.431 306.082 206.758 305.69C207.085 305.298 207.355 304.883 207.57 304.444C207.794 304.005 207.967 303.525 208.088 303.002L207.99 302.974C207.887 303.17 207.766 303.357 207.626 303.534C207.495 303.702 207.337 303.851 207.15 303.982C206.973 304.113 206.767 304.215 206.534 304.29C206.301 304.365 206.03 304.402 205.722 304.402C205.311 304.402 204.929 304.332 204.574 304.192C204.229 304.052 203.925 303.851 203.664 303.59C203.412 303.319 203.211 303.002 203.062 302.638C202.922 302.265 202.852 301.845 202.852 301.378C202.852 300.893 202.931 300.445 203.09 300.034C203.258 299.623 203.491 299.273 203.79 298.984C204.089 298.695 204.448 298.471 204.868 298.312C205.288 298.144 205.759 298.06 206.282 298.06C206.823 298.06 207.304 298.149 207.724 298.326C208.153 298.503 208.513 298.76 208.802 299.096C209.101 299.423 209.329 299.819 209.488 300.286C209.647 300.753 209.726 301.28 209.726 301.868ZM206.282 303.128C206.851 303.128 207.295 302.979 207.612 302.68C207.929 302.372 208.088 301.924 208.088 301.336V301.14C208.088 300.552 207.929 300.109 207.612 299.81C207.295 299.502 206.851 299.348 206.282 299.348C205.713 299.348 205.269 299.502 204.952 299.81C204.635 300.109 204.476 300.552 204.476 301.14V301.336C204.476 301.924 204.635 302.372 204.952 302.68C205.269 302.979 205.713 303.128 206.282 303.128Z" fill="white"/>
<path d="M161.069 308H154.433V306.488L157.555 303.702C158.05 303.254 158.428 302.829 158.689 302.428C158.96 302.017 159.095 301.588 159.095 301.14V300.958C159.095 300.482 158.951 300.109 158.661 299.838C158.381 299.567 157.999 299.432 157.513 299.432C157.243 299.432 157.005 299.474 156.799 299.558C156.603 299.633 156.431 299.74 156.281 299.88C156.132 300.02 156.006 300.183 155.903 300.37C155.81 300.557 155.735 300.757 155.679 300.972L154.293 300.44C154.396 300.132 154.536 299.838 154.713 299.558C154.891 299.269 155.115 299.012 155.385 298.788C155.656 298.564 155.973 298.387 156.337 298.256C156.711 298.125 157.145 298.06 157.639 298.06C158.134 298.06 158.577 298.135 158.969 298.284C159.361 298.424 159.688 298.625 159.949 298.886C160.22 299.138 160.425 299.441 160.565 299.796C160.705 300.151 160.775 300.538 160.775 300.958C160.775 301.35 160.715 301.714 160.593 302.05C160.472 302.386 160.304 302.703 160.089 303.002C159.875 303.301 159.623 303.585 159.333 303.856C159.053 304.127 158.755 304.402 158.437 304.682L156.141 306.656H161.069V308ZM166.31 308.168C165.741 308.168 165.237 308.098 164.798 307.958C164.369 307.809 164.005 307.608 163.706 307.356C163.417 307.104 163.193 306.805 163.034 306.46C162.885 306.115 162.81 305.741 162.81 305.34C162.81 304.687 162.987 304.164 163.342 303.772C163.706 303.371 164.182 303.091 164.77 302.932V302.82C164.266 302.643 163.86 302.363 163.552 301.98C163.253 301.597 163.104 301.126 163.104 300.566C163.104 300.193 163.174 299.852 163.314 299.544C163.463 299.236 163.673 298.975 163.944 298.76C164.215 298.536 164.551 298.363 164.952 298.242C165.353 298.121 165.806 298.06 166.31 298.06C166.814 298.06 167.267 298.121 167.668 298.242C168.069 298.363 168.405 298.536 168.676 298.76C168.947 298.975 169.152 299.236 169.292 299.544C169.441 299.852 169.516 300.193 169.516 300.566C169.516 301.126 169.362 301.597 169.054 301.98C168.755 302.363 168.354 302.643 167.85 302.82V302.932C168.438 303.091 168.909 303.371 169.264 303.772C169.628 304.164 169.81 304.687 169.81 305.34C169.81 305.741 169.731 306.115 169.572 306.46C169.423 306.805 169.199 307.104 168.9 307.356C168.611 307.608 168.247 307.809 167.808 307.958C167.379 308.098 166.879 308.168 166.31 308.168ZM166.31 306.894C166.898 306.894 167.351 306.759 167.668 306.488C167.995 306.217 168.158 305.839 168.158 305.354V305.074C168.158 304.589 167.995 304.211 167.668 303.94C167.351 303.669 166.898 303.534 166.31 303.534C165.722 303.534 165.265 303.669 164.938 303.94C164.621 304.211 164.462 304.589 164.462 305.074V305.354C164.462 305.839 164.621 306.217 164.938 306.488C165.265 306.759 165.722 306.894 166.31 306.894ZM166.31 302.316C166.851 302.316 167.262 302.199 167.542 301.966C167.831 301.733 167.976 301.392 167.976 300.944V300.706C167.976 300.258 167.831 299.917 167.542 299.684C167.262 299.451 166.851 299.334 166.31 299.334C165.769 299.334 165.353 299.451 165.064 299.684C164.784 299.917 164.644 300.258 164.644 300.706V300.944C164.644 301.392 164.784 301.733 165.064 301.966C165.353 302.199 165.769 302.316 166.31 302.316Z" fill="white"/>
<path d="M121.069 308H114.433V306.488L117.555 303.702C118.05 303.254 118.428 302.829 118.689 302.428C118.96 302.017 119.095 301.588 119.095 301.14V300.958C119.095 300.482 118.951 300.109 118.661 299.838C118.381 299.567 117.999 299.432 117.513 299.432C117.243 299.432 117.005 299.474 116.799 299.558C116.603 299.633 116.431 299.74 116.281 299.88C116.132 300.02 116.006 300.183 115.903 300.37C115.81 300.557 115.735 300.757 115.679 300.972L114.293 300.44C114.396 300.132 114.536 299.838 114.713 299.558C114.891 299.269 115.115 299.012 115.385 298.788C115.656 298.564 115.973 298.387 116.337 298.256C116.711 298.125 117.145 298.06 117.639 298.06C118.134 298.06 118.577 298.135 118.969 298.284C119.361 298.424 119.688 298.625 119.949 298.886C120.22 299.138 120.425 299.441 120.565 299.796C120.705 300.151 120.775 300.538 120.775 300.958C120.775 301.35 120.715 301.714 120.593 302.05C120.472 302.386 120.304 302.703 120.089 303.002C119.875 303.301 119.623 303.585 119.333 303.856C119.053 304.127 118.755 304.402 118.437 304.682L116.141 306.656H121.069V308ZM124.504 308L128.046 299.53H124.35V301.336H122.992V298.228H129.614V299.6L126.17 308H124.504Z" fill="white"/>
<path d="M81.0695 308H74.4335V306.488L77.5555 303.702C78.0501 303.254 78.4281 302.829 78.6895 302.428C78.9601 302.017 79.0955 301.588 79.0955 301.14V300.958C79.0955 300.482 78.9508 300.109 78.6615 299.838C78.3815 299.567 77.9988 299.432 77.5135 299.432C77.2428 299.432 77.0048 299.474 76.7995 299.558C76.6035 299.633 76.4308 299.74 76.2815 299.88C76.1321 300.02 76.0061 300.183 75.9035 300.37C75.8101 300.557 75.7355 300.757 75.6795 300.972L74.2935 300.44C74.3961 300.132 74.5361 299.838 74.7135 299.558C74.8908 299.269 75.1148 299.012 75.3855 298.788C75.6561 298.564 75.9735 298.387 76.3375 298.256C76.7108 298.125 77.1448 298.06 77.6395 298.06C78.1341 298.06 78.5775 298.135 78.9695 298.284C79.3615 298.424 79.6881 298.625 79.9495 298.886C80.2201 299.138 80.4255 299.441 80.5655 299.796C80.7055 300.151 80.7755 300.538 80.7755 300.958C80.7755 301.35 80.7148 301.714 80.5935 302.05C80.4721 302.386 80.3041 302.703 80.0895 303.002C79.8748 303.301 79.6228 303.585 79.3335 303.856C79.0535 304.127 78.7548 304.402 78.4375 304.682L76.1415 306.656H81.0695V308ZM86.338 308.168C85.7967 308.168 85.3113 308.079 84.882 307.902C84.462 307.725 84.1027 307.473 83.804 307.146C83.5147 306.81 83.2907 306.409 83.132 305.942C82.9733 305.475 82.894 304.948 82.894 304.36C82.894 303.651 83.0013 302.983 83.216 302.358C83.4307 301.733 83.706 301.159 84.042 300.636C84.378 300.113 84.7513 299.651 85.162 299.25C85.582 298.839 85.9927 298.499 86.394 298.228H88.494C87.9433 298.629 87.4487 299.017 87.01 299.39C86.5713 299.763 86.1887 300.146 85.862 300.538C85.5353 300.93 85.26 301.345 85.036 301.784C84.8213 302.223 84.6533 302.703 84.532 303.226L84.63 303.254C84.7327 303.058 84.8493 302.876 84.98 302.708C85.12 302.531 85.2787 302.377 85.456 302.246C85.6427 302.115 85.8527 302.013 86.086 301.938C86.3193 301.863 86.59 301.826 86.898 301.826C87.3087 301.826 87.6867 301.896 88.032 302.036C88.3867 302.176 88.69 302.381 88.942 302.652C89.2033 302.913 89.404 303.231 89.544 303.604C89.6933 303.977 89.768 304.393 89.768 304.85C89.768 305.345 89.684 305.797 89.516 306.208C89.3573 306.609 89.1287 306.955 88.83 307.244C88.5313 307.533 88.1673 307.762 87.738 307.93C87.318 308.089 86.8513 308.168 86.338 308.168ZM86.338 306.88C86.9073 306.88 87.3507 306.731 87.668 306.432C87.9853 306.124 88.144 305.676 88.144 305.088V304.892C88.144 304.304 87.9853 303.861 87.668 303.562C87.3507 303.254 86.9073 303.1 86.338 303.1C85.7687 303.1 85.3253 303.254 85.008 303.562C84.6907 303.861 84.532 304.304 84.532 304.892V305.088C84.532 305.676 84.6907 306.124 85.008 306.432C85.3253 306.731 85.7687 306.88 86.338 306.88Z" fill="white"/>
<path d="M321.069 266H314.433V264.488L317.555 261.702C318.05 261.254 318.428 260.829 318.689 260.428C318.96 260.017 319.095 259.588 319.095 259.14V258.958C319.095 258.482 318.951 258.109 318.661 257.838C318.381 257.567 317.999 257.432 317.513 257.432C317.243 257.432 317.005 257.474 316.799 257.558C316.603 257.633 316.431 257.74 316.281 257.88C316.132 258.02 316.006 258.183 315.903 258.37C315.81 258.557 315.735 258.757 315.679 258.972L314.293 258.44C314.396 258.132 314.536 257.838 314.713 257.558C314.891 257.269 315.115 257.012 315.385 256.788C315.656 256.564 315.973 256.387 316.337 256.256C316.711 256.125 317.145 256.06 317.639 256.06C318.134 256.06 318.577 256.135 318.969 256.284C319.361 256.424 319.688 256.625 319.949 256.886C320.22 257.138 320.425 257.441 320.565 257.796C320.705 258.151 320.775 258.538 320.775 258.958C320.775 259.35 320.715 259.714 320.593 260.05C320.472 260.386 320.304 260.703 320.089 261.002C319.875 261.301 319.623 261.585 319.333 261.856C319.053 262.127 318.755 262.402 318.437 262.682L316.141 264.656H321.069V266ZM329.222 257.6H324.882L324.63 261.058H324.728C324.84 260.862 324.957 260.689 325.078 260.54C325.199 260.381 325.339 260.246 325.498 260.134C325.657 260.022 325.839 259.938 326.044 259.882C326.249 259.817 326.492 259.784 326.772 259.784C327.192 259.784 327.579 259.854 327.934 259.994C328.298 260.134 328.611 260.335 328.872 260.596C329.143 260.857 329.353 261.179 329.502 261.562C329.651 261.935 329.726 262.36 329.726 262.836C329.726 263.321 329.647 263.769 329.488 264.18C329.339 264.591 329.115 264.945 328.816 265.244C328.517 265.533 328.149 265.762 327.71 265.93C327.281 266.089 326.791 266.168 326.24 266.168C325.801 266.168 325.414 266.117 325.078 266.014C324.742 265.921 324.443 265.795 324.182 265.636C323.93 265.468 323.706 265.281 323.51 265.076C323.323 264.861 323.155 264.642 323.006 264.418L324.154 263.508C324.275 263.704 324.401 263.881 324.532 264.04C324.663 264.199 324.812 264.339 324.98 264.46C325.148 264.581 325.335 264.675 325.54 264.74C325.755 264.805 325.997 264.838 326.268 264.838C326.847 264.838 327.29 264.679 327.598 264.362C327.915 264.045 328.074 263.606 328.074 263.046V262.878C328.074 262.318 327.915 261.879 327.598 261.562C327.29 261.245 326.847 261.086 326.268 261.086C325.848 261.086 325.512 261.165 325.26 261.324C325.008 261.483 324.793 261.66 324.616 261.856L323.314 261.674L323.678 256.228H329.222V257.6Z" fill="white"/>
<path d="M281.069 266H274.433V264.488L277.555 261.702C278.05 261.254 278.428 260.829 278.689 260.428C278.96 260.017 279.095 259.588 279.095 259.14V258.958C279.095 258.482 278.951 258.109 278.661 257.838C278.381 257.567 277.999 257.432 277.513 257.432C277.243 257.432 277.005 257.474 276.799 257.558C276.603 257.633 276.431 257.74 276.281 257.88C276.132 258.02 276.006 258.183 275.903 258.37C275.81 258.557 275.735 258.757 275.679 258.972L274.293 258.44C274.396 258.132 274.536 257.838 274.713 257.558C274.891 257.269 275.115 257.012 275.385 256.788C275.656 256.564 275.973 256.387 276.337 256.256C276.711 256.125 277.145 256.06 277.639 256.06C278.134 256.06 278.577 256.135 278.969 256.284C279.361 256.424 279.688 256.625 279.949 256.886C280.22 257.138 280.425 257.441 280.565 257.796C280.705 258.151 280.775 258.538 280.775 258.958C280.775 259.35 280.715 259.714 280.593 260.05C280.472 260.386 280.304 260.703 280.089 261.002C279.875 261.301 279.623 261.585 279.333 261.856C279.053 262.127 278.755 262.402 278.437 262.682L276.141 264.656H281.069V266ZM287.136 266V264.096H282.6V262.738L286.562 256.228H288.634V262.85H289.964V264.096H288.634V266H287.136ZM283.944 262.85H287.136V257.67H287.038L283.944 262.85Z" fill="white"/>
<path d="M241.069 266H234.433V264.488L237.555 261.702C238.05 261.254 238.428 260.829 238.689 260.428C238.96 260.017 239.095 259.588 239.095 259.14V258.958C239.095 258.482 238.951 258.109 238.661 257.838C238.381 257.567 237.999 257.432 237.513 257.432C237.243 257.432 237.005 257.474 236.799 257.558C236.603 257.633 236.431 257.74 236.281 257.88C236.132 258.02 236.006 258.183 235.903 258.37C235.81 258.557 235.735 258.757 235.679 258.972L234.293 258.44C234.396 258.132 234.536 257.838 234.713 257.558C234.891 257.269 235.115 257.012 235.385 256.788C235.656 256.564 235.973 256.387 236.337 256.256C236.711 256.125 237.145 256.06 237.639 256.06C238.134 256.06 238.577 256.135 238.969 256.284C239.361 256.424 239.688 256.625 239.949 256.886C240.22 257.138 240.425 257.441 240.565 257.796C240.705 258.151 240.775 258.538 240.775 258.958C240.775 259.35 240.715 259.714 240.593 260.05C240.472 260.386 240.304 260.703 240.089 261.002C239.875 261.301 239.623 261.585 239.333 261.856C239.053 262.127 238.755 262.402 238.437 262.682L236.141 264.656H241.069V266ZM245.778 260.246C246.385 260.246 246.833 260.12 247.122 259.868C247.411 259.607 247.556 259.275 247.556 258.874V258.776C247.556 258.328 247.416 257.987 247.136 257.754C246.856 257.511 246.478 257.39 246.002 257.39C245.535 257.39 245.139 257.497 244.812 257.712C244.485 257.917 244.21 258.207 243.986 258.58L242.936 257.67C243.085 257.455 243.253 257.25 243.44 257.054C243.627 256.858 243.846 256.69 244.098 256.55C244.35 256.401 244.635 256.284 244.952 256.2C245.269 256.107 245.633 256.06 246.044 256.06C246.501 256.06 246.926 256.116 247.318 256.228C247.71 256.34 248.046 256.508 248.326 256.732C248.606 256.947 248.825 257.213 248.984 257.53C249.143 257.838 249.222 258.188 249.222 258.58C249.222 258.888 249.171 259.168 249.068 259.42C248.975 259.672 248.839 259.896 248.662 260.092C248.494 260.279 248.293 260.433 248.06 260.554C247.836 260.675 247.598 260.764 247.346 260.82V260.89C247.626 260.946 247.887 261.039 248.13 261.17C248.382 261.291 248.601 261.455 248.788 261.66C248.975 261.856 249.119 262.094 249.222 262.374C249.334 262.645 249.39 262.957 249.39 263.312C249.39 263.741 249.306 264.133 249.138 264.488C248.97 264.833 248.732 265.132 248.424 265.384C248.125 265.636 247.761 265.832 247.332 265.972C246.903 266.103 246.427 266.168 245.904 266.168C245.447 266.168 245.045 266.117 244.7 266.014C244.355 265.921 244.047 265.795 243.776 265.636C243.515 265.468 243.281 265.281 243.076 265.076C242.88 264.861 242.707 264.642 242.558 264.418L243.72 263.508C243.841 263.704 243.967 263.886 244.098 264.054C244.238 264.213 244.392 264.353 244.56 264.474C244.737 264.586 244.933 264.675 245.148 264.74C245.372 264.805 245.624 264.838 245.904 264.838C246.501 264.838 246.959 264.698 247.276 264.418C247.593 264.129 247.752 263.732 247.752 263.228V263.13C247.752 262.626 247.584 262.243 247.248 261.982C246.912 261.721 246.436 261.59 245.82 261.59H244.784V260.246H245.778Z" fill="white"/>
<path d="M201.069 266H194.433V264.488L197.555 261.702C198.05 261.254 198.428 260.829 198.689 260.428C198.96 260.017 199.095 259.588 199.095 259.14V258.958C199.095 258.482 198.951 258.109 198.661 257.838C198.381 257.567 197.999 257.432 197.513 257.432C197.243 257.432 197.005 257.474 196.799 257.558C196.603 257.633 196.431 257.74 196.281 257.88C196.132 258.02 196.006 258.183 195.903 258.37C195.81 258.557 195.735 258.757 195.679 258.972L194.293 258.44C194.396 258.132 194.536 257.838 194.713 257.558C194.891 257.269 195.115 257.012 195.385 256.788C195.656 256.564 195.973 256.387 196.337 256.256C196.711 256.125 197.145 256.06 197.639 256.06C198.134 256.06 198.577 256.135 198.969 256.284C199.361 256.424 199.688 256.625 199.949 256.886C200.22 257.138 200.425 257.441 200.565 257.796C200.705 258.151 200.775 258.538 200.775 258.958C200.775 259.35 200.715 259.714 200.593 260.05C200.472 260.386 200.304 260.703 200.089 261.002C199.875 261.301 199.623 261.585 199.333 261.856C199.053 262.127 198.755 262.402 198.437 262.682L196.141 264.656H201.069V266ZM209.684 266H203.048V264.488L206.17 261.702C206.665 261.254 207.043 260.829 207.304 260.428C207.575 260.017 207.71 259.588 207.71 259.14V258.958C207.71 258.482 207.565 258.109 207.276 257.838C206.996 257.567 206.613 257.432 206.128 257.432C205.857 257.432 205.619 257.474 205.414 257.558C205.218 257.633 205.045 257.74 204.896 257.88C204.747 258.02 204.621 258.183 204.518 258.37C204.425 258.557 204.35 258.757 204.294 258.972L202.908 258.44C203.011 258.132 203.151 257.838 203.328 257.558C203.505 257.269 203.729 257.012 204 256.788C204.271 256.564 204.588 256.387 204.952 256.256C205.325 256.125 205.759 256.06 206.254 256.06C206.749 256.06 207.192 256.135 207.584 256.284C207.976 256.424 208.303 256.625 208.564 256.886C208.835 257.138 209.04 257.441 209.18 257.796C209.32 258.151 209.39 258.538 209.39 258.958C209.39 259.35 209.329 259.714 209.208 260.05C209.087 260.386 208.919 260.703 208.704 261.002C208.489 261.301 208.237 261.585 207.948 261.856C207.668 262.127 207.369 262.402 207.052 262.682L204.756 264.656H209.684V266Z" fill="white"/>
<circle cx="162" cy="261" r="16" fill="#6BC5CC"/>
<circle cx="162" cy="261" r="15" stroke="#009BA7" stroke-opacity="0.82" stroke-width="2"/>
<path d="M161.069 266H154.433V264.488L157.555 261.702C158.05 261.254 158.428 260.829 158.689 260.428C158.96 260.017 159.095 259.588 159.095 259.14V258.958C159.095 258.482 158.951 258.109 158.661 257.838C158.381 257.567 157.999 257.432 157.513 257.432C157.243 257.432 157.005 257.474 156.799 257.558C156.603 257.633 156.431 257.74 156.281 257.88C156.132 258.02 156.006 258.183 155.903 258.37C155.81 258.557 155.735 258.757 155.679 258.972L154.293 258.44C154.396 258.132 154.536 257.838 154.713 257.558C154.891 257.269 155.115 257.012 155.385 256.788C155.656 256.564 155.973 256.387 156.337 256.256C156.711 256.125 157.145 256.06 157.639 256.06C158.134 256.06 158.577 256.135 158.969 256.284C159.361 256.424 159.688 256.625 159.949 256.886C160.22 257.138 160.425 257.441 160.565 257.796C160.705 258.151 160.775 258.538 160.775 258.958C160.775 259.35 160.715 259.714 160.593 260.05C160.472 260.386 160.304 260.703 160.089 261.002C159.875 261.301 159.623 261.585 159.333 261.856C159.053 262.127 158.755 262.402 158.437 262.682L156.141 264.656H161.069V266ZM163.342 266V264.684H166.086V257.376H165.974L163.706 259.798L162.74 258.93L165.232 256.228H167.64V264.684H170.02V266H163.342Z" fill="white"/>
<path d="M121.069 266H114.433V264.488L117.555 261.702C118.05 261.254 118.428 260.829 118.689 260.428C118.96 260.017 119.095 259.588 119.095 259.14V258.958C119.095 258.482 118.951 258.109 118.661 257.838C118.381 257.567 117.999 257.432 117.513 257.432C117.243 257.432 117.005 257.474 116.799 257.558C116.603 257.633 116.431 257.74 116.281 257.88C116.132 258.02 116.006 258.183 115.903 258.37C115.81 258.557 115.735 258.757 115.679 258.972L114.293 258.44C114.396 258.132 114.536 257.838 114.713 257.558C114.891 257.269 115.115 257.012 115.385 256.788C115.656 256.564 115.973 256.387 116.337 256.256C116.711 256.125 117.145 256.06 117.639 256.06C118.134 256.06 118.577 256.135 118.969 256.284C119.361 256.424 119.688 256.625 119.949 256.886C120.22 257.138 120.425 257.441 120.565 257.796C120.705 258.151 120.775 258.538 120.775 258.958C120.775 259.35 120.715 259.714 120.593 260.05C120.472 260.386 120.304 260.703 120.089 261.002C119.875 261.301 119.623 261.585 119.333 261.856C119.053 262.127 118.755 262.402 118.437 262.682L116.141 264.656H121.069V266ZM126.31 266.168C125.703 266.168 125.176 266.056 124.728 265.832C124.28 265.599 123.911 265.267 123.622 264.838C123.333 264.409 123.118 263.881 122.978 263.256C122.838 262.631 122.768 261.917 122.768 261.114C122.768 260.321 122.838 259.611 122.978 258.986C123.118 258.351 123.333 257.819 123.622 257.39C123.911 256.961 124.28 256.634 124.728 256.41C125.176 256.177 125.703 256.06 126.31 256.06C127.523 256.06 128.415 256.503 128.984 257.39C129.563 258.277 129.852 259.518 129.852 261.114C129.852 262.71 129.563 263.951 128.984 264.838C128.415 265.725 127.523 266.168 126.31 266.168ZM126.31 264.824C126.646 264.824 126.931 264.759 127.164 264.628C127.407 264.488 127.603 264.292 127.752 264.04C127.901 263.788 128.009 263.489 128.074 263.144C128.139 262.789 128.172 262.397 128.172 261.968V260.26C128.172 259.831 128.139 259.443 128.074 259.098C128.009 258.743 127.901 258.44 127.752 258.188C127.603 257.936 127.407 257.745 127.164 257.614C126.931 257.474 126.646 257.404 126.31 257.404C125.974 257.404 125.685 257.474 125.442 257.614C125.209 257.745 125.017 257.936 124.868 258.188C124.719 258.44 124.611 258.743 124.546 259.098C124.481 259.443 124.448 259.831 124.448 260.26V261.968C124.448 262.397 124.481 262.789 124.546 263.144C124.611 263.489 124.719 263.788 124.868 264.04C125.017 264.292 125.209 264.488 125.442 264.628C125.685 264.759 125.974 264.824 126.31 264.824Z" fill="#A9D3AB"/>
<path d="M74.7275 266V264.684H77.4715V257.376H77.3595L75.0915 259.798L74.1255 258.93L76.6175 256.228H79.0255V264.684H81.4055V266H74.7275ZM89.726 259.868C89.726 260.577 89.6187 261.245 89.404 261.87C89.1893 262.495 88.914 263.069 88.578 263.592C88.242 264.115 87.864 264.581 87.444 264.992C87.0333 265.403 86.6273 265.739 86.226 266H84.126C84.6767 265.599 85.1713 265.211 85.61 264.838C86.0487 264.465 86.4313 264.082 86.758 263.69C87.0847 263.298 87.3553 262.883 87.57 262.444C87.794 262.005 87.9667 261.525 88.088 261.002L87.99 260.974C87.8873 261.17 87.766 261.357 87.626 261.534C87.4953 261.702 87.3367 261.851 87.15 261.982C86.9727 262.113 86.7673 262.215 86.534 262.29C86.3007 262.365 86.03 262.402 85.722 262.402C85.3113 262.402 84.9287 262.332 84.574 262.192C84.2287 262.052 83.9253 261.851 83.664 261.59C83.412 261.319 83.2113 261.002 83.062 260.638C82.922 260.265 82.852 259.845 82.852 259.378C82.852 258.893 82.9313 258.445 83.09 258.034C83.258 257.623 83.4913 257.273 83.79 256.984C84.0887 256.695 84.448 256.471 84.868 256.312C85.288 256.144 85.7593 256.06 86.282 256.06C86.8233 256.06 87.304 256.149 87.724 256.326C88.1533 256.503 88.5127 256.76 88.802 257.096C89.1007 257.423 89.3293 257.819 89.488 258.286C89.6467 258.753 89.726 259.28 89.726 259.868ZM86.282 261.128C86.8513 261.128 87.2947 260.979 87.612 260.68C87.9293 260.372 88.088 259.924 88.088 259.336V259.14C88.088 258.552 87.9293 258.109 87.612 257.81C87.2947 257.502 86.8513 257.348 86.282 257.348C85.7127 257.348 85.2693 257.502 84.952 257.81C84.6347 258.109 84.476 258.552 84.476 259.14V259.336C84.476 259.924 84.6347 260.372 84.952 260.68C85.2693 260.979 85.7127 261.128 86.282 261.128Z" fill="#A9D3AB"/>
<path d="M314.727 224V222.684H317.471V215.376H317.359L315.091 217.798L314.125 216.93L316.617 214.228H319.025V222.684H321.405V224H314.727ZM326.31 224.168C325.741 224.168 325.237 224.098 324.798 223.958C324.369 223.809 324.005 223.608 323.706 223.356C323.417 223.104 323.193 222.805 323.034 222.46C322.885 222.115 322.81 221.741 322.81 221.34C322.81 220.687 322.987 220.164 323.342 219.772C323.706 219.371 324.182 219.091 324.77 218.932V218.82C324.266 218.643 323.86 218.363 323.552 217.98C323.253 217.597 323.104 217.126 323.104 216.566C323.104 216.193 323.174 215.852 323.314 215.544C323.463 215.236 323.673 214.975 323.944 214.76C324.215 214.536 324.551 214.363 324.952 214.242C325.353 214.121 325.806 214.06 326.31 214.06C326.814 214.06 327.267 214.121 327.668 214.242C328.069 214.363 328.405 214.536 328.676 214.76C328.947 214.975 329.152 215.236 329.292 215.544C329.441 215.852 329.516 216.193 329.516 216.566C329.516 217.126 329.362 217.597 329.054 217.98C328.755 218.363 328.354 218.643 327.85 218.82V218.932C328.438 219.091 328.909 219.371 329.264 219.772C329.628 220.164 329.81 220.687 329.81 221.34C329.81 221.741 329.731 222.115 329.572 222.46C329.423 222.805 329.199 223.104 328.9 223.356C328.611 223.608 328.247 223.809 327.808 223.958C327.379 224.098 326.879 224.168 326.31 224.168ZM326.31 222.894C326.898 222.894 327.351 222.759 327.668 222.488C327.995 222.217 328.158 221.839 328.158 221.354V221.074C328.158 220.589 327.995 220.211 327.668 219.94C327.351 219.669 326.898 219.534 326.31 219.534C325.722 219.534 325.265 219.669 324.938 219.94C324.621 220.211 324.462 220.589 324.462 221.074V221.354C324.462 221.839 324.621 222.217 324.938 222.488C325.265 222.759 325.722 222.894 326.31 222.894ZM326.31 218.316C326.851 218.316 327.262 218.199 327.542 217.966C327.831 217.733 327.976 217.392 327.976 216.944V216.706C327.976 216.258 327.831 215.917 327.542 215.684C327.262 215.451 326.851 215.334 326.31 215.334C325.769 215.334 325.353 215.451 325.064 215.684C324.784 215.917 324.644 216.258 324.644 216.706V216.944C324.644 217.392 324.784 217.733 325.064 217.966C325.353 218.199 325.769 218.316 326.31 218.316Z" fill="#A9D3AB"/>
<path d="M274.727 224V222.684H277.471V215.376H277.359L275.091 217.798L274.125 216.93L276.617 214.228H279.025V222.684H281.405V224H274.727ZM284.504 224L288.046 215.53H284.35V217.336H282.992V214.228H289.614V215.6L286.17 224H284.504Z" fill="#A9D3AB"/>
<path d="M234.727 224V222.684H237.471V215.376H237.359L235.091 217.798L234.125 216.93L236.617 214.228H239.025V222.684H241.405V224H234.727ZM246.338 224.168C245.797 224.168 245.311 224.079 244.882 223.902C244.462 223.725 244.103 223.473 243.804 223.146C243.515 222.81 243.291 222.409 243.132 221.942C242.973 221.475 242.894 220.948 242.894 220.36C242.894 219.651 243.001 218.983 243.216 218.358C243.431 217.733 243.706 217.159 244.042 216.636C244.378 216.113 244.751 215.651 245.162 215.25C245.582 214.839 245.993 214.499 246.394 214.228H248.494C247.943 214.629 247.449 215.017 247.01 215.39C246.571 215.763 246.189 216.146 245.862 216.538C245.535 216.93 245.26 217.345 245.036 217.784C244.821 218.223 244.653 218.703 244.532 219.226L244.63 219.254C244.733 219.058 244.849 218.876 244.98 218.708C245.12 218.531 245.279 218.377 245.456 218.246C245.643 218.115 245.853 218.013 246.086 217.938C246.319 217.863 246.59 217.826 246.898 217.826C247.309 217.826 247.687 217.896 248.032 218.036C248.387 218.176 248.69 218.381 248.942 218.652C249.203 218.913 249.404 219.231 249.544 219.604C249.693 219.977 249.768 220.393 249.768 220.85C249.768 221.345 249.684 221.797 249.516 222.208C249.357 222.609 249.129 222.955 248.83 223.244C248.531 223.533 248.167 223.762 247.738 223.93C247.318 224.089 246.851 224.168 246.338 224.168ZM246.338 222.88C246.907 222.88 247.351 222.731 247.668 222.432C247.985 222.124 248.144 221.676 248.144 221.088V220.892C248.144 220.304 247.985 219.861 247.668 219.562C247.351 219.254 246.907 219.1 246.338 219.1C245.769 219.1 245.325 219.254 245.008 219.562C244.691 219.861 244.532 220.304 244.532 220.892V221.088C244.532 221.676 244.691 222.124 245.008 222.432C245.325 222.731 245.769 222.88 246.338 222.88Z" fill="#A9D3AB"/>
<path d="M194.727 224V222.684H197.471V215.376H197.359L195.091 217.798L194.125 216.93L196.617 214.228H199.025V222.684H201.405V224H194.727ZM209.222 215.6H204.882L204.63 219.058H204.728C204.84 218.862 204.957 218.689 205.078 218.54C205.199 218.381 205.339 218.246 205.498 218.134C205.657 218.022 205.839 217.938 206.044 217.882C206.249 217.817 206.492 217.784 206.772 217.784C207.192 217.784 207.579 217.854 207.934 217.994C208.298 218.134 208.611 218.335 208.872 218.596C209.143 218.857 209.353 219.179 209.502 219.562C209.651 219.935 209.726 220.36 209.726 220.836C209.726 221.321 209.647 221.769 209.488 222.18C209.339 222.591 209.115 222.945 208.816 223.244C208.517 223.533 208.149 223.762 207.71 223.93C207.281 224.089 206.791 224.168 206.24 224.168C205.801 224.168 205.414 224.117 205.078 224.014C204.742 223.921 204.443 223.795 204.182 223.636C203.93 223.468 203.706 223.281 203.51 223.076C203.323 222.861 203.155 222.642 203.006 222.418L204.154 221.508C204.275 221.704 204.401 221.881 204.532 222.04C204.663 222.199 204.812 222.339 204.98 222.46C205.148 222.581 205.335 222.675 205.54 222.74C205.755 222.805 205.997 222.838 206.268 222.838C206.847 222.838 207.29 222.679 207.598 222.362C207.915 222.045 208.074 221.606 208.074 221.046V220.878C208.074 220.318 207.915 219.879 207.598 219.562C207.29 219.245 206.847 219.086 206.268 219.086C205.848 219.086 205.512 219.165 205.26 219.324C205.008 219.483 204.793 219.66 204.616 219.856L203.314 219.674L203.678 214.228H209.222V215.6Z" fill="#A9D3AB"/>
<path d="M154.727 224V222.684H157.471V215.376H157.359L155.091 217.798L154.125 216.93L156.617 214.228H159.025V222.684H161.405V224H154.727ZM167.136 224V222.096H162.6V220.738L166.562 214.228H168.634V220.85H169.964V222.096H168.634V224H167.136ZM163.944 220.85H167.136V215.67H167.038L163.944 220.85Z" fill="#A9D3AB"/>
<path d="M114.727 224V222.684H117.471V215.376H117.359L115.091 217.798L114.125 216.93L116.617 214.228H119.025V222.684H121.405V224H114.727ZM125.778 218.246C126.385 218.246 126.833 218.12 127.122 217.868C127.411 217.607 127.556 217.275 127.556 216.874V216.776C127.556 216.328 127.416 215.987 127.136 215.754C126.856 215.511 126.478 215.39 126.002 215.39C125.535 215.39 125.139 215.497 124.812 215.712C124.485 215.917 124.21 216.207 123.986 216.58L122.936 215.67C123.085 215.455 123.253 215.25 123.44 215.054C123.627 214.858 123.846 214.69 124.098 214.55C124.35 214.401 124.635 214.284 124.952 214.2C125.269 214.107 125.633 214.06 126.044 214.06C126.501 214.06 126.926 214.116 127.318 214.228C127.71 214.34 128.046 214.508 128.326 214.732C128.606 214.947 128.825 215.213 128.984 215.53C129.143 215.838 129.222 216.188 129.222 216.58C129.222 216.888 129.171 217.168 129.068 217.42C128.975 217.672 128.839 217.896 128.662 218.092C128.494 218.279 128.293 218.433 128.06 218.554C127.836 218.675 127.598 218.764 127.346 218.82V218.89C127.626 218.946 127.887 219.039 128.13 219.17C128.382 219.291 128.601 219.455 128.788 219.66C128.975 219.856 129.119 220.094 129.222 220.374C129.334 220.645 129.39 220.957 129.39 221.312C129.39 221.741 129.306 222.133 129.138 222.488C128.97 222.833 128.732 223.132 128.424 223.384C128.125 223.636 127.761 223.832 127.332 223.972C126.903 224.103 126.427 224.168 125.904 224.168C125.447 224.168 125.045 224.117 124.7 224.014C124.355 223.921 124.047 223.795 123.776 223.636C123.515 223.468 123.281 223.281 123.076 223.076C122.88 222.861 122.707 222.642 122.558 222.418L123.72 221.508C123.841 221.704 123.967 221.886 124.098 222.054C124.238 222.213 124.392 222.353 124.56 222.474C124.737 222.586 124.933 222.675 125.148 222.74C125.372 222.805 125.624 222.838 125.904 222.838C126.501 222.838 126.959 222.698 127.276 222.418C127.593 222.129 127.752 221.732 127.752 221.228V221.13C127.752 220.626 127.584 220.243 127.248 219.982C126.912 219.721 126.436 219.59 125.82 219.59H124.784V218.246H125.778Z" fill="#A9D3AB"/>
<path d="M74.7275 224V222.684H77.4715V215.376H77.3595L75.0915 217.798L74.1255 216.93L76.6175 214.228H79.0255V222.684H81.4055V224H74.7275ZM89.684 224H83.048V222.488L86.17 219.702C86.6647 219.254 87.0427 218.829 87.304 218.428C87.5747 218.017 87.71 217.588 87.71 217.14V216.958C87.71 216.482 87.5653 216.109 87.276 215.838C86.996 215.567 86.6133 215.432 86.128 215.432C85.8573 215.432 85.6193 215.474 85.414 215.558C85.218 215.633 85.0453 215.74 84.896 215.88C84.7467 216.02 84.6207 216.183 84.518 216.37C84.4247 216.557 84.35 216.757 84.294 216.972L82.908 216.44C83.0107 216.132 83.1507 215.838 83.328 215.558C83.5053 215.269 83.7293 215.012 84 214.788C84.2707 214.564 84.588 214.387 84.952 214.256C85.3253 214.125 85.7593 214.06 86.254 214.06C86.7487 214.06 87.192 214.135 87.584 214.284C87.976 214.424 88.3027 214.625 88.564 214.886C88.8347 215.138 89.04 215.441 89.18 215.796C89.32 216.151 89.39 216.538 89.39 216.958C89.39 217.35 89.3293 217.714 89.208 218.05C89.0867 218.386 88.9187 218.703 88.704 219.002C88.4893 219.301 88.2373 219.585 87.948 219.856C87.668 220.127 87.3693 220.402 87.052 220.682L84.756 222.656H89.684V224Z" fill="#A9D3AB"/>
<path d="M314.727 182V180.684H317.471V173.376H317.359L315.091 175.798L314.125 174.93L316.617 172.228H319.025V180.684H321.405V182H314.727ZM323.342 182V180.684H326.086V173.376H325.974L323.706 175.798L322.74 174.93L325.232 172.228H327.64V180.684H330.02V182H323.342Z" fill="#A9D3AB"/>
<path d="M274.727 182V180.684H277.471V173.376H277.359L275.091 175.798L274.125 174.93L276.617 172.228H279.025V180.684H281.405V182H274.727ZM286.31 182.168C285.703 182.168 285.176 182.056 284.728 181.832C284.28 181.599 283.911 181.267 283.622 180.838C283.333 180.409 283.118 179.881 282.978 179.256C282.838 178.631 282.768 177.917 282.768 177.114C282.768 176.321 282.838 175.611 282.978 174.986C283.118 174.351 283.333 173.819 283.622 173.39C283.911 172.961 284.28 172.634 284.728 172.41C285.176 172.177 285.703 172.06 286.31 172.06C287.523 172.06 288.415 172.503 288.984 173.39C289.563 174.277 289.852 175.518 289.852 177.114C289.852 178.71 289.563 179.951 288.984 180.838C288.415 181.725 287.523 182.168 286.31 182.168ZM286.31 180.824C286.646 180.824 286.931 180.759 287.164 180.628C287.407 180.488 287.603 180.292 287.752 180.04C287.901 179.788 288.009 179.489 288.074 179.144C288.139 178.789 288.172 178.397 288.172 177.968V176.26C288.172 175.831 288.139 175.443 288.074 175.098C288.009 174.743 287.901 174.44 287.752 174.188C287.603 173.936 287.407 173.745 287.164 173.614C286.931 173.474 286.646 173.404 286.31 173.404C285.974 173.404 285.685 173.474 285.442 173.614C285.209 173.745 285.017 173.936 284.868 174.188C284.719 174.44 284.611 174.743 284.546 175.098C284.481 175.443 284.448 175.831 284.448 176.26V177.968C284.448 178.397 284.481 178.789 284.546 179.144C284.611 179.489 284.719 179.788 284.868 180.04C285.017 180.292 285.209 180.488 285.442 180.628C285.685 180.759 285.974 180.824 286.31 180.824Z" fill="#A9D3AB"/>
<path d="M245.419 175.868C245.419 176.577 245.311 177.245 245.097 177.87C244.882 178.495 244.607 179.069 244.271 179.592C243.935 180.115 243.557 180.581 243.137 180.992C242.726 181.403 242.32 181.739 241.919 182H239.819C240.369 181.599 240.864 181.211 241.303 180.838C241.741 180.465 242.124 180.082 242.451 179.69C242.777 179.298 243.048 178.883 243.263 178.444C243.487 178.005 243.659 177.525 243.781 177.002L243.683 176.974C243.58 177.17 243.459 177.357 243.319 177.534C243.188 177.702 243.029 177.851 242.843 177.982C242.665 178.113 242.46 178.215 242.227 178.29C241.993 178.365 241.723 178.402 241.415 178.402C241.004 178.402 240.621 178.332 240.267 178.192C239.921 178.052 239.618 177.851 239.357 177.59C239.105 177.319 238.904 177.002 238.755 176.638C238.615 176.265 238.545 175.845 238.545 175.378C238.545 174.893 238.624 174.445 238.783 174.034C238.951 173.623 239.184 173.273 239.483 172.984C239.781 172.695 240.141 172.471 240.561 172.312C240.981 172.144 241.452 172.06 241.975 172.06C242.516 172.06 242.997 172.149 243.417 172.326C243.846 172.503 244.205 172.76 244.495 173.096C244.793 173.423 245.022 173.819 245.181 174.286C245.339 174.753 245.419 175.28 245.419 175.868ZM241.975 177.128C242.544 177.128 242.987 176.979 243.305 176.68C243.622 176.372 243.781 175.924 243.781 175.336V175.14C243.781 174.552 243.622 174.109 243.305 173.81C242.987 173.502 242.544 173.348 241.975 173.348C241.405 173.348 240.962 173.502 240.645 173.81C240.327 174.109 240.169 174.552 240.169 175.14V175.336C240.169 175.924 240.327 176.372 240.645 176.68C240.962 176.979 241.405 177.128 241.975 177.128Z" fill="#A9D3AB"/>
<path d="M202.003 182.168C201.433 182.168 200.929 182.098 200.491 181.958C200.061 181.809 199.697 181.608 199.399 181.356C199.109 181.104 198.885 180.805 198.727 180.46C198.577 180.115 198.503 179.741 198.503 179.34C198.503 178.687 198.68 178.164 199.035 177.772C199.399 177.371 199.875 177.091 200.463 176.932V176.82C199.959 176.643 199.553 176.363 199.245 175.98C198.946 175.597 198.797 175.126 198.797 174.566C198.797 174.193 198.867 173.852 199.007 173.544C199.156 173.236 199.366 172.975 199.637 172.76C199.907 172.536 200.243 172.363 200.645 172.242C201.046 172.121 201.499 172.06 202.003 172.06C202.507 172.06 202.959 172.121 203.361 172.242C203.762 172.363 204.098 172.536 204.369 172.76C204.639 172.975 204.845 173.236 204.985 173.544C205.134 173.852 205.209 174.193 205.209 174.566C205.209 175.126 205.055 175.597 204.747 175.98C204.448 176.363 204.047 176.643 203.543 176.82V176.932C204.131 177.091 204.602 177.371 204.957 177.772C205.321 178.164 205.503 178.687 205.503 179.34C205.503 179.741 205.423 180.115 205.265 180.46C205.115 180.805 204.891 181.104 204.593 181.356C204.303 181.608 203.939 181.809 203.501 181.958C203.071 182.098 202.572 182.168 202.003 182.168ZM202.003 180.894C202.591 180.894 203.043 180.759 203.361 180.488C203.687 180.217 203.851 179.839 203.851 179.354V179.074C203.851 178.589 203.687 178.211 203.361 177.94C203.043 177.669 202.591 177.534 202.003 177.534C201.415 177.534 200.957 177.669 200.631 177.94C200.313 178.211 200.155 178.589 200.155 179.074V179.354C200.155 179.839 200.313 180.217 200.631 180.488C200.957 180.759 201.415 180.894 202.003 180.894ZM202.003 176.316C202.544 176.316 202.955 176.199 203.235 175.966C203.524 175.733 203.669 175.392 203.669 174.944V174.706C203.669 174.258 203.524 173.917 203.235 173.684C202.955 173.451 202.544 173.334 202.003 173.334C201.461 173.334 201.046 173.451 200.757 173.684C200.477 173.917 200.337 174.258 200.337 174.706V174.944C200.337 175.392 200.477 175.733 200.757 175.966C201.046 176.199 201.461 176.316 202.003 176.316Z" fill="#A9D3AB"/>
<path d="M160.197 182L163.739 173.53H160.043V175.336H158.685V172.228H165.307V173.6L161.863 182H160.197Z" fill="#A9D3AB"/>
<path d="M122.031 182.168C121.489 182.168 121.004 182.079 120.575 181.902C120.155 181.725 119.795 181.473 119.497 181.146C119.207 180.81 118.983 180.409 118.825 179.942C118.666 179.475 118.587 178.948 118.587 178.36C118.587 177.651 118.694 176.983 118.909 176.358C119.123 175.733 119.399 175.159 119.735 174.636C120.071 174.113 120.444 173.651 120.855 173.25C121.275 172.839 121.685 172.499 122.087 172.228H124.187C123.636 172.629 123.141 173.017 122.703 173.39C122.264 173.763 121.881 174.146 121.555 174.538C121.228 174.93 120.953 175.345 120.729 175.784C120.514 176.223 120.346 176.703 120.225 177.226L120.323 177.254C120.425 177.058 120.542 176.876 120.673 176.708C120.813 176.531 120.971 176.377 121.149 176.246C121.335 176.115 121.545 176.013 121.779 175.938C122.012 175.863 122.283 175.826 122.591 175.826C123.001 175.826 123.379 175.896 123.725 176.036C124.079 176.176 124.383 176.381 124.635 176.652C124.896 176.913 125.097 177.231 125.237 177.604C125.386 177.977 125.461 178.393 125.461 178.85C125.461 179.345 125.377 179.797 125.209 180.208C125.05 180.609 124.821 180.955 124.523 181.244C124.224 181.533 123.86 181.762 123.431 181.93C123.011 182.089 122.544 182.168 122.031 182.168ZM122.031 180.88C122.6 180.88 123.043 180.731 123.361 180.432C123.678 180.124 123.837 179.676 123.837 179.088V178.892C123.837 178.304 123.678 177.861 123.361 177.562C123.043 177.254 122.6 177.1 122.031 177.1C121.461 177.1 121.018 177.254 120.701 177.562C120.383 177.861 120.225 178.304 120.225 178.892V179.088C120.225 179.676 120.383 180.124 120.701 180.432C121.018 180.731 121.461 180.88 122.031 180.88Z" fill="#A9D3AB"/>
<path d="M84.9147 173.6H80.5747L80.3227 177.058H80.4207C80.5327 176.862 80.6494 176.689 80.7707 176.54C80.8921 176.381 81.0321 176.246 81.1907 176.134C81.3494 176.022 81.5314 175.938 81.7367 175.882C81.9421 175.817 82.1847 175.784 82.4647 175.784C82.8847 175.784 83.2721 175.854 83.6267 175.994C83.9907 176.134 84.3034 176.335 84.5647 176.596C84.8354 176.857 85.0454 177.179 85.1947 177.562C85.3441 177.935 85.4187 178.36 85.4187 178.836C85.4187 179.321 85.3394 179.769 85.1807 180.18C85.0314 180.591 84.8074 180.945 84.5087 181.244C84.2101 181.533 83.8414 181.762 83.4027 181.93C82.9734 182.089 82.4834 182.168 81.9327 182.168C81.4941 182.168 81.1067 182.117 80.7707 182.014C80.4347 181.921 80.1361 181.795 79.8747 181.636C79.6227 181.468 79.3987 181.281 79.2027 181.076C79.0161 180.861 78.8481 180.642 78.6987 180.418L79.8467 179.508C79.9681 179.704 80.0941 179.881 80.2247 180.04C80.3554 180.199 80.5047 180.339 80.6727 180.46C80.8407 180.581 81.0274 180.675 81.2327 180.74C81.4474 180.805 81.6901 180.838 81.9607 180.838C82.5394 180.838 82.9827 180.679 83.2907 180.362C83.6081 180.045 83.7667 179.606 83.7667 179.046V178.878C83.7667 178.318 83.6081 177.879 83.2907 177.562C82.9827 177.245 82.5394 177.086 81.9607 177.086C81.5407 177.086 81.2047 177.165 80.9527 177.324C80.7007 177.483 80.4861 177.66 80.3087 177.856L79.0067 177.674L79.3707 172.228H84.9147V173.6Z" fill="#A9D3AB"/>
<path d="M322.829 140V138.096H318.293V136.738L322.255 130.228H324.327V136.85H325.657V138.096H324.327V140H322.829ZM319.637 136.85H322.829V131.67H322.731L319.637 136.85Z" fill="#A9D3AB"/>
<path d="M281.471 134.246C282.077 134.246 282.525 134.12 282.815 133.868C283.104 133.607 283.249 133.275 283.249 132.874V132.776C283.249 132.328 283.109 131.987 282.829 131.754C282.549 131.511 282.171 131.39 281.695 131.39C281.228 131.39 280.831 131.497 280.505 131.712C280.178 131.917 279.903 132.207 279.679 132.58L278.629 131.67C278.778 131.455 278.946 131.25 279.133 131.054C279.319 130.858 279.539 130.69 279.791 130.55C280.043 130.401 280.327 130.284 280.645 130.2C280.962 130.107 281.326 130.06 281.737 130.06C282.194 130.06 282.619 130.116 283.011 130.228C283.403 130.34 283.739 130.508 284.019 130.732C284.299 130.947 284.518 131.213 284.677 131.53C284.835 131.838 284.915 132.188 284.915 132.58C284.915 132.888 284.863 133.168 284.761 133.42C284.667 133.672 284.532 133.896 284.355 134.092C284.187 134.279 283.986 134.433 283.753 134.554C283.529 134.675 283.291 134.764 283.039 134.82V134.89C283.319 134.946 283.58 135.039 283.823 135.17C284.075 135.291 284.294 135.455 284.481 135.66C284.667 135.856 284.812 136.094 284.915 136.374C285.027 136.645 285.083 136.957 285.083 137.312C285.083 137.741 284.999 138.133 284.831 138.488C284.663 138.833 284.425 139.132 284.117 139.384C283.818 139.636 283.454 139.832 283.025 139.972C282.595 140.103 282.119 140.168 281.597 140.168C281.139 140.168 280.738 140.117 280.393 140.014C280.047 139.921 279.739 139.795 279.469 139.636C279.207 139.468 278.974 139.281 278.769 139.076C278.573 138.861 278.4 138.642 278.251 138.418L279.413 137.508C279.534 137.704 279.66 137.886 279.791 138.054C279.931 138.213 280.085 138.353 280.253 138.474C280.43 138.586 280.626 138.675 280.841 138.74C281.065 138.805 281.317 138.838 281.597 138.838C282.194 138.838 282.651 138.698 282.969 138.418C283.286 138.129 283.445 137.732 283.445 137.228V137.13C283.445 136.626 283.277 136.243 282.941 135.982C282.605 135.721 282.129 135.59 281.513 135.59H280.477V134.246H281.471Z" fill="#A9D3AB"/>
<circle cx="242" cy="135" r="16" fill="#009BA7" fill-opacity="0.51"/>
<circle cx="242" cy="135" r="15" stroke="#009BA7" stroke-opacity="0.82" stroke-width="2"/>
<path d="M245.377 140H238.741V138.488L241.863 135.702C242.357 135.254 242.735 134.829 242.997 134.428C243.267 134.017 243.403 133.588 243.403 133.14V132.958C243.403 132.482 243.258 132.109 242.969 131.838C242.689 131.567 242.306 131.432 241.821 131.432C241.55 131.432 241.312 131.474 241.107 131.558C240.911 131.633 240.738 131.74 240.589 131.88C240.439 132.02 240.313 132.183 240.211 132.37C240.117 132.557 240.043 132.757 239.987 132.972L238.601 132.44C238.703 132.132 238.843 131.838 239.021 131.558C239.198 131.269 239.422 131.012 239.693 130.788C239.963 130.564 240.281 130.387 240.645 130.256C241.018 130.125 241.452 130.06 241.947 130.06C242.441 130.06 242.885 130.135 243.277 130.284C243.669 130.424 243.995 130.625 244.257 130.886C244.527 131.138 244.733 131.441 244.873 131.796C245.013 132.151 245.083 132.538 245.083 132.958C245.083 133.35 245.022 133.714 244.901 134.05C244.779 134.386 244.611 134.703 244.397 135.002C244.182 135.301 243.93 135.585 243.641 135.856C243.361 136.127 243.062 136.402 242.745 136.682L240.449 138.656H245.377V140Z" fill="#009BA7"/>
<path d="M199.035 140V138.684H201.779V131.376H201.667L199.399 133.798L198.433 132.93L200.925 130.228H203.333V138.684H205.713V140H199.035Z" fill="white" fill-opacity="0.47"/>
<path d="M157.163 134.246C157.77 134.246 158.218 134.12 158.507 133.868C158.797 133.607 158.941 133.275 158.941 132.874V132.776C158.941 132.328 158.801 131.987 158.521 131.754C158.241 131.511 157.863 131.39 157.387 131.39C156.921 131.39 156.524 131.497 156.197 131.712C155.871 131.917 155.595 132.207 155.371 132.58L154.321 131.67C154.471 131.455 154.639 131.25 154.825 131.054C155.012 130.858 155.231 130.69 155.483 130.55C155.735 130.401 156.02 130.284 156.337 130.2C156.655 130.107 157.019 130.06 157.429 130.06C157.887 130.06 158.311 130.116 158.703 130.228C159.095 130.34 159.431 130.508 159.711 130.732C159.991 130.947 160.211 131.213 160.369 131.53C160.528 131.838 160.607 132.188 160.607 132.58C160.607 132.888 160.556 133.168 160.453 133.42C160.36 133.672 160.225 133.896 160.047 134.092C159.879 134.279 159.679 134.433 159.445 134.554C159.221 134.675 158.983 134.764 158.731 134.82V134.89C159.011 134.946 159.273 135.039 159.515 135.17C159.767 135.291 159.987 135.455 160.173 135.66C160.36 135.856 160.505 136.094 160.607 136.374C160.719 136.645 160.775 136.957 160.775 137.312C160.775 137.741 160.691 138.133 160.523 138.488C160.355 138.833 160.117 139.132 159.809 139.384C159.511 139.636 159.147 139.832 158.717 139.972C158.288 140.103 157.812 140.168 157.289 140.168C156.832 140.168 156.431 140.117 156.085 140.014C155.74 139.921 155.432 139.795 155.161 139.636C154.9 139.468 154.667 139.281 154.461 139.076C154.265 138.861 154.093 138.642 153.943 138.418L155.105 137.508C155.227 137.704 155.353 137.886 155.483 138.054C155.623 138.213 155.777 138.353 155.945 138.474C156.123 138.586 156.319 138.675 156.533 138.74C156.757 138.805 157.009 138.838 157.289 138.838C157.887 138.838 158.344 138.698 158.661 138.418C158.979 138.129 159.137 137.732 159.137 137.228V137.13C159.137 136.626 158.969 136.243 158.633 135.982C158.297 135.721 157.821 135.59 157.205 135.59H156.169V134.246H157.163ZM166.31 140.168C165.703 140.168 165.176 140.056 164.728 139.832C164.28 139.599 163.911 139.267 163.622 138.838C163.333 138.409 163.118 137.881 162.978 137.256C162.838 136.631 162.768 135.917 162.768 135.114C162.768 134.321 162.838 133.611 162.978 132.986C163.118 132.351 163.333 131.819 163.622 131.39C163.911 130.961 164.28 130.634 164.728 130.41C165.176 130.177 165.703 130.06 166.31 130.06C167.523 130.06 168.415 130.503 168.984 131.39C169.563 132.277 169.852 133.518 169.852 135.114C169.852 136.71 169.563 137.951 168.984 138.838C168.415 139.725 167.523 140.168 166.31 140.168ZM166.31 138.824C166.646 138.824 166.931 138.759 167.164 138.628C167.407 138.488 167.603 138.292 167.752 138.04C167.901 137.788 168.009 137.489 168.074 137.144C168.139 136.789 168.172 136.397 168.172 135.968V134.26C168.172 133.831 168.139 133.443 168.074 133.098C168.009 132.743 167.901 132.44 167.752 132.188C167.603 131.936 167.407 131.745 167.164 131.614C166.931 131.474 166.646 131.404 166.31 131.404C165.974 131.404 165.685 131.474 165.442 131.614C165.209 131.745 165.017 131.936 164.868 132.188C164.719 132.44 164.611 132.743 164.546 133.098C164.481 133.443 164.448 133.831 164.448 134.26V135.968C164.448 136.397 164.481 136.789 164.546 137.144C164.611 137.489 164.719 137.788 164.868 138.04C165.017 138.292 165.209 138.488 165.442 138.628C165.685 138.759 165.974 138.824 166.31 138.824Z" fill="white"/>
<path d="M121.069 140H114.433V138.488L117.555 135.702C118.05 135.254 118.428 134.829 118.689 134.428C118.96 134.017 119.095 133.588 119.095 133.14V132.958C119.095 132.482 118.951 132.109 118.661 131.838C118.381 131.567 117.999 131.432 117.513 131.432C117.243 131.432 117.005 131.474 116.799 131.558C116.603 131.633 116.431 131.74 116.281 131.88C116.132 132.02 116.006 132.183 115.903 132.37C115.81 132.557 115.735 132.757 115.679 132.972L114.293 132.44C114.396 132.132 114.536 131.838 114.713 131.558C114.891 131.269 115.115 131.012 115.385 130.788C115.656 130.564 115.973 130.387 116.337 130.256C116.711 130.125 117.145 130.06 117.639 130.06C118.134 130.06 118.577 130.135 118.969 130.284C119.361 130.424 119.688 130.625 119.949 130.886C120.22 131.138 120.425 131.441 120.565 131.796C120.705 132.151 120.775 132.538 120.775 132.958C120.775 133.35 120.715 133.714 120.593 134.05C120.472 134.386 120.304 134.703 120.089 135.002C119.875 135.301 119.623 135.585 119.333 135.856C119.053 136.127 118.755 136.402 118.437 136.682L116.141 138.656H121.069V140ZM129.726 133.868C129.726 134.577 129.619 135.245 129.404 135.87C129.189 136.495 128.914 137.069 128.578 137.592C128.242 138.115 127.864 138.581 127.444 138.992C127.033 139.403 126.627 139.739 126.226 140H124.126C124.677 139.599 125.171 139.211 125.61 138.838C126.049 138.465 126.431 138.082 126.758 137.69C127.085 137.298 127.355 136.883 127.57 136.444C127.794 136.005 127.967 135.525 128.088 135.002L127.99 134.974C127.887 135.17 127.766 135.357 127.626 135.534C127.495 135.702 127.337 135.851 127.15 135.982C126.973 136.113 126.767 136.215 126.534 136.29C126.301 136.365 126.03 136.402 125.722 136.402C125.311 136.402 124.929 136.332 124.574 136.192C124.229 136.052 123.925 135.851 123.664 135.59C123.412 135.319 123.211 135.002 123.062 134.638C122.922 134.265 122.852 133.845 122.852 133.378C122.852 132.893 122.931 132.445 123.09 132.034C123.258 131.623 123.491 131.273 123.79 130.984C124.089 130.695 124.448 130.471 124.868 130.312C125.288 130.144 125.759 130.06 126.282 130.06C126.823 130.06 127.304 130.149 127.724 130.326C128.153 130.503 128.513 130.76 128.802 131.096C129.101 131.423 129.329 131.819 129.488 132.286C129.647 132.753 129.726 133.28 129.726 133.868ZM126.282 135.128C126.851 135.128 127.295 134.979 127.612 134.68C127.929 134.372 128.088 133.924 128.088 133.336V133.14C128.088 132.552 127.929 132.109 127.612 131.81C127.295 131.502 126.851 131.348 126.282 131.348C125.713 131.348 125.269 131.502 124.952 131.81C124.635 132.109 124.476 132.552 124.476 133.14V133.336C124.476 133.924 124.635 134.372 124.952 134.68C125.269 134.979 125.713 135.128 126.282 135.128Z" fill="white"/>
<path d="M81.0695 140H74.4335V138.488L77.5555 135.702C78.0501 135.254 78.4281 134.829 78.6895 134.428C78.9601 134.017 79.0955 133.588 79.0955 133.14V132.958C79.0955 132.482 78.9508 132.109 78.6615 131.838C78.3815 131.567 77.9988 131.432 77.5135 131.432C77.2428 131.432 77.0048 131.474 76.7995 131.558C76.6035 131.633 76.4308 131.74 76.2815 131.88C76.1321 132.02 76.0061 132.183 75.9035 132.37C75.8101 132.557 75.7355 132.757 75.6795 132.972L74.2935 132.44C74.3961 132.132 74.5361 131.838 74.7135 131.558C74.8908 131.269 75.1148 131.012 75.3855 130.788C75.6561 130.564 75.9735 130.387 76.3375 130.256C76.7108 130.125 77.1448 130.06 77.6395 130.06C78.1341 130.06 78.5775 130.135 78.9695 130.284C79.3615 130.424 79.6881 130.625 79.9495 130.886C80.2201 131.138 80.4255 131.441 80.5655 131.796C80.7055 132.151 80.7755 132.538 80.7755 132.958C80.7755 133.35 80.7148 133.714 80.5935 134.05C80.4721 134.386 80.3041 134.703 80.0895 135.002C79.8748 135.301 79.6228 135.585 79.3335 135.856C79.0535 136.127 78.7548 136.402 78.4375 136.682L76.1415 138.656H81.0695V140ZM86.31 140.168C85.7407 140.168 85.2367 140.098 84.798 139.958C84.3687 139.809 84.0047 139.608 83.706 139.356C83.4167 139.104 83.1927 138.805 83.034 138.46C82.8847 138.115 82.81 137.741 82.81 137.34C82.81 136.687 82.9873 136.164 83.342 135.772C83.706 135.371 84.182 135.091 84.77 134.932V134.82C84.266 134.643 83.86 134.363 83.552 133.98C83.2533 133.597 83.104 133.126 83.104 132.566C83.104 132.193 83.174 131.852 83.314 131.544C83.4633 131.236 83.6733 130.975 83.944 130.76C84.2147 130.536 84.5507 130.363 84.952 130.242C85.3533 130.121 85.806 130.06 86.31 130.06C86.814 130.06 87.2667 130.121 87.668 130.242C88.0693 130.363 88.4053 130.536 88.676 130.76C88.9467 130.975 89.152 131.236 89.292 131.544C89.4413 131.852 89.516 132.193 89.516 132.566C89.516 133.126 89.362 133.597 89.054 133.98C88.7553 134.363 88.354 134.643 87.85 134.82V134.932C88.438 135.091 88.9093 135.371 89.264 135.772C89.628 136.164 89.81 136.687 89.81 137.34C89.81 137.741 89.7307 138.115 89.572 138.46C89.4227 138.805 89.1987 139.104 88.9 139.356C88.6107 139.608 88.2467 139.809 87.808 139.958C87.3787 140.098 86.8793 140.168 86.31 140.168ZM86.31 138.894C86.898 138.894 87.3507 138.759 87.668 138.488C87.9947 138.217 88.158 137.839 88.158 137.354V137.074C88.158 136.589 87.9947 136.211 87.668 135.94C87.3507 135.669 86.898 135.534 86.31 135.534C85.722 135.534 85.2647 135.669 84.938 135.94C84.6207 136.211 84.462 136.589 84.462 137.074V137.354C84.462 137.839 84.6207 138.217 84.938 138.488C85.2647 138.759 85.722 138.894 86.31 138.894ZM86.31 134.316C86.8513 134.316 87.262 134.199 87.542 133.966C87.8313 133.733 87.976 133.392 87.976 132.944V132.706C87.976 132.258 87.8313 131.917 87.542 131.684C87.262 131.451 86.8513 131.334 86.31 131.334C85.7687 131.334 85.3533 131.451 85.064 131.684C84.784 131.917 84.644 132.258 84.644 132.706V132.944C84.644 133.392 84.784 133.733 85.064 133.966C85.3533 134.199 85.7687 134.316 86.31 134.316Z" fill="white"/>
<path d="M314.394 99.12C313.781 99.12 313.261 99.0167 312.834 98.81C312.408 98.5967 312.044 98.3233 311.744 97.99L312.744 96.98C313.218 97.5133 313.801 97.78 314.494 97.78C314.868 97.78 315.144 97.7033 315.324 97.55C315.504 97.3967 315.594 97.1933 315.594 96.94C315.594 96.7467 315.541 96.5867 315.434 96.46C315.328 96.3267 315.111 96.2367 314.784 96.19L314.094 96.1C313.354 96.0067 312.811 95.7833 312.464 95.43C312.124 95.0767 311.954 94.6067 311.954 94.02C311.954 93.7067 312.014 93.42 312.134 93.16C312.254 92.9 312.424 92.6767 312.644 92.49C312.871 92.3033 313.144 92.16 313.464 92.06C313.791 91.9533 314.161 91.9 314.574 91.9C315.101 91.9 315.564 91.9833 315.964 92.15C316.364 92.3167 316.708 92.56 316.994 92.88L315.984 93.9C315.818 93.7067 315.614 93.55 315.374 93.43C315.141 93.3033 314.844 93.24 314.484 93.24C314.144 93.24 313.891 93.3 313.724 93.42C313.558 93.54 313.474 93.7067 313.474 93.92C313.474 94.16 313.538 94.3333 313.664 94.44C313.798 94.5467 314.011 94.6233 314.304 94.67L314.994 94.78C315.714 94.8933 316.248 95.1167 316.594 95.45C316.941 95.7767 317.114 96.2433 317.114 96.85C317.114 97.1833 317.054 97.49 316.934 97.77C316.814 98.05 316.638 98.29 316.404 98.49C316.178 98.69 315.894 98.8467 315.554 98.96C315.214 99.0667 314.828 99.12 314.394 99.12ZM324.174 99L323.674 97.34H321.344L320.844 99H319.304L321.604 92.02H323.484L325.754 99H324.174ZM322.524 93.4H322.474L321.704 96.05H323.304L322.524 93.4ZM330.476 93.37V99H328.956V93.37H327.066V92.02H332.366V93.37H330.476Z" fill="#EEECF1"/>
<path d="M272.818 99V92.02H277.448V93.37H274.338V94.8H276.988V96.14H274.338V99H272.818ZM281.687 99H280.167V92.02H283.477C283.797 92.02 284.087 92.0733 284.347 92.18C284.607 92.2867 284.827 92.44 285.007 92.64C285.194 92.8333 285.337 93.0667 285.437 93.34C285.537 93.6133 285.587 93.9167 285.587 94.25C285.587 94.7233 285.481 95.1367 285.267 95.49C285.061 95.8433 284.744 96.1 284.317 96.26L285.687 99H283.997L282.777 96.44H281.687V99ZM283.287 95.16C283.514 95.16 283.691 95.1033 283.817 94.99C283.951 94.87 284.017 94.6967 284.017 94.47V94.03C284.017 93.8033 283.951 93.6333 283.817 93.52C283.691 93.4 283.514 93.34 283.287 93.34H281.687V95.16H283.287ZM288.136 99V97.79H289.036V93.23H288.136V92.02H291.456V93.23H290.556V97.79H291.456V99H288.136Z" fill="#EEECF1"/>
<path d="M234.17 93.37V99H232.65V93.37H230.76V92.02H236.06V93.37H234.17ZM242.78 96.14H240.12V99H238.6V92.02H240.12V94.8H242.78V92.02H244.3V99H242.78V96.14ZM248.776 92.02V96.3C248.776 96.7933 248.873 97.1633 249.066 97.41C249.26 97.65 249.583 97.77 250.036 97.77C250.49 97.77 250.813 97.65 251.006 97.41C251.2 97.1633 251.296 96.7933 251.296 96.3V92.02H252.776V96.14C252.776 96.6533 252.726 97.1 252.626 97.48C252.533 97.8533 252.376 98.1633 252.156 98.41C251.936 98.65 251.653 98.83 251.306 98.95C250.96 99.0633 250.536 99.12 250.036 99.12C249.536 99.12 249.113 99.0633 248.766 98.95C248.42 98.83 248.136 98.65 247.916 98.41C247.696 98.1633 247.536 97.8533 247.436 97.48C247.343 97.1 247.296 96.6533 247.296 96.14V92.02H248.776Z" fill="#EEECF1"/>
<path d="M190.983 99L189.403 92.02H190.903L191.563 95.37L191.933 97.31H191.963L192.403 95.37L193.173 92.02H194.833L195.613 95.37L196.043 97.31H196.073L196.443 95.37L197.113 92.02H198.553L196.933 99H195.203L194.323 95.22L193.983 93.69H193.953L193.603 95.22L192.723 99H190.983ZM201.11 99V92.02H205.86V93.37H202.63V94.8H205.4V96.14H202.63V97.65H205.86V99H201.11ZM208.684 92.02H211.314C211.774 92.02 212.194 92.0933 212.574 92.24C212.954 92.3867 213.277 92.6067 213.544 92.9C213.811 93.1867 214.017 93.55 214.164 93.99C214.311 94.4233 214.384 94.93 214.384 95.51C214.384 96.09 214.311 96.6 214.164 97.04C214.017 97.4733 213.811 97.8367 213.544 98.13C213.277 98.4167 212.954 98.6333 212.574 98.78C212.194 98.9267 211.774 99 211.314 99H208.684V92.02ZM211.314 97.65C211.767 97.65 212.124 97.5233 212.384 97.27C212.644 97.0167 212.774 96.61 212.774 96.05V94.97C212.774 94.41 212.644 94.0033 212.384 93.75C212.124 93.4967 211.767 93.37 211.314 93.37H210.204V97.65H211.314Z" fill="#EEECF1"/>
<path d="M154.751 93.37V99H153.231V93.37H151.341V92.02H156.641V93.37H154.751ZM160.621 92.02V96.3C160.621 96.7933 160.718 97.1633 160.911 97.41C161.104 97.65 161.428 97.77 161.881 97.77C162.334 97.77 162.658 97.65 162.851 97.41C163.044 97.1633 163.141 96.7933 163.141 96.3V92.02H164.621V96.14C164.621 96.6533 164.571 97.1 164.471 97.48C164.378 97.8533 164.221 98.1633 164.001 98.41C163.781 98.65 163.498 98.83 163.151 98.95C162.804 99.0633 162.381 99.12 161.881 99.12C161.381 99.12 160.958 99.0633 160.611 98.95C160.264 98.83 159.981 98.65 159.761 98.41C159.541 98.1633 159.381 97.8533 159.281 97.48C159.188 97.1 159.141 96.6533 159.141 96.14V92.02H160.621ZM167.624 99V92.02H172.374V93.37H169.144V94.8H171.914V96.14H169.144V97.65H172.374V99H167.624Z" fill="#EEECF1"/>
<path d="M115.206 94.42H115.176L114.666 95.44L113.306 97.91L111.976 95.45L111.446 94.35H111.416V99H109.986V92.02H111.596L113.306 95.29H113.326L115.016 92.02H116.636V99H115.206V94.42ZM122.479 99.12C122.019 99.12 121.599 99.0433 121.219 98.89C120.839 98.7367 120.516 98.51 120.249 98.21C119.983 97.9033 119.776 97.5267 119.629 97.08C119.483 96.6267 119.409 96.1033 119.409 95.51C119.409 94.9167 119.483 94.3967 119.629 93.95C119.776 93.4967 119.983 93.12 120.249 92.82C120.516 92.5133 120.839 92.2833 121.219 92.13C121.599 91.9767 122.019 91.9 122.479 91.9C122.939 91.9 123.359 91.9767 123.739 92.13C124.119 92.2833 124.443 92.5133 124.709 92.82C124.976 93.12 125.183 93.4967 125.329 93.95C125.476 94.3967 125.549 94.9167 125.549 95.51C125.549 96.1033 125.476 96.6267 125.329 97.08C125.183 97.5267 124.976 97.9033 124.709 98.21C124.443 98.51 124.119 98.7367 123.739 98.89C123.359 99.0433 122.939 99.12 122.479 99.12ZM122.479 97.77C122.939 97.77 123.296 97.62 123.549 97.32C123.809 97.02 123.939 96.59 123.939 96.03V94.99C123.939 94.43 123.809 94 123.549 93.7C123.296 93.4 122.939 93.25 122.479 93.25C122.019 93.25 121.659 93.4 121.399 93.7C121.146 94 121.019 94.43 121.019 94.99V96.03C121.019 96.59 121.146 97.02 121.399 97.32C121.659 97.62 122.019 97.77 122.479 97.77ZM130.448 95.7L129.778 94.3H129.748V99H128.318V92.02H129.978L131.888 95.32L132.558 96.72H132.588V92.02H134.018V99H132.358L130.448 95.7Z" fill="#EEECF1"/>
<path d="M73.32 99.12C72.7067 99.12 72.1867 99.0167 71.76 98.81C71.3334 98.5967 70.97 98.3233 70.67 97.99L71.67 96.98C72.1434 97.5133 72.7267 97.78 73.42 97.78C73.7934 97.78 74.07 97.7033 74.25 97.55C74.43 97.3967 74.52 97.1933 74.52 96.94C74.52 96.7467 74.4667 96.5867 74.36 96.46C74.2534 96.3267 74.0367 96.2367 73.71 96.19L73.02 96.1C72.28 96.0067 71.7367 95.7833 71.39 95.43C71.05 95.0767 70.88 94.6067 70.88 94.02C70.88 93.7067 70.94 93.42 71.06 93.16C71.18 92.9 71.35 92.6767 71.57 92.49C71.7967 92.3033 72.07 92.16 72.39 92.06C72.7167 91.9533 73.0867 91.9 73.5 91.9C74.0267 91.9 74.49 91.9833 74.89 92.15C75.29 92.3167 75.6334 92.56 75.92 92.88L74.91 93.9C74.7434 93.7067 74.54 93.55 74.3 93.43C74.0667 93.3033 73.77 93.24 73.41 93.24C73.07 93.24 72.8167 93.3 72.65 93.42C72.4834 93.54 72.4 93.7067 72.4 93.92C72.4 94.16 72.4634 94.3333 72.59 94.44C72.7234 94.5467 72.9367 94.6233 73.23 94.67L73.92 94.78C74.64 94.8933 75.1734 95.1167 75.52 95.45C75.8667 95.7767 76.04 96.2433 76.04 96.85C76.04 97.1833 75.98 97.49 75.86 97.77C75.74 98.05 75.5634 98.29 75.33 98.49C75.1034 98.69 74.82 98.8467 74.48 98.96C74.14 99.0667 73.7534 99.12 73.32 99.12ZM80.2403 92.02V96.3C80.2403 96.7933 80.3369 97.1633 80.5303 97.41C80.7236 97.65 81.0469 97.77 81.5003 97.77C81.9536 97.77 82.2769 97.65 82.4703 97.41C82.6636 97.1633 82.7603 96.7933 82.7603 96.3V92.02H84.2403V96.14C84.2403 96.6533 84.1903 97.1 84.0903 97.48C83.9969 97.8533 83.8403 98.1633 83.6203 98.41C83.4003 98.65 83.1169 98.83 82.7703 98.95C82.4236 99.0633 82.0003 99.12 81.5003 99.12C81.0003 99.12 80.5769 99.0633 80.2303 98.95C79.8836 98.83 79.6003 98.65 79.3803 98.41C79.1603 98.1633 79.0003 97.8533 78.9003 97.48C78.8069 97.1 78.7603 96.6533 78.7603 96.14V92.02H80.2403ZM89.3736 95.7L88.7036 94.3H88.6736V99H87.2436V92.02H88.9036L90.8136 95.32L91.4836 96.72H91.5136V92.02H92.9436V99H91.2836L89.3736 95.7Z" fill="#EEECF1"/>
<path d="M175.915 57.592H175.835L174.891 59.464L172.219 64.328L169.547 59.464L168.603 57.592H168.523V67H167.211V55.832H169.003L172.203 61.848H172.283L175.499 55.832H177.227V67H175.915V57.592ZM186.187 67C185.707 67 185.361 66.872 185.147 66.616C184.945 66.36 184.817 66.04 184.763 65.656H184.683C184.502 66.168 184.203 66.552 183.787 66.808C183.371 67.064 182.875 67.192 182.299 67.192C181.425 67.192 180.742 66.968 180.251 66.52C179.771 66.072 179.531 65.464 179.531 64.696C179.531 63.9173 179.814 63.32 180.379 62.904C180.955 62.488 181.846 62.28 183.051 62.28H184.683V61.464C184.683 60.8773 184.523 60.4293 184.203 60.12C183.883 59.8107 183.393 59.656 182.731 59.656C182.23 59.656 181.809 59.768 181.467 59.992C181.137 60.216 180.859 60.5147 180.635 60.888L179.867 60.168C180.091 59.72 180.449 59.3413 180.939 59.032C181.43 58.712 182.049 58.552 182.795 58.552C183.798 58.552 184.577 58.7973 185.131 59.288C185.686 59.7787 185.963 60.4613 185.963 61.336V65.88H186.907V67H186.187ZM182.507 66.104C182.827 66.104 183.121 66.0667 183.387 65.992C183.654 65.9173 183.883 65.8107 184.075 65.672C184.267 65.5333 184.417 65.3733 184.523 65.192C184.63 65.0107 184.683 64.8133 184.683 64.6V63.24H182.987C182.251 63.24 181.713 63.3467 181.371 63.56C181.041 63.7733 180.875 64.0827 180.875 64.488V64.824C180.875 65.2293 181.019 65.544 181.307 65.768C181.606 65.992 182.006 66.104 182.507 66.104ZM193.864 58.744H195.128L191.432 68.92C191.336 69.1653 191.24 69.368 191.144 69.528C191.048 69.6987 190.931 69.832 190.792 69.928C190.654 70.024 190.478 70.0933 190.264 70.136C190.062 70.1787 189.811 70.2 189.512 70.2H188.856V69.08H190.152L190.776 67.32L187.688 58.744H188.968L190.952 64.36L191.336 65.704H191.416L191.864 64.36L193.864 58.744ZM207.95 67H200.622V65.624L204.27 62.264C204.793 61.784 205.23 61.2773 205.582 60.744C205.934 60.2 206.11 59.656 206.11 59.112V58.92C206.11 58.3013 205.939 57.8 205.598 57.416C205.257 57.032 204.739 56.84 204.046 56.84C203.705 56.84 203.406 56.888 203.15 56.984C202.894 57.08 202.67 57.2133 202.478 57.384C202.297 57.5547 202.142 57.7573 202.014 57.992C201.897 58.216 201.801 58.4613 201.726 58.728L200.526 58.264C200.633 57.9333 200.777 57.6133 200.958 57.304C201.15 56.984 201.385 56.7013 201.662 56.456C201.95 56.2107 202.291 56.0133 202.686 55.864C203.091 55.7147 203.566 55.64 204.11 55.64C204.654 55.64 205.139 55.72 205.566 55.88C205.993 56.04 206.35 56.264 206.638 56.552C206.926 56.84 207.145 57.1813 207.294 57.576C207.454 57.9707 207.534 58.408 207.534 58.888C207.534 59.3253 207.47 59.7307 207.342 60.104C207.225 60.4773 207.059 60.8347 206.846 61.176C206.633 61.5067 206.371 61.832 206.062 62.152C205.763 62.472 205.438 62.792 205.086 63.112L202.078 65.816H207.95V67ZM213.936 67.192C212.602 67.192 211.626 66.6853 211.008 65.672C210.4 64.6587 210.096 63.24 210.096 61.416C210.096 59.592 210.4 58.1733 211.008 57.16C211.626 56.1467 212.602 55.64 213.936 55.64C215.269 55.64 216.24 56.1467 216.848 57.16C217.466 58.1733 217.776 59.592 217.776 61.416C217.776 63.24 217.466 64.6587 216.848 65.672C216.24 66.6853 215.269 67.192 213.936 67.192ZM213.936 66.024C214.373 66.024 214.746 65.9333 215.056 65.752C215.365 65.5707 215.616 65.3147 215.808 64.984C216 64.6533 216.138 64.264 216.224 63.816C216.32 63.368 216.368 62.872 216.368 62.328V60.504C216.368 59.96 216.32 59.464 216.224 59.016C216.138 58.568 216 58.1787 215.808 57.848C215.616 57.5173 215.365 57.2613 215.056 57.08C214.746 56.8987 214.373 56.808 213.936 56.808C213.498 56.808 213.125 56.8987 212.816 57.08C212.506 57.2613 212.256 57.5173 212.064 57.848C211.872 58.1787 211.728 58.568 211.632 59.016C211.546 59.464 211.504 59.96 211.504 60.504V62.328C211.504 62.872 211.546 63.368 211.632 63.816C211.728 64.264 211.872 64.6533 212.064 64.984C212.256 65.3147 212.506 65.5707 212.816 65.752C213.125 65.9333 213.498 66.024 213.936 66.024ZM220.257 67V65.816H223.377V56.824H223.265L220.449 59.448L219.665 58.6L222.625 55.832H224.721V65.816H227.601V67H220.257ZM237.091 59.928C237.091 60.76 236.968 61.544 236.723 62.28C236.478 63.0053 236.158 63.672 235.763 64.28C235.379 64.8773 234.952 65.4107 234.483 65.88C234.014 66.3387 233.555 66.712 233.107 67H231.379C231.976 66.5627 232.51 66.136 232.979 65.72C233.448 65.304 233.859 64.872 234.211 64.424C234.563 63.9653 234.862 63.48 235.107 62.968C235.352 62.4453 235.55 61.8587 235.699 61.208L235.619 61.176C235.352 61.6347 235.006 62.0187 234.579 62.328C234.163 62.6267 233.614 62.776 232.931 62.776C232.451 62.776 232.008 62.696 231.603 62.536C231.198 62.376 230.851 62.1467 230.563 61.848C230.275 61.5493 230.046 61.192 229.875 60.776C229.715 60.3493 229.635 59.8693 229.635 59.336C229.635 58.792 229.72 58.296 229.891 57.848C230.072 57.3893 230.323 57 230.643 56.68C230.974 56.3493 231.363 56.0933 231.811 55.912C232.27 55.7307 232.782 55.64 233.347 55.64C233.923 55.64 234.44 55.7413 234.899 55.944C235.368 56.136 235.763 56.4187 236.083 56.792C236.414 57.1547 236.664 57.6027 236.835 58.136C237.006 58.6693 237.091 59.2667 237.091 59.928ZM233.363 61.64C234.099 61.64 234.67 61.4373 235.075 61.032C235.491 60.6267 235.699 60.0453 235.699 59.288V59.16C235.699 58.4027 235.491 57.8213 235.075 57.416C234.67 57.0107 234.099 56.808 233.363 56.808C232.627 56.808 232.051 57.0107 231.635 57.416C231.23 57.8213 231.027 58.4027 231.027 59.16V59.288C231.027 60.0453 231.23 60.6267 231.635 61.032C232.051 61.4373 232.627 61.64 233.363 61.64Z" fill="#EEECF1"/>
</svg>
