<?xml version="1.0"?>
<svg xmlns="http://www.w3.org/2000/svg" xmlns:xlink="http://www.w3.org/1999/xlink" xmlns:svgjs="http://svgjs.com/svgjs" version="1.1" width="512" height="512" x="0" y="0" viewBox="0 0 485.44 485.44" style="enable-background:new 0 0 512 512" xml:space="preserve" class=""><g transform="matrix(0.9999999999999998,0,0,0.9999999999999998,2.842170943040401e-14,8.526512829121202e-14)">
<g xmlns="http://www.w3.org/2000/svg" transform="translate(0 -540.36)">
	<g>
		<g>
			<path d="M478.6,838.752L478.6,838.752c3-1,5.3-3.3,6.3-6.2c1-3,0.6-6.2-1.1-8.8l-186.5-278.8c-2.5-3.7-7.2-5.4-11.5-3.9     l-278.6,93.1l-0.2,0.1c-0.1,0-0.1,0-0.2,0.1c-0.3,0.1-0.5,0.2-0.8,0.3c-0.1,0-0.2,0.1-0.3,0.1c-0.2,0.1-0.4,0.2-0.7,0.4     c-0.1,0.1-0.2,0.1-0.3,0.2c-0.2,0.1-0.4,0.3-0.6,0.4c-0.1,0.1-0.2,0.1-0.3,0.2c-0.2,0.2-0.5,0.4-0.7,0.6l-0.1,0.1     c-0.3,0.3-0.5,0.5-0.7,0.8c-0.1,0.1-0.1,0.2-0.2,0.2c-0.2,0.2-0.3,0.4-0.5,0.6c-0.1,0.1-0.1,0.2-0.2,0.3     c-0.1,0.2-0.3,0.4-0.4,0.7c0,0.1-0.1,0.2-0.1,0.3c-0.1,0.2-0.2,0.5-0.3,0.8c0,0.1,0,0.1-0.1,0.2v0.1c-0.1,0.3-0.2,0.6-0.3,0.9     v0.1c-0.1,0.4-0.1,0.7-0.2,1.1v0.1c0,0.3,0,0.6,0,0.8v93.2c0,2,0.6,3.9,1.7,5.6l186.4,278.8c1.9,2.8,5,4.4,8.3,4.4     c1.1,0,2.1-0.2,3.2-0.5l277.9-93.2c5.2-1.8,8.1-7.4,6.3-12.7c-1.8-5.2-7.4-8.1-12.7-6.3l-9.5,3.2v-71.8L478.6,838.752z      M186.6,982.752l-166.4-248.9v-57.2l166.4,248.9V982.752z M441.9,922.452c0,0.1,0,0.2,0,0.4l-235.3,78.9v-72.1l26.2-8.8v36.4     c0,3.7,2,7.1,5.3,8.8c1.5,0.8,3.1,1.2,4.7,1.2c2,0,3.9-0.6,5.6-1.7l32.3-21.8h31.8c5.5,0,10-4.5,10-10v-42.9l119.4-39.9V922.452z      M252.8,938.452v-24.3v0l49.7-16.6v26.2h-24.8c-2,0-3.9,0.6-5.6,1.7L252.8,938.452z M200.7,910.452l-174.9-261.4l259.1-86.7v0     l174.9,261.5L200.7,910.452z" fill="#ffffff" data-original="#000000" style="" class=""/>
			<path d="M268.9,687.952c5.2-1.9,7.8-7.7,5.8-12.9s-7.7-7.8-12.9-5.8l-40.9,15.4l-16.1-23.2c-3.2-4.5-9.4-5.6-13.9-2.5     c-4.5,3.2-5.6,9.4-2.5,13.9l13.3,19l-32.1,12.2c-5.2,1.9-7.8,7.7-5.8,12.9c1.5,4,5.3,6.5,9.4,6.5c1.2,0,2.4-0.2,3.5-0.6     l36.9-13.9l55.9,80c1.9,2.8,5,4.3,8.2,4.3c2,0,4-0.6,5.7-1.8c4.5-3.4,5.6-9.6,2.4-14.1l0,0l-53-75.8L268.9,687.952z" fill="#ffffff" data-original="#000000" style="" class=""/>
		</g>
	</g>
</g>
<g xmlns="http://www.w3.org/2000/svg">
</g>
<g xmlns="http://www.w3.org/2000/svg">
</g>
<g xmlns="http://www.w3.org/2000/svg">
</g>
<g xmlns="http://www.w3.org/2000/svg">
</g>
<g xmlns="http://www.w3.org/2000/svg">
</g>
<g xmlns="http://www.w3.org/2000/svg">
</g>
<g xmlns="http://www.w3.org/2000/svg">
</g>
<g xmlns="http://www.w3.org/2000/svg">
</g>
<g xmlns="http://www.w3.org/2000/svg">
</g>
<g xmlns="http://www.w3.org/2000/svg">
</g>
<g xmlns="http://www.w3.org/2000/svg">
</g>
<g xmlns="http://www.w3.org/2000/svg">
</g>
<g xmlns="http://www.w3.org/2000/svg">
</g>
<g xmlns="http://www.w3.org/2000/svg">
</g>
<g xmlns="http://www.w3.org/2000/svg">
</g>
</g></svg>
