<svg width="25" height="25" viewBox="0 0 25 25" fill="none" xmlns="http://www.w3.org/2000/svg">
<path d="M14.541 12.4312L24.666 2.30619C24.8936 2.04049 25.0125 1.69872 24.999 1.34917C24.9855 0.999621 24.8406 0.668039 24.5932 0.420686C24.3458 0.173332 24.0143 0.0284253 23.6647 0.0149237C23.3152 0.00142209 22.9734 0.12032 22.7077 0.347857L12.5827 10.4729L2.4577 0.333967C2.192 0.106431 1.85023 -0.0124658 1.50068 0.00103581C1.15113 0.0145374 0.819549 0.159443 0.572196 0.406796C0.324842 0.65415 0.179935 0.985732 0.166434 1.33528C0.152932 1.68483 0.27183 2.0266 0.499367 2.2923L10.6244 12.4312L0.485478 22.5562C0.340086 22.6807 0.222003 22.8339 0.138637 23.0062C0.0552712 23.1785 0.00842316 23.3662 0.00103497 23.5575C-0.00635321 23.7488 0.0258773 23.9395 0.095703 24.1178C0.165529 24.296 0.271443 24.4578 0.406797 24.5932C0.542151 24.7286 0.704022 24.8345 0.882251 24.9043C1.06048 24.9741 1.25122 25.0064 1.4425 24.999C1.63377 24.9916 1.82146 24.9447 1.99377 24.8614C2.16608 24.778 2.3193 24.6599 2.44381 24.5145L12.5827 14.3895L22.7077 24.5145C22.9734 24.7421 23.3152 24.861 23.6647 24.8475C24.0143 24.834 24.3458 24.689 24.5932 24.4417C24.8406 24.1943 24.9855 23.8628 24.999 23.5132C25.0125 23.1637 24.8936 22.8219 24.666 22.5562L14.541 12.4312Z" fill="white"/>
</svg>
