<svg width="57" height="57" viewBox="0 0 57 57" fill="none" xmlns="http://www.w3.org/2000/svg">
<path d="M53.8273 39.1968C52.0779 43.3341 49.3416 46.9797 45.8577 49.8152C42.3738 52.6506 38.2483 54.5894 33.842 55.4621C29.4357 56.3348 24.8827 56.1148 20.581 54.8214C16.2794 53.528 12.3601 51.2005 9.16571 48.0424C5.97137 44.8844 3.59928 40.9919 2.25682 36.7053C0.914365 32.4187 0.642411 27.8685 1.46474 23.4525C2.28707 19.0365 4.17864 14.8892 6.97409 11.3731C9.76953 7.85704 13.3837 5.07929 17.5007 3.28271" stroke="white" stroke-width="2" stroke-linecap="round" stroke-linejoin="round"/>
<path d="M55.9998 28.4993C55.9998 24.8881 55.2885 21.3122 53.9066 17.9758C52.5246 14.6394 50.499 11.6079 47.9454 9.05437C45.3919 6.50082 42.3604 4.47523 39.024 3.09326C35.6877 1.71129 32.1118 1 28.5005 1V28.4993H55.9998Z" stroke="white" stroke-width="2" stroke-linecap="round" stroke-linejoin="round"/>
</svg>
