<svg width="100" height="100" viewBox="0 0 100 100" fill="none" xmlns="http://www.w3.org/2000/svg">
<circle cx="50" cy="50" r="50" fill="white"/>
<circle cx="50" cy="50" r="30" fill="#FF0AC9"/>
<path d="M64.2742 42.5076C63.8087 41.4298 63.1375 40.4532 62.2983 39.6323C61.4583 38.8089 60.4681 38.1546 59.3813 37.705C58.2543 37.2368 57.0456 36.9972 55.8253 37C54.1133 37 52.443 37.4688 50.9914 38.3543C50.6442 38.5662 50.3143 38.7988 50.0017 39.0523C49.6892 38.7988 49.3593 38.5662 49.012 38.3543C47.5605 37.4688 45.8901 37 44.1781 37C42.9454 37 41.7508 37.2362 40.6222 37.705C39.5318 38.1564 38.549 38.8058 37.7052 39.6323C36.8648 40.4522 36.1935 41.4291 35.7293 42.5076C35.2466 43.6293 35 44.8204 35 46.0462C35 47.2026 35.2361 48.4076 35.7049 49.6334C36.0973 50.6578 36.6599 51.7205 37.3787 52.7935C38.5178 54.4916 40.0839 56.2626 42.0286 58.058C45.2512 61.034 48.4425 63.0898 48.5779 63.1732L49.401 63.701C49.7656 63.9337 50.2344 63.9337 50.599 63.701L51.422 63.1732C51.5575 63.0863 54.7453 61.034 57.9714 58.058C59.916 56.2626 61.4822 54.4916 62.6212 52.7935C63.3401 51.7205 63.9061 50.6578 64.295 49.6334C64.7638 48.4076 65 47.2026 65 46.0462C65.0034 44.8204 64.7569 43.6293 64.2742 42.5076V42.5076Z" fill="white"/>
</svg>
