<svg width="100" height="100" viewBox="0 0 100 100" fill="none" xmlns="http://www.w3.org/2000/svg">
<path d="M50 32V35.2727" stroke="#B00AFF" stroke-width="2" stroke-linecap="round" stroke-linejoin="round"/>
<path d="M50 64.7273V68" stroke="#B00AFF" stroke-width="2" stroke-linecap="round" stroke-linejoin="round"/>
<path d="M60.4062 60.4075L62.7299 62.7311" stroke="#B00AFF" stroke-width="2" stroke-linecap="round" stroke-linejoin="round"/>
<path d="M64.7266 50H67.9993" stroke="#B00AFF" stroke-width="2" stroke-linecap="round" stroke-linejoin="round"/>
<rect x="1" y="1" width="98" height="98" rx="10" stroke="#B00AFF" stroke-width="2"/>
<path d="M50.0002 58.1818C54.5189 58.1818 58.182 54.5186 58.182 49.9999C58.182 45.4812 54.5189 41.8181 50.0002 41.8181C45.4815 41.8181 41.8184 45.4812 41.8184 49.9999C41.8184 54.5186 45.4815 58.1818 50.0002 58.1818Z" stroke="#B00AFF" stroke-width="2" stroke-linecap="round" stroke-linejoin="round"/>
<path d="M37.2695 37.2688L39.5932 39.5924" stroke="#B00AFF" stroke-width="2" stroke-linecap="round" stroke-linejoin="round"/>
<path d="M32 50H35.2727" stroke="#B00AFF" stroke-width="2" stroke-linecap="round" stroke-linejoin="round"/>
<path d="M37.2695 62.7311L39.5932 60.4075" stroke="#B00AFF" stroke-width="2" stroke-linecap="round" stroke-linejoin="round"/>
<path d="M60.4062 39.5924L62.7299 37.2688" stroke="#B00AFF" stroke-width="2" stroke-linecap="round" stroke-linejoin="round"/>
</svg>
