<svg width="27" height="25" viewBox="0 0 27 25" fill="none" xmlns="http://www.w3.org/2000/svg">
<path d="M1 1H8.5C9.82608 1 11.0979 1.52678 12.0355 2.46447C12.9732 3.40215 13.5 4.67392 13.5 6V23.5C13.5 22.5054 13.1049 21.5516 12.4017 20.8483C11.6984 20.1451 10.7446 19.75 9.75 19.75H1V1Z" stroke="white" stroke-width="2" stroke-linecap="round" stroke-linejoin="round"/>
<path d="M26 1H18.5C17.1739 1 15.9021 1.52678 14.9645 2.46447C14.0268 3.40215 13.5 4.67392 13.5 6V23.5C13.5 22.5054 13.8951 21.5516 14.5983 20.8483C15.3016 20.1451 16.2554 19.75 17.25 19.75H26V1Z" stroke="white" stroke-width="2" stroke-linecap="round" stroke-linejoin="round"/>
</svg>
