<svg height="512" viewBox="0 0 56 60" width="512" xmlns="http://www.w3.org/2000/svg"><g id="Page-1" fill="none" fill-rule="evenodd"><g id="021---Marketing-Distribution" fill="rgb(0,0,0)" fill-rule="nonzero"><path id="Shape" d="m22.52 25.212c-1.9992834 1.1083157-4.2350347 1.7214327-6.52 1.788h-3c-.5522847 0-1 .4477153-1 1s.4477153 1 1 1h3c2.6223625-.0546406 5.1910777-.7531388 7.48-2.034.3216365-.1670712.5276965-.4950978.5385861-.8573743.0108897-.3622764-.1750958-.7020875-.4861167-.8881758-.3110208-.1860882-.698386-.1893211-1.0124694-.0084499z" fill="#77323b"/><path id="Shape" d="m29.5 10c-1.9329966 0-3.5 1.5670034-3.5 3.5v.38c-1.839 8.963-9.669 9.12-10 9.12h-10c-3.3137085 0-6 2.6862915-6 6s2.6862915 6 6 6v11c0 2.209139 1.790861 4 4 4s4-1.790861 4-4v-11h2c.333 0 8.151.109 10 9.12v.38c0 1.9329966 1.5670034 3.5 3.5 3.5s3.5-1.5670034 3.5-3.5v-14.5h3v19c0 1.6568542 1.3431458 3 3 3h3v1c0 1.6568542 1.3431458 3 3 3h8c1.6568542 0 3-1.3431458 3-3v-8c0-1.6568542-1.3431458-3-3-3h-8c-1.6568542 0-3 1.3431458-3 3v5h-3c-.5522847 0-1-.4477153-1-1v-19h4v2c0 1.6568542 1.3431458 3 3 3h8c1.6568542 0 3-1.3431458 3-3v-8c0-1.6568542-1.3431458-3-3-3h-8c-1.6568542 0-3 1.3431458-3 3v4h-4v-19c0-.55228475.4477153-1 1-1h3v3c0 1.6568542 1.3431458 3 3 3h8c1.6568542 0 3-1.3431458 3-3v-8c0-1.65685425-1.3431458-3-3-3h-8c-1.6568542 0-3 1.34314575-3 3v3h-3c-1.6568542 0-3 1.34314575-3 3v19h-3v-14.5c0-1.9329966-1.5670034-3.5-3.5-3.5zm14.5 35c0-.5522847.4477153-1 1-1h8c.5522847 0 1 .4477153 1 1v8c0 .5522847-.4477153 1-1 1h-8c-.5522847 0-1-.4477153-1-1zm0-21c0-.5522847.4477153-1 1-1h8c.5522847 0 1 .4477153 1 1v8c0 .5522847-.4477153 1-1 1h-8c-.5522847 0-1-.4477153-1-1zm0-21c0-.55228475.4477153-1 1-1h8c.5522847 0 1 .44771525 1 1v8c0 .5522847-.4477153 1-1 1h-8c-.5522847 0-1-.4477153-1-1zm-42 26c0-2.209139 1.790861-4 4-4h2v8h-2c-2.209139 0-4-1.790861-4-4zm8 19c-1.1045695 0-2-.8954305-2-2v-5h4v5c0 1.1045695-.8954305 2-2 2zm2-9h-4v-4h4zm4-6h-6v-8h6c4.0483504-.2076571 7.7584946-2.3224393 10-5.7v19.4c-2.2415054-3.3775607-5.9516496-5.4923429-10-5.7zm15 11.5c0 .8284271-.6715729 1.5-1.5 1.5s-1.5-.6715729-1.5-1.5v-31c0-.8284271.6715729-1.5 1.5-1.5s1.5.6715729 1.5 1.5z" fill="#77323b"/><path id="Shape" d="m43 58c-.5522847 0-1 .4477153-1 1s.4477153 1 1 1h12c.5522847 0 1-.4477153 1-1s-.4477153-1-1-1z" fill="#77323b"/><path id="Shape" d="m43 37c-.5522847 0-1 .4477153-1 1s.4477153 1 1 1h12c.5522847 0 1-.4477153 1-1s-.4477153-1-1-1z" fill="#77323b"/><path id="Shape" d="m43 16c-.5522847 0-1 .4477153-1 1s.4477153 1 1 1h12c.5522847 0 1-.4477153 1-1s-.4477153-1-1-1z" fill="#77323b"/></g></g></svg>