<svg id="Capa_1" enable-background="new 0 0 512 512" height="512" viewBox="0 0 512 512" width="512" xmlns="http://www.w3.org/2000/svg"><path d="m497 242h-226v-16c0-24.813-20.187-45-45-45h-181c-8.271 0-15-6.729-15-15s6.729-15 15-15h237.36c37.066 0 73.312-12.209 102.484-34.033l22.925 68.776c1.953 5.858 7.295 9.92 13.461 10.237.26.013.517.02.773.02 5.868 0 11.23-3.434 13.666-8.824l75-166c2.285-5.058 1.59-10.965-1.807-15.355-3.396-4.391-8.946-6.545-14.409-5.604l-180 31c-6.18 1.064-11.045 5.86-12.198 12.024s1.649 12.394 7.026 15.621l57.25 34.35c-23.956 17.823-53.713 27.788-84.171 27.788h-237.36c-24.813 0-45 20.187-45 45s20.187 45 45 45h181c8.271 0 15 6.729 15 15v16h-226c-8.284 0-15 6.716-15 15v240c0 8.284 6.716 15 15 15h482c8.284 0 15-6.716 15-15v-240c0-8.284-6.716-15-15-15zm-25.306-207.421-47.584 105.319-17.88-53.641c-1.151-3.452-3.595-6.367-6.513-8.119l-40.354-24.213zm10.306 447.421h-452v-210h452z" fill="#77323b"/><path d="m75 332h61c8.284 0 15-6.716 15-15s-6.716-15-15-15h-61c-8.284 0-15 6.716-15 15s6.716 15 15 15z" fill="#77323b"/><path d="m196 332h30c8.284 0 15-6.716 15-15s-6.716-15-15-15h-30c-8.284 0-15 6.716-15 15s6.716 15 15 15z" fill="#77323b"/><path d="m286 332h30c8.284 0 15-6.716 15-15s-6.716-15-15-15h-30c-8.284 0-15 6.716-15 15s6.716 15 15 15z" fill="#77323b"/><path d="m376 332h61c8.284 0 15-6.716 15-15s-6.716-15-15-15h-61c-8.284 0-15 6.716-15 15s6.716 15 15 15z" fill="#77323b"/><path d="m346 392h91c8.284 0 15-6.716 15-15s-6.716-15-15-15h-91c-8.284 0-15 6.716-15 15s6.716 15 15 15z" fill="#77323b"/><path d="m256 392h30c8.284 0 15-6.716 15-15s-6.716-15-15-15h-30c-8.284 0-15 6.716-15 15s6.716 15 15 15z" fill="#77323b"/><path d="m211 377c0-8.284-6.716-15-15-15h-30c-8.284 0-15 6.716-15 15s6.716 15 15 15h30c8.284 0 15-6.716 15-15z" fill="#77323b"/><path d="m75 392h31c8.284 0 15-6.716 15-15s-6.716-15-15-15h-31c-8.284 0-15 6.716-15 15s6.716 15 15 15z" fill="#77323b"/><path d="m437 422h-31c-8.284 0-15 6.716-15 15s6.716 15 15 15h31c8.284 0 15-6.716 15-15s-6.716-15-15-15z" fill="#77323b"/><path d="m346 422h-150c-8.284 0-15 6.716-15 15s6.716 15 15 15h150c8.284 0 15-6.716 15-15s-6.716-15-15-15z" fill="#77323b"/><path d="m136 422h-61c-8.284 0-15 6.716-15 15s6.716 15 15 15h61c8.284 0 15-6.716 15-15s-6.716-15-15-15z" fill="#77323b"/></svg>