<svg width="800" height="801" viewBox="0 0 800 801" fill="none" xmlns="http://www.w3.org/2000/svg">
<path d="M600.001 0C548.197 0.417152 496.774 8.91032 447.587 25.1734C394.5 42.3416 344.084 66.8742 297.814 98.0535C258.122 124.435 221.909 155.708 190.027 191.134C188.608 192.748 187.594 194.677 187.067 196.76C176.038 240.958 167.58 285.758 161.734 330.934C152.571 320.485 147.254 307.219 146.667 293.334C146.667 288.487 144.037 284.022 139.797 281.672C135.558 279.322 130.377 279.458 126.267 282.027C121.627 284.934 13.8934 355.161 52.8268 571.441C20.5727 638.776 2.58735 712.052 9.44573e-07 786.668C-0.00192333 791.795 2.93636 796.469 7.55759 798.69C12.1788 800.912 17.6642 800.286 21.6667 797.081L88.3335 743.748C90.6102 741.924 92.2261 739.405 92.9335 736.575C102.335 701.685 114.968 667.747 130.667 635.201C139.583 636.583 148.591 637.291 157.614 637.321C200.839 635.767 243.554 627.443 284.2 612.654C290.408 610.592 294.203 604.331 293.159 597.874C292.116 591.416 286.542 586.67 280 586.668C262.204 585.178 246.264 575.067 237.334 559.601C278.464 572.612 322.615 572.57 363.721 559.481C365.182 559.065 366.562 558.402 367.801 557.521C429.571 512.384 488.04 462.894 542.761 409.427C546.573 405.614 547.713 399.88 545.65 394.899C543.587 389.917 538.726 386.668 533.334 386.667C507.157 385.734 481.495 379.129 458.121 367.307C495.814 370.747 547.454 369.441 581.321 344.001C622.401 313.187 672.641 258.467 730.655 181.334C758.1 143.083 781.047 101.797 799.041 58.2934C801.286 52.695 799.493 46.2868 794.668 42.6667C792.348 40.9201 736.215 0 600.001 0V0ZM68.2268 725.681L28.5067 757.468C34.5138 695.569 51.4992 635.236 78.6668 579.294C124.934 486.668 313.707 267.907 483.281 188.6C390.867 254.534 219.28 398.361 108.067 620.708C91.5505 654.384 78.2127 689.527 68.2268 725.681ZM709.335 165.334C689.921 191.147 671.521 214.134 654.068 234.667C614.913 246.589 574.261 252.874 533.334 253.334C525.97 253.334 520.001 259.303 520.001 266.667C520.001 274.031 525.97 280 533.334 280C563.233 279.803 593.031 276.519 622.254 270.2C604.761 289.23 585.723 306.779 565.334 322.667C517.774 358.361 417.574 333.974 416.561 333.734C411.087 332.37 405.348 334.599 402.228 339.299C399.109 343.999 399.285 350.153 402.667 354.667C428.141 385.214 464.151 405.088 503.574 410.361C456.272 454.669 406.365 496.111 354.121 534.468C270.36 557.561 223.267 524.068 221.334 522.668C216.904 519.343 210.88 519.103 206.2 522.065C201.52 525.027 199.158 530.574 200.267 536.001C204.169 560.99 217.663 583.471 237.88 598.668C207.384 607.636 175.609 611.475 143.854 610.028C230.54 451.75 351.868 315.103 498.774 210.294C510.163 202.455 513.472 187.1 506.321 175.267C499.46 163.111 484.32 158.401 471.774 164.52C309.107 240.627 141.04 428.761 74.2268 533.654C59.4801 407.521 100.32 344.107 124.4 318.667C132.842 339.823 147.277 358.053 165.934 371.121C170.029 373.853 175.297 374.106 179.636 371.779C183.974 369.452 186.678 364.924 186.667 360.001C186.667 313.961 207.8 224.387 212.16 206.4C223.876 193.456 236.239 181.111 249.2 169.414C243.261 192.478 240.172 216.184 240 240C240 247.364 245.97 253.334 253.334 253.334C260.698 253.334 266.667 247.364 266.667 240C267.241 205.176 274.107 170.742 286.934 138.36C321.519 112.285 358.933 90.1896 398.467 72.4935C393.632 82.4084 389.808 92.7853 387.054 103.467C385.287 110.617 389.65 117.846 396.801 119.614C403.951 121.381 411.18 117.017 412.947 109.867C418.391 90.7367 427.003 72.6548 438.427 56.3734C490.195 37.3214 544.842 27.274 600.001 26.6667C697.028 26.6667 750.241 48.5601 769.828 58.8268C753.481 96.3655 733.203 132.067 709.335 165.334V165.334Z" fill="black" fill-opacity="0.1"/>
</svg>
