<svg width="135" height="133" viewBox="0 0 135 133" fill="none" xmlns="http://www.w3.org/2000/svg">
<path d="M20.99 118V117.55L21.935 117.19C22.565 116.95 22.955 116.665 23.105 116.335C23.285 115.975 23.375 115.495 23.375 114.895V91.405C23.375 90.805 23.285 90.325 23.105 89.965C22.925 89.605 22.535 89.32 21.935 89.11L20.99 88.75V88.3H32.465V88.75L31.655 89.11C31.085 89.32 30.695 89.62 30.485 90.01C30.275 90.37 30.17 90.85 30.17 91.45V117.1H37.1C38.21 117.1 39.02 116.83 39.53 116.29C40.07 115.75 40.58 114.97 41.06 113.95L42.815 110.17H43.265L42.86 118H20.99ZM58.7615 118.81C56.9315 118.81 55.1615 118.48 53.4515 117.82C51.7715 117.16 50.2565 116.185 48.9065 114.895C47.5865 113.575 46.5365 111.94 45.7565 109.99C44.9765 108.04 44.5865 105.76 44.5865 103.15C44.5865 100.57 44.9765 98.305 45.7565 96.355C46.5365 94.405 47.6015 92.785 48.9515 91.495C50.3015 90.175 51.8165 89.185 53.4965 88.525C55.2065 87.835 56.9615 87.49 58.7615 87.49C60.5915 87.49 62.3465 87.82 64.0265 88.48C65.7365 89.11 67.2515 90.085 68.5715 91.405C69.9215 92.695 70.9865 94.33 71.7665 96.31C72.5465 98.26 72.9365 100.54 72.9365 103.15C72.9365 105.7 72.5465 107.965 71.7665 109.945C70.9865 111.895 69.9215 113.53 68.5715 114.85C67.2515 116.14 65.7365 117.13 64.0265 117.82C62.3465 118.48 60.5915 118.81 58.7615 118.81ZM58.7615 117.865C60.4115 117.865 61.7465 117.43 62.7665 116.56C63.7865 115.66 64.5215 114.145 64.9715 112.015C65.4515 109.855 65.6915 106.9 65.6915 103.15C65.6915 99.37 65.4515 96.415 64.9715 94.285C64.5215 92.125 63.7865 90.61 62.7665 89.74C61.7465 88.84 60.4115 88.39 58.7615 88.39C57.1415 88.39 55.8215 88.84 54.8015 89.74C53.7815 90.61 53.0315 92.125 52.5515 94.285C52.1015 96.415 51.8765 99.37 51.8765 103.15C51.8765 106.9 52.1015 109.855 52.5515 112.015C53.0315 114.145 53.7815 115.66 54.8015 116.56C55.8215 117.43 57.1415 117.865 58.7615 117.865ZM90.9161 118.81C87.8561 118.81 85.1561 118.18 82.8161 116.92C80.5061 115.63 78.6911 113.815 77.3711 111.475C76.0811 109.105 75.4361 106.315 75.4361 103.105C75.4361 99.985 76.0811 97.255 77.3711 94.915C78.6611 92.575 80.5211 90.76 82.9511 89.47C85.4111 88.15 88.3811 87.49 91.8611 87.49C93.4511 87.49 94.9211 87.67 96.2711 88.03C97.6511 88.39 98.9561 88.915 100.186 89.605L100.366 95.905H99.9161L97.3961 91.225C97.0061 90.475 96.6461 89.935 96.3161 89.605C95.9861 89.275 95.5661 89.02 95.0561 88.84C94.5761 88.69 94.1261 88.585 93.7061 88.525C93.3161 88.435 92.7911 88.39 92.1311 88.39C90.2711 88.39 88.6211 88.885 87.1811 89.875C85.7711 90.865 84.6761 92.44 83.8961 94.6C83.1161 96.76 82.7261 99.595 82.7261 103.105C82.7261 106.585 83.0861 109.42 83.8061 111.61C84.5561 113.8 85.6061 115.405 86.9561 116.425C88.3061 117.415 89.8661 117.91 91.6361 117.91C91.9061 117.91 92.1611 117.895 92.4011 117.865C92.6711 117.805 92.9261 117.745 93.1661 117.685C93.7361 117.595 94.1111 117.355 94.2911 116.965C94.4711 116.575 94.5611 116.11 94.5611 115.57V106.66C94.5611 105.49 93.9611 104.77 92.7611 104.5L90.6911 103.96V103.51H103.381V103.96L102.751 104.14C101.611 104.5 101.041 105.25 101.041 106.39V116.155C99.4811 117.025 97.8911 117.685 96.2711 118.135C94.6811 118.585 92.8961 118.81 90.9161 118.81ZM119.582 118.81C117.752 118.81 115.982 118.48 114.272 117.82C112.592 117.16 111.077 116.185 109.727 114.895C108.407 113.575 107.357 111.94 106.577 109.99C105.797 108.04 105.407 105.76 105.407 103.15C105.407 100.57 105.797 98.305 106.577 96.355C107.357 94.405 108.422 92.785 109.772 91.495C111.122 90.175 112.637 89.185 114.317 88.525C116.027 87.835 117.782 87.49 119.582 87.49C121.412 87.49 123.167 87.82 124.847 88.48C126.557 89.11 128.072 90.085 129.392 91.405C130.742 92.695 131.807 94.33 132.587 96.31C133.367 98.26 133.757 100.54 133.757 103.15C133.757 105.7 133.367 107.965 132.587 109.945C131.807 111.895 130.742 113.53 129.392 114.85C128.072 116.14 126.557 117.13 124.847 117.82C123.167 118.48 121.412 118.81 119.582 118.81ZM119.582 117.865C121.232 117.865 122.567 117.43 123.587 116.56C124.607 115.66 125.342 114.145 125.792 112.015C126.272 109.855 126.512 106.9 126.512 103.15C126.512 99.37 126.272 96.415 125.792 94.285C125.342 92.125 124.607 90.61 123.587 89.74C122.567 88.84 121.232 88.39 119.582 88.39C117.962 88.39 116.642 88.84 115.622 89.74C114.602 90.61 113.852 92.125 113.372 94.285C112.922 96.415 112.697 99.37 112.697 103.15C112.697 106.9 112.922 109.855 113.372 112.015C113.852 114.145 114.602 115.66 115.622 116.56C116.642 117.43 117.962 117.865 119.582 117.865Z" fill="white"/>
<path d="M15.075 76.81C13.245 76.81 11.475 76.48 9.765 75.82C8.085 75.16 6.57 74.185 5.22 72.895C3.9 71.575 2.85 69.94 2.07 67.99C1.29 66.04 0.9 63.76 0.9 61.15C0.9 58.57 1.29 56.305 2.07 54.355C2.85 52.405 3.915 50.785 5.265 49.495C6.615 48.175 8.13 47.185 9.81 46.525C11.52 45.835 13.275 45.49 15.075 45.49C16.905 45.49 18.66 45.82 20.34 46.48C22.05 47.11 23.565 48.085 24.885 49.405C26.235 50.695 27.3 52.33 28.08 54.31C28.86 56.26 29.25 58.54 29.25 61.15C29.25 63.7 28.86 65.965 28.08 67.945C27.3 69.895 26.235 71.53 24.885 72.85C23.565 74.14 22.05 75.13 20.34 75.82C18.66 76.48 16.905 76.81 15.075 76.81ZM15.075 75.865C16.725 75.865 18.06 75.43 19.08 74.56C20.1 73.66 20.835 72.145 21.285 70.015C21.765 67.855 22.005 64.9 22.005 61.15C22.005 57.37 21.765 54.415 21.285 52.285C20.835 50.125 20.1 48.61 19.08 47.74C18.06 46.84 16.725 46.39 15.075 46.39C13.455 46.39 12.135 46.84 11.115 47.74C10.095 48.61 9.345 50.125 8.865 52.285C8.415 54.415 8.19 57.37 8.19 61.15C8.19 64.9 8.415 67.855 8.865 70.015C9.345 72.145 10.095 73.66 11.115 74.56C12.135 75.43 13.455 75.865 15.075 75.865ZM28.7047 76V75.55L29.8297 75.145C30.4297 74.905 30.8947 74.62 31.2247 74.29C31.5547 73.93 31.8247 73.435 32.0347 72.805L41.3047 46.21H45.1297L54.2647 72.985C54.5047 73.645 54.7747 74.155 55.0747 74.515C55.3747 74.845 55.8397 75.13 56.4697 75.37L57.0097 75.55V76H45.5797V75.55L46.2547 75.325C46.8847 75.085 47.2597 74.755 47.3797 74.335C47.5297 73.885 47.5147 73.36 47.3347 72.76L45.2197 66.28H35.2297L33.0697 72.625C32.8597 73.285 32.7847 73.81 32.8447 74.2C32.9347 74.59 33.2947 74.905 33.9247 75.145L34.9147 75.55V76H28.7047ZM35.5447 65.38H44.9497L40.4047 51.385L35.5447 65.38ZM58.4265 76V75.55L59.3715 75.19C59.9715 74.98 60.3615 74.695 60.5415 74.335C60.7215 73.975 60.8115 73.51 60.8115 72.94V49.405C60.8115 48.805 60.7215 48.325 60.5415 47.965C60.3615 47.605 59.9715 47.32 59.3715 47.11L58.4265 46.75V46.3H69.6315V46.75L68.6415 47.155C68.1315 47.335 67.7865 47.605 67.6065 47.965C67.4265 48.325 67.3365 48.82 67.3365 49.45V72.985C67.3365 73.585 67.4265 74.05 67.6065 74.38C67.8165 74.71 68.2065 74.98 68.7765 75.19L69.6315 75.55V76H58.4265ZM75.0315 76V75.55L75.6165 75.37C76.2165 75.19 76.5315 74.89 76.5615 74.47C76.5915 74.05 76.4115 73.57 76.0215 73.03L67.3815 60.745L78.7665 49.135C79.1865 48.715 79.4115 48.31 79.4415 47.92C79.5015 47.53 79.2165 47.23 78.5865 47.02L77.8215 46.75V46.3H84.3915V46.75L83.2215 47.11C82.5615 47.32 82.0365 47.575 81.6465 47.875C81.2565 48.175 80.8065 48.58 80.2965 49.09L72.2415 57.325L82.8165 72.76C83.2665 73.42 83.6865 73.96 84.0765 74.38C84.4965 74.8 85.0815 75.13 85.8315 75.37L86.4615 75.55V76H75.0315Z" fill="white"/>
<path d="M59 0C55.1147 0.0312863 51.258 0.668272 47.569 1.888C43.5874 3.17562 39.8062 5.01556 36.336 7.354C33.3591 9.33263 30.6431 11.6781 28.252 14.335C28.1456 14.4561 28.0695 14.6007 28.03 14.757C27.2029 18.0718 26.5685 21.4318 26.13 24.82C25.4428 24.0364 25.0441 23.0414 25 22C25 21.6365 24.8027 21.3016 24.4848 21.1254C24.1668 20.9491 23.7783 20.9593 23.47 21.152C23.122 21.37 15.042 26.637 17.962 42.858C15.5429 47.9081 14.1941 53.4038 14 59C13.9999 59.3845 14.2202 59.7351 14.5668 59.9017C14.9134 60.0683 15.3248 60.0213 15.625 59.781L20.625 55.781C20.7958 55.6442 20.9169 55.4552 20.97 55.243C21.6751 52.6263 22.6226 50.0809 23.8 47.64C24.4687 47.7436 25.1443 47.7968 25.821 47.799C29.0629 47.6824 32.2665 47.0582 35.315 45.949C35.7806 45.7943 36.0652 45.3248 35.9869 44.8405C35.9086 44.3561 35.4906 44.0001 35 44C33.6652 43.8883 32.4698 43.1299 31.8 41.97C34.8848 42.9459 38.1961 42.9427 41.279 41.961C41.3886 41.9298 41.4921 41.8801 41.585 41.814C46.2178 38.4287 50.603 34.717 54.707 30.707C54.9929 30.421 55.0784 29.991 54.9237 29.6173C54.7689 29.2437 54.4044 29.0001 54 29C52.0367 28.93 50.1121 28.4346 48.359 27.548C51.186 27.806 55.059 27.708 57.599 25.8C60.68 23.489 64.448 19.385 68.799 13.6C70.8574 10.7312 72.5784 7.63479 73.928 4.372C74.0963 3.95211 73.9618 3.47151 73.6 3.2C73.426 3.069 69.216 0 59 0V0ZM19.117 54.426L16.138 56.81C16.5885 52.1676 17.8624 47.6426 19.9 43.447C23.37 36.5 37.528 20.093 50.246 14.145C43.315 19.09 30.446 29.877 22.105 46.553C20.8663 49.0787 19.8659 51.7144 19.117 54.426ZM67.2 12.4C65.744 14.336 64.364 16.06 63.055 17.6C60.1184 18.4941 57.0695 18.9655 54 19C53.4477 19 53 19.4477 53 20C53 20.5523 53.4477 21 54 21C56.2424 20.9852 58.4772 20.7389 60.669 20.265C59.357 21.6922 57.9291 23.0083 56.4 24.2C52.833 26.877 45.318 25.048 45.242 25.03C44.8315 24.9277 44.401 25.0949 44.1671 25.4474C43.9331 25.7999 43.9463 26.2614 44.2 26.6C46.1105 28.891 48.8113 30.3816 51.768 30.777C48.2203 34.1001 44.4773 37.2083 40.559 40.085C34.277 41.817 30.745 39.305 30.6 39.2C30.2678 38.9507 29.816 38.9327 29.465 39.1548C29.114 39.377 28.9368 39.793 29.02 40.2C29.3127 42.0742 30.3247 43.7603 31.841 44.9C29.5538 45.5727 27.1706 45.8606 24.789 45.752C31.2905 33.8812 40.39 23.6327 51.408 15.772C52.2622 15.1841 52.5103 14.0325 51.974 13.145C51.4595 12.2333 50.3239 11.8801 49.383 12.339C37.183 18.047 24.578 32.157 19.567 40.024C18.461 30.564 21.524 25.808 23.33 23.9C23.9632 25.4866 25.0458 26.8539 26.445 27.834C26.7522 28.0389 27.1472 28.0579 27.4726 27.8834C27.798 27.7089 28.0008 27.3692 28 27C28 23.547 29.585 16.829 29.912 15.48C30.7907 14.5091 31.7179 13.5833 32.69 12.706C32.2446 14.4358 32.0128 16.2138 32 18C32 18.5523 32.4477 19 33 19C33.5523 19 34 18.5523 34 18C34.043 15.3882 34.558 12.8056 35.52 10.377C38.1139 8.42133 40.9199 6.76421 43.885 5.437C43.5224 6.18062 43.2356 6.95888 43.029 7.76C42.8965 8.29627 43.2237 8.83845 43.76 8.971C44.2963 9.10355 44.8385 8.77627 44.971 8.24C45.3792 6.80524 46.0252 5.4491 46.882 4.228C50.7646 2.7991 54.8631 2.04555 59 2C66.277 2 70.268 3.642 71.737 4.412C70.511 7.2274 68.9902 9.90501 67.2 12.4Z" fill="white"/>
</svg>
